<svg width="64" height="64" viewBox="0 0 64 64" fill="none" xmlns="http://www.w3.org/2000/svg">
<rect width="64" height="64" rx="12" fill="#655CE9"/>
<path fill-rule="evenodd" clip-rule="evenodd" d="M19.5989 27.1342L21.2033 24.3913C22.7932 21.6732 25.7227 20.0006 28.8924 20H52.2592C53.0309 20 53.5118 20.8371 53.123 21.5038L51.5283 24.2385C49.9402 26.9618 47.0072 28.6391 43.8333 28.6391H20.4621C19.6897 28.6391 19.2089 27.8009 19.5989 27.1342ZM10.8769 42.4962L12.4717 39.7615C14.0604 37.0382 16.9934 35.3609 20.1672 35.3609H35.4143C36.1866 35.3609 36.6674 36.1991 36.2775 36.8658L34.673 39.6087C33.0832 42.3268 30.1531 44 26.9834 44H11.7408C10.969 44 10.4882 43.1629 10.8769 42.4962Z" fill="#F0EFFE"/>
</svg>
