<svg width="132" height="32" viewBox="0 0 132 32" fill="none" xmlns="http://www.w3.org/2000/svg">
<g clip-path="url(#clip0_2575_4279)">
<path d="M131.624 11.7582C130.233 11.8595 127.058 12.2518 126.149 12.3832C125.262 7.48851 122.801 4.00706 119.21 3.1869C111.894 1.51093 104.513 11.3341 99.4653 29.4507L103.235 30.496C108.084 13.0889 114.437 6.10155 118.337 6.99303C120.121 7.40029 121.663 9.62804 122.295 13.0907C112.972 15.2265 111.033 19.2878 111.251 22.6042C111.427 25.3161 112.878 27.5514 115.229 28.7357C117.603 29.9311 120.497 29.8335 122.597 28.4897C125.239 26.7988 125.643 24.3346 125.909 22.7036C125.909 22.7036 126.424 18.967 126.465 17.443C124.996 17.6588 123.644 17.9291 122.526 18.2293C122.46 19.2728 122.049 22.0749 122.049 22.0749C121.8 23.5932 121.605 24.4885 120.485 25.2053C119.556 25.8003 118.119 25.821 116.992 25.2523C116.215 24.8601 115.263 24.0399 115.154 22.3508C115.006 20.0667 117.652 18.2125 122.597 17.0132C122.615 17.0114 122.626 17.0038 122.643 17.0001C126.227 16.1818 132 15.6413 132 15.6413L131.624 11.7582Z" fill="currentColor"/>
<path d="M87.016 8.06592C82.5518 8.06592 78.9343 11.675 78.9343 16.1286C78.9343 20.5822 82.5518 24.1913 87.016 24.1913C91.4797 24.1913 95.0976 20.5822 95.0976 16.1286C95.0976 11.675 91.4797 8.06592 87.016 8.06592ZM87.016 20.7098C84.4801 20.7098 82.4239 18.6585 82.4239 16.1286C82.4239 13.5987 84.4801 11.5474 87.016 11.5474C89.5518 11.5474 91.6074 13.5987 91.6074 16.1286C91.6074 18.6585 89.5518 20.7098 87.016 20.7098Z" fill="currentColor"/>
<path d="M42.3058 0.802734H38.4381V23.632H42.3058V0.802734Z" fill="currentColor"/>
<path d="M11.968 8.33243V9.08126C10.813 8.44503 9.49618 8.06592 8.08152 8.06592C3.6175 8.06592 0 11.675 0 16.1286C0 20.5822 3.6175 24.1913 8.08152 24.1913C9.49801 24.1913 10.8167 23.8122 11.968 23.1684V23.9172H15.8357V8.33243H11.968ZM8.08339 20.7098C5.54758 20.7098 3.49145 18.6585 3.49145 16.1286C3.49145 13.5987 5.54758 11.5474 8.08339 11.5474C10.6192 11.5474 12.6753 13.5987 12.6753 16.1286C12.6753 18.6585 10.6192 20.7098 8.08339 20.7098Z" fill="currentColor"/>
<path d="M27.3337 8.06592C25.921 8.06592 24.6023 8.44503 23.4473 9.08126V8.33243H19.5796V31.1973H23.4473V23.1647C24.5985 23.8084 25.9153 24.1875 27.3337 24.1875C31.7978 24.1875 35.4152 20.5785 35.4152 16.1249C35.4152 11.6712 31.7958 8.06592 27.3337 8.06592ZM27.3337 20.7098C24.7979 20.7098 22.7418 18.6585 22.7418 16.1286C22.7418 13.5987 24.7979 11.5474 27.3337 11.5474C29.8695 11.5474 31.9257 13.5987 31.9257 16.1286C31.9257 18.6585 29.8695 20.7098 27.3337 20.7098Z" fill="currentColor"/>
<path d="M78.0449 8.28906H63.9173V11.5171H72.076L63.6163 23.9527H77.6762V20.719H69.5891L78.0449 8.28906Z" fill="currentColor"/>
<path d="M57.3256 8.33243V9.08126C56.1705 8.44503 54.8537 8.06592 53.4391 8.06592C48.975 8.06592 45.3575 11.675 45.3575 16.1286C45.3575 20.5822 48.975 24.1913 53.4391 24.1913C54.8556 24.1913 56.1743 23.8122 57.3256 23.1684V23.9172H61.1933V8.33243H57.3256ZM53.4391 20.7098C50.9033 20.7098 48.8472 18.6585 48.8472 16.1286C48.8472 13.5987 50.9033 11.5474 53.4391 11.5474C55.9749 11.5474 58.031 13.5987 58.031 16.1286C58.031 18.6585 55.9749 20.7098 53.4391 20.7098Z" fill="currentColor"/>
</g>
<defs>
<clipPath id="clip0_2575_4279">
<rect width="132" height="30.3947" fill="white" transform="translate(0 0.802734)"/>
</clipPath>
</defs>
</svg>
