<svg width="99" height="32" viewBox="0 0 99 32" fill="none" xmlns="http://www.w3.org/2000/svg">
<path d="M14.5784 32C14.3968 32 14.2316 31.9505 14.0665 31.8679L1.02215 24.5201C0.691918 24.3385 0.493774 24.0083 0.493774 23.6285V1.02374C0.493774 0.462332 0.939596 0 1.51751 0H27.6228C28.1842 0 28.6465 0.44582 28.6465 1.02374V23.6285C28.6465 23.9917 28.4319 24.3385 28.1181 24.5201L15.0738 31.8679C14.9086 31.967 14.76 32 14.5784 32ZM2.55776 23.0506L14.5784 29.8204L26.6155 23.0506V2.04747H2.55776V23.0506Z" fill="currentColor" />
<path d="M14.5784 21.7792C14.3968 21.7792 14.2317 21.7296 14.0665 21.6471L9.93857 19.3024C9.60833 19.1207 9.41019 18.7905 9.41019 18.4107V14.1176H11.4577V17.7998L14.5784 19.55L18.211 17.5026L19.2182 19.2859L15.0903 21.6305C14.9086 21.7296 14.76 21.7792 14.5784 21.7792Z" fill="currentColor" />
<path d="M14.5784 26.8978C14.3968 26.8978 14.2316 26.8483 14.0665 26.7657L5.46383 21.9278C5.1336 21.7461 4.93546 21.3994 4.93546 21.0361V9.95666C4.93546 9.39526 5.38128 8.93292 5.95919 8.93292H18.5743V10.9804H6.98293V20.4582L14.5454 24.7183L22.1078 20.4582V16.0165H24.1883V21.0196C24.1883 21.3829 23.9736 21.7296 23.6599 21.9113L15.0572 26.7492C14.9086 26.8648 14.76 26.8978 14.5784 26.8978Z" fill="currentColor" />
<path d="M24.1883 12.1032H22.1408V6.52219H8.56808V4.47472H23.1481C23.7095 4.47472 24.1718 4.92054 24.1718 5.49845V12.1032H24.1883ZM38.3555 14.2167C38.3555 9.84107 41.6083 6.47265 46.083 6.47265C48.7745 6.47265 51.1522 7.81011 52.4401 9.92363L49.5175 11.6244C48.857 10.485 47.5691 9.79154 46.083 9.79154C43.4577 9.79154 41.7569 11.5583 41.7569 14.2167C41.7569 16.8916 43.4577 18.6419 46.083 18.6419C47.5856 18.6419 48.8901 17.9649 49.5175 16.8091L52.4401 18.5098C51.1852 20.6068 48.791 21.9443 46.083 21.9443C41.6083 21.9443 38.3555 18.5924 38.3555 14.2167ZM81.6991 18.6254V21.9278H71.6599V6.47265H81.6991V9.77502H75.1935V12.4169H80.9231V15.7688H75.1935V18.5924H81.6991V18.6254ZM64.9561 16.2807C66.6568 15.4221 67.8127 13.6718 67.8127 11.7895C67.8127 8.83385 65.4515 6.47265 62.5289 6.47265H56.3369V21.9443H59.8704V16.8751H61.5547L64.4608 21.9443H68.2585L64.9561 16.2807ZM62.5123 13.7709H59.8704V9.79154H62.5123C63.47 9.79154 64.2626 10.6667 64.2626 11.7895C64.2626 12.9123 63.47 13.7709 62.5123 13.7709ZM91.21 6.47265H85.5299V21.8947H91.21C95.4535 21.8947 98.7064 18.5428 98.7064 14.1672C98.7064 9.82456 95.47 6.47265 91.21 6.47265ZM91.21 18.6254H89.0634V9.79154H91.21C93.6207 9.79154 95.3049 11.5418 95.3049 14.2002C95.3214 16.8421 93.6537 18.6254 91.21 18.6254Z" fill="currentColor" />
</svg>
