<svg width="94" height="26" viewBox="0 0 94 26" fill="none" xmlns="http://www.w3.org/2000/svg">
<path d="M83.1393 12.178V18.8478C83.2073 20.9559 84.8728 21.6042 87.0895 21.0588V25.3798C82.5667 26.2688 78.63 24.2481 78.63 19.6184V12.178H75.5883V7.92691H78.63V3.14198L83.1393 3.12451V7.92497H87.0895V12.1761H83.1393V12.178Z" fill="currentColor"/>
<path d="M28.5232 7.58301C29.1658 7.58301 29.7481 7.79848 29.7481 7.79848V12.7465C29.7481 12.7465 29.158 12.5756 28.7601 12.5213C26.6559 12.2321 23.4452 13.2764 23.4452 16.8753V25.0708H18.9359V7.92659H23.4452V10.8752C24.3537 8.54388 26.3297 7.58301 28.5232 7.58301Z" fill="currentColor"/>
<path d="M31.2874 3.15934C31.2874 1.68407 32.5452 0.416504 34.0496 0.416504C35.554 0.416504 36.8468 1.68601 36.8468 3.15934C36.8468 4.63267 35.5889 5.86918 34.0496 5.86918C32.5103 5.86918 31.2874 4.63461 31.2874 3.15934ZM31.8115 7.9268H36.3207V25.071H31.8115V7.9268Z" fill="currentColor"/>
<path d="M73.6645 7.92676V25.071H69.1552V23.1512C68.107 24.6944 66.2882 25.5524 63.9471 25.5524C60.2415 25.5524 57.3395 23.0153 57.3395 18.4536V7.92676H61.8488V17.9042C61.8488 20.2356 63.2813 21.4352 65.3098 21.4352C67.513 21.4352 69.1552 20.1657 69.1552 17.1841V7.92676H73.6645Z" fill="currentColor"/>
<path d="M13.5084 18.2381C12.765 19.9794 11.0607 21.1033 9.16998 21.1033C6.56884 21.1033 4.45299 18.9874 4.45299 16.3863C4.45299 13.7852 6.56884 11.6693 9.16998 11.6693C10.9869 11.6693 12.6097 12.6865 13.4094 14.3267L13.4424 14.3947L17.4509 12.4458L17.4179 12.3778C15.8669 9.19629 12.7067 7.21826 9.16998 7.21826C4.11329 7.21632 0 11.3296 0 16.3863C0 21.443 4.11329 25.5543 9.16998 25.5543C12.8484 25.5543 16.1581 23.3686 17.6043 19.9852L17.6334 19.9153L13.5395 18.1663L13.5104 18.2362L13.5084 18.2381Z" fill="currentColor"/>
<path d="M51.914 18.1702L51.8849 18.2401C51.1414 19.9813 49.4371 21.1052 47.5464 21.1052C44.9453 21.1052 42.8295 18.9894 42.8295 16.3882C42.8295 13.7871 44.9453 11.6713 47.5464 11.6713C49.3634 11.6713 50.9862 12.6884 51.7859 14.3287L51.8189 14.3966L55.8274 12.4477L55.7944 12.3798C54.2434 9.19824 51.0832 7.22021 47.5464 7.22021C42.4898 7.22021 38.3765 11.3335 38.3765 16.3902C38.3765 21.4469 42.4898 25.5582 47.5464 25.5582C51.223 25.5582 54.5346 23.3725 55.9807 19.9891L56.0098 19.9192L51.916 18.1702H51.914Z" fill="currentColor"/>
<path d="M90.0187 22.9278H89.2559V22.5376H91.1776V22.9278H90.4147V25.0902H90.0168V22.9278H90.0187ZM91.6144 22.5376H91.9987L92.8062 23.6576L93.6137 22.5376H93.9981V25.0921H93.6001V23.2228L92.8062 24.3235L92.0123 23.2228V25.0921H91.6144V22.5376Z" fill="currentColor"/>
</svg>
