<svg width="32" height="32" viewBox="0 0 32 32" fill="none" xmlns="http://www.w3.org/2000/svg">
<path d="M19.281 7.89235C19.281 5.91948 20.9418 4.32498 22.9878 4.32498C25.0338 4.32498 26.6968 5.92272 26.6968 7.89235C26.6968 9.86195 25.036 11.4597 22.9878 11.4597C20.9396 11.4597 19.281 9.86522 19.281 7.89235ZM29.5386 21.9456H28.7099C27.0096 21.9456 26.1523 20.7392 26.1523 18.8399V15.2725H19.8694V20.3284C19.8694 25.8222 23.5114 28.128 27.036 28.128H29.5386V21.9456ZM8.75455 23.6429C8.75455 21.8051 9.77098 20.9695 11.8357 20.9695H16.9584V15.2563H8.75455V12.8975C8.75455 11.0316 10.3648 10.0176 12.2879 10.0176H16.9507V4.30768H10.6853C5.76123 4.30768 2.46169 6.91297 2.46169 12.3754V28.114H8.75455V23.6429Z" fill="currentColor" />
</svg>
