<svg width="92" height="22" viewBox="0 0 92 22" fill="none" xmlns="http://www.w3.org/2000/svg">
<g clip-path="url(#clip0_2488_3442)">
<path d="M82.5782 17.9579C80.4693 17.9579 78.8256 16.23 78.8256 14.1318C78.8256 12.0337 80.4693 10.3057 82.5782 10.3057C84.6871 10.3057 86.3308 12.0337 86.3308 14.1318C86.3308 16.23 84.6871 17.9579 82.5782 17.9579ZM81.5238 22C83.3225 22 85.6176 21.3212 86.8891 18.6676L87.0131 18.7293C86.4549 20.1795 86.4549 21.0435 86.4549 21.2595V21.5989H90.9828V6.6648H86.4549V7.00421C86.4549 7.2202 86.4549 8.08415 87.0131 9.53436L86.8891 9.59607C85.6176 6.9425 83.3225 6.26367 81.5238 6.26367C77.2129 6.26367 74.1736 9.65778 74.1736 14.1318C74.1736 18.6059 77.2129 22 81.5238 22ZM66.2963 6.26367C64.2494 6.26367 62.6367 6.97335 61.3341 9.59607L61.2101 9.53436C61.7683 8.08415 61.7683 7.2202 61.7683 7.00421V6.6648H57.2404V21.5989H61.8924V13.7307C61.8924 11.6634 63.1019 10.3675 65.0557 10.3675C67.0096 10.3675 67.971 11.4783 67.971 13.6999V21.5989H72.623V12.0954C72.623 8.70126 69.9558 6.26367 66.2963 6.26367ZM50.5105 9.59607L50.3864 9.53436C50.9447 8.08415 50.9447 7.2202 50.9447 7.00421V6.6648H46.4168V21.5989H51.0687L51.0998 14.4095C51.0998 12.3114 52.2162 11.0463 54.046 11.0463C54.5422 11.0463 54.9454 11.108 55.4106 11.2314V6.6648C53.3637 6.23282 51.5339 7.00421 50.5105 9.59607ZM35.7172 17.9579C33.6083 17.9579 31.9646 16.23 31.9646 14.1318C31.9646 12.0337 33.6083 10.3057 35.7172 10.3057C37.8261 10.3057 39.4698 12.0337 39.4698 14.1318C39.4698 16.23 37.8261 17.9579 35.7172 17.9579ZM34.6627 22C36.4615 22 38.7565 21.3212 40.028 18.6676L40.1521 18.7293C39.5938 20.1795 39.5938 21.0435 39.5938 21.2595V21.5989H44.1218V6.6648H39.5938V7.00421C39.5938 7.2202 39.5938 8.08415 40.1521 9.53436L40.028 9.59607C38.7565 6.9425 36.4615 6.26367 34.6627 6.26367C30.3519 6.26367 27.3126 9.65778 27.3126 14.1318C27.3126 18.6059 30.3519 22 34.6627 22ZM20.8308 21.5989H25.4828V0H20.8308V21.5989ZM17.4193 0H12.6743C12.6743 3.85694 10.2863 7.31276 6.65775 9.78121L5.23114 10.7686V0H0.300034V21.5989H5.23114V10.892L13.3876 21.5989H19.4042L11.5578 11.3548C15.1243 8.79383 17.4503 4.81346 17.4193 0Z" fill="currentColor" />
</g>
<defs>
<clipPath id="clip0_2488_3442">
<rect width="91" height="22" fill="white" transform="translate(0.300034)"/>
</clipPath>
</defs>
</svg>
