<svg width="135" height="22" viewBox="0 0 135 22" fill="none" xmlns="http://www.w3.org/2000/svg">
<g clip-path="url(#clip0_2488_3430)">
<path d="M51.8401 10.8927C52.4583 10.8927 53.029 10.8125 53.5526 10.6554C54.076 10.4975 54.5263 10.2727 54.906 9.98089C55.2864 9.6891 55.5847 9.33446 55.7983 8.91703C56.0135 8.49958 56.1191 8.02097 56.1191 7.48697V7.43903C56.1191 6.41484 55.7469 5.61549 55.0015 5.03766C54.2561 4.46234 53.2109 4.1755 51.8643 4.1755H46.7277V10.8935H51.8392L51.8401 10.8927ZM43.1527 1.1327H52.1408C53.4344 1.1327 54.5853 1.31786 55.5898 1.68158C56.5952 2.0519 57.4259 2.56359 58.0833 3.21661C58.6025 3.73407 58.9971 4.33918 59.2772 5.03436C59.557 5.72708 59.6967 6.49087 59.6967 7.32412V7.38447C59.6967 8.25738 59.557 9.03689 59.2772 9.72133C58.9971 10.4049 58.6075 11.0001 58.0982 11.5085C57.5896 12.0144 56.9899 12.4302 56.2927 12.7583C55.5948 13.0857 54.8402 13.318 54.0236 13.456L60.4544 21.9686H56.0417L49.9747 13.8751H46.7304V21.9686H43.1543V1.13435L43.1527 1.1327Z" fill="currentColor" />
<path d="M69.5083 4.67396H63.0751V1.1327H79.5003V4.67396H73.0677V21.9669H69.5083V4.67396Z" fill="currentColor" />
<path d="M83.9573 1.1327H99.0955V4.67396H87.5167V9.77919H97.7487V13.3204H87.5167V18.4249H99.2449V21.9669H83.9573V1.1327Z" fill="currentColor" />
<path d="M7.70061 11.5035C8.3711 11.5035 8.9818 11.4159 9.53514 11.2473C10.0877 11.0762 10.5629 10.8332 10.9592 10.5141C11.3589 10.1958 11.6613 9.81971 11.8723 9.38655C12.0825 8.95177 12.1872 8.46489 12.1872 7.92179V7.87632C12.1872 6.71327 11.7859 5.83373 10.9842 5.23773C10.1815 4.64091 9.11721 4.34332 7.79367 4.34332H3.66015V11.5044H7.70061V11.5035ZM0.0999146 1.16496H7.92327C9.09811 1.16496 10.1658 1.31953 11.1329 1.62621C12.0983 1.93206 12.9242 2.371 13.6113 2.93642C14.2985 3.50265 14.8277 4.19123 15.1941 5.00464C15.5622 5.81967 15.7458 6.73971 15.7458 7.77382V7.83417C15.7458 8.96499 15.5273 9.94949 15.0903 10.7951C14.6524 11.6375 14.0592 12.3459 13.3139 12.9229C12.5669 13.4982 11.6962 13.9297 10.7017 14.2174C9.7063 14.505 8.65193 14.6489 7.53609 14.6489H3.66015V22H0.100746V1.16578L0.0999146 1.16496Z" fill="currentColor" />
<path d="M131.103 7.8482C129.816 9.12862 127.722 9.12862 126.417 7.8482C125.131 6.56776 125.131 4.48134 126.417 3.18189C127.704 1.88244 129.798 1.90145 131.103 3.18189C132.407 4.46233 132.407 6.54873 131.103 7.8482ZM124.847 1.61627C122.682 3.77127 122.682 7.25385 124.847 9.39234L128.762 13.2874L132.677 9.39234C134.841 7.23814 134.841 3.75475 132.677 1.61627C130.513 -0.538745 127.01 -0.538745 124.846 1.61627" fill="currentColor" />
<path d="M112.688 10.829C113.306 10.829 113.877 10.7488 114.4 10.5917C114.924 10.4339 115.374 10.209 115.754 9.91722C116.134 9.62542 116.433 9.2708 116.646 8.85335C116.861 8.43592 116.967 7.95729 116.967 7.4233V7.37534C116.967 6.35116 116.595 5.55181 115.849 4.974C115.104 4.39868 114.059 4.11184 112.712 4.11184H107.576V10.8298H112.687L112.688 10.829ZM104.001 1.06903H112.989C114.283 1.06903 115.433 1.25419 116.438 1.61791C117.443 1.98824 118.274 2.49992 118.931 3.15295C119.45 3.67041 119.845 4.2755 120.125 4.9707C120.405 5.66341 120.545 6.42721 120.545 7.26046V7.32078C120.545 8.1937 120.405 8.97323 120.125 9.65767C119.845 10.3413 119.455 10.9364 118.946 11.4448C118.438 11.9507 117.838 12.3665 117.141 12.6947C116.443 13.022 115.688 13.2543 114.871 13.3923L121.302 21.9049H116.89L110.823 13.8114H107.578V21.9049H104.002V1.07068L104.001 1.06903Z" fill="currentColor" />
<path d="M28.9265 0.913681C23.0831 0.913681 18.3455 5.62627 18.3455 11.4408C18.3455 17.2552 23.0822 21.9678 28.9265 21.9678C34.7708 21.9678 39.5074 17.2552 39.5074 11.4408C39.5074 5.62627 34.7708 0.913681 28.9265 0.913681ZM28.9265 18.4183C25.0529 18.4183 21.9132 15.2945 21.9132 11.4408C21.9132 7.58702 25.0529 4.46322 28.9265 4.46322C32.8 4.46322 35.9399 7.58702 35.9399 11.4408C35.9399 15.2945 32.8 18.4183 28.9265 18.4183Z" fill="currentColor" />
</g>
<defs>
<clipPath id="clip0_2488_3430">
<rect width="134.2" height="22" fill="white" transform="translate(0.0999756)"/>
</clipPath>
</defs>
</svg>
