<svg width="600" height="85" viewBox="0 0 600 85" fill="none" xmlns="http://www.w3.org/2000/svg">
<path d="M13.6 23.5723C13.6 14.1833 8.9 6.49236 0 0H20.6C27.8 5.59342 32.3 14.0834 32.3 23.5723C32.3 33.0611 27.9 41.5511 20.6 47.1445C27.3 49.9413 31.1 56.7333 31.1 66.4219V85H12.5V66.4219C12.5 57.1328 8.10001 50.6404 0.100006 47.1445C8.90001 40.5523 13.6 32.8613 13.6 23.5723ZM54 23.5723C54 14.1833 49.3 6.49236 40.4 0H61C68.2 5.59342 72.7 14.0834 72.7 23.5723C72.7 33.0611 68.3 41.5511 61 47.1445C67.7 49.9413 71.5 56.7333 71.5 66.4219V85H52.9V66.4219C52.9 57.1328 48.5 50.6404 40.5 47.1445C49.3 40.5523 54 32.8613 54 23.5723ZM94.4 23.5723C94.4 14.1833 89.7 6.49236 80.8 0H101.4C108.6 5.59342 113.1 14.0834 113.1 23.5723C113.1 33.0611 108.7 41.5511 101.4 47.1445C108.1 49.9413 111.9 56.7333 111.9 66.4219V85H93.3V66.4219C93.3 57.1328 88.9 50.6404 80.9 47.1445C89.7 40.5523 94.4 32.8613 94.4 23.5723ZM169.9 69.5182H155.7V15.4818H190.4C207.1 15.4818 215.3 21.6745 215.3 31.7626C215.3 38.6545 211.3 43.8484 203.7 46.4454C211.5 47.6439 215 51.7391 215 59.0306V69.5182H200.8V59.6299C200.8 53.4371 197.7 50.9401 189.5 50.9401H169.9V69.5182ZM189.7 23.2726H169.9V43.0494H189.5C196.6 43.0494 201.1 39.1539 201.1 32.9612C201.1 26.8684 197 23.2726 189.7 23.2726ZM239.9 15.3819H225.8V69.4183H239.9V15.3819ZM283.3 51.839H266.1V69.4183H252V15.3819H283.7C300.4 15.3819 309.2 22.3737 309.2 33.4606C309.1 45.047 300.2 51.839 283.3 51.839ZM283 23.2726H266.1V43.9483H282.9C290.2 43.9483 294.7 40.2526 294.7 33.5605C294.6 26.9683 290.1 23.2726 283 23.2726ZM348.9 51.839H331.7V69.4183H317.5V15.3819H349.2C365.9 15.3819 374.7 22.3737 374.7 33.4606C374.7 45.047 365.7 51.839 348.9 51.839ZM348.6 23.2726H331.7V43.9483H348.5C355.8 43.9483 360.3 40.2526 360.3 33.5605C360.2 26.9683 355.7 23.2726 348.6 23.2726ZM397.2 15.3819V61.4277H432.5V69.4183H383.1V15.3819H397.2ZM455.5 15.3819H441.4V69.4183H455.5V15.3819ZM476.8 33.4606V69.4183H467.5V15.3819H478.1L516.6 51.3396V15.3819H525.9V69.4183H515.3L476.8 33.4606ZM572 21.7744C558.6 21.7744 549.8 30.2644 549.8 42.9495C549.8 55.4348 558.2 63.2256 571.2 63.2256H572.1C576.5 63.2256 581.5 62.3267 586.1 60.8284V46.2456H563.3V38.4548H600V63.8249C592.4 67.7203 580.9 70.8167 571.6 70.8167H570.4C549 70.8167 535.1 59.53 535.1 43.1492C535.1 26.9683 549.3 13.9835 571.2 13.9835H572.4C581.5 13.9835 591.9 16.8801 599.6 21.275L595.6 27.8672C588.7 24.0717 580.4 21.6745 573.1 21.6745H572V21.7744Z" fill="currentColor" />
</svg>
