<svg width="103" height="28" viewBox="0 0 103 28" fill="none" xmlns="http://www.w3.org/2000/svg">
<g clip-path="url(#clip0_2488_3423)">
<path d="M28.58 19.06C27.5347 19.0018 26.5186 18.6935 25.6172 18.161C24.7158 17.6285 23.9554 16.8874 23.4 16C24.07 10.66 26.02 9 28.6 9C31.18 9 33.14 11 33.14 14C33.14 17 31.14 19 28.6 19M28.6 5.66C26.7793 5.58622 24.9905 6.15471 23.5464 7.2661C22.1024 8.37749 21.0948 9.96106 20.7 11.74C19.844 9.94658 19.1964 8.06094 18.77 6.12H12.4V14.02C12.4 16.89 11.1 19.02 8.54999 19.02C5.99999 19.02 4.54999 16.9 4.54999 14.02V6.12H0.889986V14.02C0.806921 16.2092 1.56148 18.3477 2.99999 20C3.70212 20.7645 4.55983 21.3698 5.51542 21.7751C6.47101 22.1805 7.50232 22.3765 8.53999 22.35C12.95 22.35 16.04 18.96 16.04 14.11V8.77C16.7889 11.6435 18.027 14.3666 19.7 16.82L17.74 28H21.46L22.75 20.08C23.177 20.4477 23.6317 20.782 24.11 21.08C25.3527 21.8649 26.7812 22.3065 28.25 22.36H28.59C29.6826 22.3714 30.7663 22.1615 31.7757 21.7431C32.7852 21.3247 33.6995 20.7064 34.4637 19.9253C35.2279 19.1443 35.8262 18.2167 36.2226 17.1984C36.6189 16.1801 36.8051 15.0922 36.77 14C36.7955 12.9119 36.602 11.8297 36.201 10.8179C35.7999 9.806 35.1995 8.8851 34.4355 8.10988C33.6715 7.33467 32.7594 6.72097 31.7535 6.30526C30.7476 5.88955 29.6684 5.68032 28.58 5.69" fill="currentColor" />
<path d="M81.2 7.86V6.18H77.6V21.81H81.25V15.69C81.25 11.92 81.59 9.21 86.65 9.56V6C84.29 5.82 82.45 6.31 81.2 7.87" fill="currentColor" />
<path d="M55.91 6.17L53.27 17.11L50.45 6.17H45.81L42.99 17.11L40.35 6.17H36.66L40.71 21.82H45.09L48.13 10.71L51.14 21.82H55.52L59.8 6.17H55.91Z" fill="currentColor" />
<path d="M67.82 19.07C65.23 19.07 63.29 17.02 63.29 14.07C63.29 11.12 65.29 9.07 67.82 9.07C70.35 9.07 72.4 11 72.4 14C72.4 17 70.4 19 67.86 19M67.86 5.65C66.7657 5.63461 65.6796 5.84114 64.6674 6.25712C63.6551 6.67309 62.7376 7.28988 61.9703 8.07026C61.203 8.85064 60.6018 9.77841 60.203 10.7976C59.8042 11.8167 59.6161 12.9061 59.65 14C59.6116 15.0976 59.7946 16.1917 60.1882 17.2171C60.5817 18.2424 61.1777 19.178 61.9406 19.9681C62.7035 20.7582 63.6177 21.3865 64.6287 21.8156C65.6397 22.2448 66.7267 22.466 67.825 22.466C68.9233 22.466 70.0103 22.2448 71.0213 21.8156C72.0323 21.3865 72.9465 20.7582 73.7094 19.9681C74.4723 19.178 75.0683 18.2424 75.4618 17.2171C75.8554 16.1917 76.0384 15.0976 76 14C76.0269 12.9124 75.8346 11.8304 75.4347 10.8186C75.0348 9.80679 74.4354 8.88579 73.6721 8.11043C72.9089 7.33507 71.9975 6.7212 70.9921 6.30538C69.9867 5.88956 68.9079 5.68028 67.82 5.69" fill="currentColor" />
<path d="M91.87 14.13H92.71L97.8 21.82H101.91L96.06 13.29C97.467 12.7098 98.6693 11.7237 99.5136 10.4574C100.358 9.19104 100.806 7.70193 100.8 6.18H97.17C97.17 9.55 94.51 10.83 91.87 10.83V0H88.22V21.82H91.86L91.87 14.13Z" fill="currentColor" />
</g>
<defs>
<clipPath id="clip0_2488_3423">
<rect width="102" height="28" fill="white" transform="translate(0.399994)" />
</clipPath>
</defs>
</svg>
