<svg width="166" height="32" viewBox="0 0 166 32" fill="none" xmlns="http://www.w3.org/2000/svg">
<g opacity="0.5">
<path fill-rule="evenodd" clip-rule="evenodd" d="M48.7058 17.3198H50.2161C49.6268 20.0297 47.3244 21.8544 44.2485 21.8544C40.6379 21.8544 37.7283 19.1618 37.7283 15.602C37.7283 12.0414 40.6379 9.36664 44.2485 9.36664C47.3236 9.36664 49.626 11.1735 50.2161 13.8833H48.7058C48.1899 11.9173 46.5322 10.6779 44.2492 10.6779C41.4122 10.6779 39.2018 12.7852 39.2018 15.602C39.2018 18.418 41.4122 20.544 44.2485 20.544C46.5322 20.544 48.1907 19.2679 48.7058 17.3198ZM65.8258 15.6105C65.8258 19.0876 63.0395 21.8544 59.5819 21.8544C56.1243 21.8544 53.338 19.0876 53.338 15.6105C53.338 12.1335 56.1243 9.36664 59.5819 9.36664C63.0395 9.36664 65.8258 12.1335 65.8258 15.6105ZM64.4147 15.6105C64.4147 12.8788 62.2988 10.6794 59.5819 10.6794C56.8658 10.6794 54.7491 12.8788 54.7491 15.6105C54.7491 18.3423 56.8658 20.5417 59.5819 20.5417C62.298 20.5417 64.4147 18.3423 64.4147 15.6105ZM80.655 9.36664V21.8544H79.4999L71.8902 12.0109V21.8544H70.5087V9.36664H71.6287L79.2728 19.3389V9.36664H80.655ZM87.5702 10.7075V15.2983H93.9311V16.6384H87.5702V21.8544H86.1185V9.36664H94.7038V10.7075H87.5702ZM107.972 20.5136V21.8544H99.3867V9.36664H100.881V20.5136H107.972ZM121.24 16.3863C121.24 19.6527 119.063 21.8544 115.777 21.8544C112.491 21.8544 110.314 19.6535 110.314 16.3863V9.36664H111.796V16.3863C111.796 18.7863 113.373 20.519 115.777 20.519C118.161 20.519 119.757 18.7863 119.757 16.3863V9.36664H121.24V16.3863ZM128.129 10.7075V14.9862H134.568V16.327H128.129V20.5143H135.289V21.8544H126.704V9.36664H135.289V10.7075H128.129ZM149.338 9.36664V21.8544H148.183L140.573 12.0109V21.8544H139.192V9.36664H140.312L147.956 19.3389V9.36664H149.338ZM164.167 10.7075H159.776V21.8544H158.395V10.7075H154.021V9.36664H164.167V10.7075ZM20.8502 16.3715C21.5332 16.3348 22.2161 16.313 22.899 16.263V15.7385C22.2161 15.6886 21.5332 15.6667 20.8502 15.6293L18.8015 15.5661C17.5995 15.5294 16.3976 15.5192 15.194 15.5114C15.1917 14.3095 15.1862 13.106 15.1542 11.9032L15.0965 9.85444C15.0614 9.17152 15.0419 8.48859 14.9935 7.80566H14.4143C14.366 8.48859 14.3464 9.17152 14.3113 9.85444L14.2543 11.9032C14.2387 12.4675 14.2317 13.0326 14.2262 13.5969C14.0038 13.0779 13.7814 12.5588 13.5511 12.0429L12.7144 10.1721C12.4202 9.55552 12.1408 8.93113 11.8348 8.31844L11.301 8.54088C11.5172 9.18947 11.7607 9.82869 11.9894 10.4726L12.7207 12.3879C12.922 12.9147 13.1312 13.4384 13.342 13.9629C12.9394 13.567 12.5335 13.1744 12.1244 12.7852L10.6352 11.3772C10.1279 10.919 9.63074 10.45 9.11327 10.0012L8.70508 10.4102C9.15308 10.9276 9.62215 11.4248 10.0803 11.9321L11.4883 13.4213C11.877 13.831 12.2711 14.2353 12.666 14.6388C12.1416 14.4281 11.6179 14.2189 11.0902 14.0176L9.17571 13.2862C8.53181 13.0576 7.89259 12.8141 7.24323 12.5971L7.02157 13.1317C7.63425 13.4377 8.25786 13.7171 8.87523 14.0113L10.7461 14.848C11.2612 15.0783 11.7802 15.3007 12.2992 15.5223C11.7349 15.5286 11.1706 15.5356 10.6056 15.5504L8.55757 15.6082C7.87464 15.6433 7.19172 15.6628 6.50879 15.7112V16.2903C7.19172 16.3387 7.87464 16.3583 8.55757 16.3934L10.6063 16.4503C11.8099 16.4831 13.0126 16.4886 14.2153 16.4909C14.2231 17.6929 14.2325 18.8956 14.2692 20.0983L14.3332 22.1471C14.3699 22.8301 14.3917 23.513 14.4417 24.1959H14.9661C15.0161 23.513 15.0379 22.8301 15.0754 22.1471L15.1386 20.0983C15.1566 19.52 15.1659 18.9417 15.1745 18.3633C15.4024 18.8948 15.6327 19.4256 15.8707 19.9532L16.7137 21.8209C17.0087 22.4375 17.2897 23.0603 17.5979 23.673L18.0818 23.4708C17.8672 22.8215 17.6268 22.1823 17.3989 21.5368L16.6731 19.6207C16.4686 19.079 16.2563 18.5413 16.0424 18.0035C16.4569 18.407 16.8721 18.809 17.2943 19.2055L18.7874 20.6096C19.2963 21.0662 19.7942 21.5337 20.3133 21.9817L20.6848 21.6102C20.2368 21.0919 19.7693 20.5932 19.3127 20.0843L17.9086 18.5904C17.5117 18.1701 17.1113 17.753 16.7074 17.3393C17.2444 17.554 17.7821 17.7655 18.323 17.9707L20.2407 18.6958C20.8854 18.9237 21.5246 19.1641 22.1747 19.3795L22.3761 18.8941C21.7634 18.5873 21.1414 18.3048 20.524 18.0098L18.6563 17.1668C18.1287 16.9296 17.5979 16.7001 17.0672 16.4706C17.6448 16.4628 18.2231 16.4535 18.8015 16.4355L20.8502 16.3715Z" fill="#D2D0F1"/>
<path fill-rule="evenodd" clip-rule="evenodd" d="M15.0954 28.8779C7.77914 28.8779 1.82715 22.9259 1.82715 15.6096C1.82715 8.29331 7.77914 2.34131 15.0954 2.34131C22.4117 2.34131 28.3637 8.29331 28.3637 15.6096C28.3637 22.9259 22.4117 28.8779 15.0954 28.8779ZM15.0954 3.58228C8.46363 3.58228 3.06812 8.97702 3.06812 15.6096C3.06812 22.2422 8.46363 27.6369 15.0954 27.6369C21.7272 27.6369 27.1227 22.2414 27.1227 15.6096C27.1227 8.9778 21.7272 3.58228 15.0954 3.58228Z" fill="#D2D0F1"/>
</g>
</svg>
