<svg width="154" height="28" viewBox="0 0 154 28" fill="none" xmlns="http://www.w3.org/2000/svg">
<path opacity="0.5" fill-rule="evenodd" clip-rule="evenodd" d="M95.1232 0.0175022H92.0116V0.0141351C91.9787 0.20039 91.9422 0.370767 91.908 0.530467L91.9079 0.530597C91.8376 0.858643 91.777 1.14163 91.777 1.42462C91.767 9.83708 91.767 18.2495 91.7803 26.662C91.7803 26.9091 91.8503 27.1564 91.9288 27.4333V27.4336L91.929 27.4337V27.4338V27.434L91.9291 27.4342V27.4345C91.9671 27.5684 92.007 27.7092 92.0419 27.8604C92.2897 27.8694 92.5357 27.8802 92.7805 27.8909C94.1818 27.9525 95.5448 28.0124 96.9976 27.7258C97.0074 27.4864 97.0192 27.2602 97.0305 27.043V27.0421L97.0306 27.0412V27.0408C97.0536 26.5989 97.0746 26.1937 97.0746 25.7901C97.078 22.7142 97.078 19.6392 97.078 16.5642V16.5361V16.5081C97.078 13.433 97.0781 10.3579 97.0814 7.28203C97.0814 6.88451 97.1097 6.4885 97.1405 6.05798C97.1559 5.8432 97.172 5.61984 97.1853 5.38343C99.2239 5.31947 101.088 5.2656 103.076 5.42046C103.085 5.66292 103.094 5.88855 103.103 6.10262L103.103 6.10692L103.103 6.10988L103.104 6.11186V6.1132C103.123 6.57834 103.14 6.98909 103.14 7.39986C103.141 9.26853 103.141 11.1369 103.141 13.005C103.142 17.3629 103.142 21.7195 103.154 26.0763C103.154 26.1957 103.146 26.3176 103.139 26.4413C103.108 26.9273 103.075 27.4393 103.546 27.9278C103.754 27.9278 103.969 27.931 104.19 27.9344C104.709 27.9423 105.256 27.9506 105.799 27.9176C106.018 27.905 106.241 27.9185 106.466 27.9322C107.018 27.9658 107.581 28 108.129 27.6483V1.64343C107.402 0.414729 106.369 -0.0195283 105.011 0.000669576C102.657 0.0367376 100.303 0.0298678 97.9483 0.0229979C97.0066 0.0202501 96.0648 0.0175022 95.1232 0.0175022ZM51.7597 11.2812C53.2754 11.5357 54.8041 11.4865 56.3099 11.438C58.1717 11.3781 59.9989 11.3193 61.7246 11.8367C62.5192 12.5268 62.8881 13.1866 62.8881 14.0315V25.9214L62.5139 26.4919L62.5055 26.5048L62.5032 26.5082L62.4992 26.5143C62.2914 26.8311 62.0791 27.1546 61.8286 27.5373C61.6082 27.5736 61.3785 27.6218 61.1424 27.6714L61.1419 27.6716H61.1417H61.1416C60.6127 27.7827 60.0513 27.9006 59.4881 27.9075C57.8102 27.9298 56.1323 27.9276 54.4544 27.9255C52.8364 27.9235 51.2184 27.9213 49.6004 27.9411C48.3161 27.9547 47.317 27.5407 46.5458 26.3557V20.0438C47.9936 19.7778 49.3658 19.8564 50.8004 19.9386L50.8011 19.9387C50.9644 19.948 51.1284 19.9575 51.2936 19.9663C51.3978 20.6911 51.4905 21.3309 51.5906 22.0219L51.5918 22.0303L51.6893 22.7032C53.1533 22.9607 54.5981 22.9061 56.0085 22.853H56.0086H56.0087C56.3684 22.8393 56.7259 22.8258 57.0808 22.8177C57.6675 21.6293 57.758 18.529 57.2618 16.6505C57.1185 16.6361 56.9688 16.6168 56.8148 16.597C56.4679 16.5523 56.0987 16.5047 55.7296 16.5025C54.7082 16.493 53.6868 16.4946 52.6659 16.4962H52.6657H52.6655H52.6653H52.6651H52.6649H52.6648H52.6647H52.6645H52.6643H52.6641C51.507 16.498 50.3503 16.4999 49.1946 16.4856C47.1829 16.462 46.472 15.7552 46.462 13.742C46.4498 10.7981 46.4518 7.85409 46.4538 4.9689V4.96659V4.96429V4.962V4.95972V4.95746C46.4546 3.89088 46.4552 2.83236 46.4552 1.78484C47.1493 0.434945 48.2223 0.0377174 49.4528 0.0276183C52.9164 0.00405402 56.38 -0.00604538 59.8436 0.0377168C60.3321 0.0447564 60.819 0.174467 61.2655 0.293457L61.2656 0.293467C61.4596 0.345179 61.6461 0.394866 61.8218 0.431578C63.049 2.05587 62.9641 3.76081 62.881 5.43044V5.43052C62.8429 6.1969 62.8052 6.95583 62.8948 7.69612C61.7011 8.14383 59.5787 8.20107 57.7346 7.8274C57.6441 7.13058 57.5469 6.37652 57.453 5.64601C56.2861 5.26226 53.8687 5.19157 51.8166 5.47097C51.4109 6.59532 51.3573 9.40284 51.7529 11.2779L51.7597 11.2812ZM39.4326 1.01499L39.4328 1.01541C39.6399 1.31507 39.8389 1.6033 40.0445 1.89928V7.73986C38.8509 8.15055 36.8927 8.19095 35.1827 7.83412L35.1135 7.25509L35.1128 7.2487C35.0544 6.75994 34.9954 6.26511 34.9379 5.78739C33.8382 5.25551 31.3033 5.14105 28.8154 5.51808C28.6277 7.34936 28.6848 9.21095 28.7988 11.2442C29.0134 11.27 29.2154 11.2999 29.409 11.3286L29.4091 11.3287H29.4092C29.796 11.386 30.149 11.4383 30.5021 11.4428C31.8937 11.4601 33.2853 11.4575 34.677 11.4548H34.6773C35.1832 11.4539 35.6893 11.4529 36.1953 11.4529C36.3053 11.4529 36.4152 11.4511 36.5251 11.4492C36.8071 11.4445 37.088 11.4397 37.3656 11.4664C39.2499 11.6414 40.0746 12.4965 40.0881 14.3884C40.1116 17.8624 40.1082 21.3398 40.0914 24.8139C40.0814 26.9583 39.2028 27.8604 37.0336 27.9209C35.8716 27.9537 34.7079 27.9458 33.5448 27.9381H33.5446H33.5442H33.5438H33.5435H33.5431C33.0322 27.9346 32.5213 27.9311 32.0109 27.9311C31.5584 27.9311 31.1059 27.9347 30.6534 27.9383H30.6527H30.6526H30.6525H30.6523H30.6522C29.5966 27.9469 28.5413 27.9553 27.4877 27.9176C26.8424 27.8943 26.2003 27.8017 25.6192 27.7177C25.3609 27.6805 25.1148 27.6449 24.8858 27.618C23.7694 26.5374 23.3033 25.4468 23.3837 24.1305C23.411 23.6822 23.399 23.2309 23.3869 22.7744C23.3631 21.8839 23.339 20.974 23.605 20.0303C24.6178 19.8375 25.6265 19.8594 26.6682 19.882C27.2817 19.8952 27.9067 19.9088 28.5506 19.8788L28.5988 20.3357C28.6705 21.0151 28.738 21.6535 28.8121 22.3733C29.75 23.0317 30.8007 22.9611 31.8518 22.8906C32.3376 22.8581 32.8236 22.8254 33.2983 22.8648C33.9892 22.9226 34.0612 22.8622 34.7959 22.2465C34.8743 22.1808 34.9603 22.1088 35.0554 22.0299V17.6031C34.5725 16.5159 33.8516 16.4923 33.1005 16.4956C32.0125 16.5007 30.9236 16.4999 29.8348 16.499C28.746 16.4982 27.657 16.4974 26.569 16.5025C25.7744 16.5058 25.0032 16.4654 24.2421 15.8123C23.6352 14.9977 23.3703 13.9407 23.377 12.786V12.7854C23.3871 9.75923 23.3971 6.73311 23.3703 3.70699C23.3635 2.89235 23.5647 2.17195 23.9403 1.46166C24.4365 0.532549 25.1943 0.0343325 26.227 0.0309661C29.9119 0.0175007 33.5968 0.0107679 37.2817 0.0477974C37.6883 0.0524115 38.0935 0.175603 38.4896 0.296019C38.6714 0.351311 38.8513 0.406018 39.0286 0.448391L39.0386 0.445024C39.1751 0.642302 39.3054 0.830805 39.4326 1.01499ZM85.5842 27.6618C84.0318 28.0018 70.7843 28.0186 69.1783 27.7056C69.1595 27.5904 69.1339 27.4702 69.1076 27.3463C69.0493 27.0716 68.9871 26.7793 68.9871 26.487C68.9738 18.1284 68.9738 9.76977 68.9871 1.41119C68.9871 1.16695 69.0322 0.924132 69.0858 0.635142V0.63506V0.634904L69.0859 0.634656V0.634272C69.115 0.477379 69.1466 0.306873 69.1748 0.115146C70.4273 -0.0199017 71.6635 -0.00356188 72.8916 0.0126685C73.439 0.0199034 73.9848 0.0271166 74.5295 0.0208891C76.3736 0.000691182 78.2179 0.0107902 80.062 0.0208891C81.3097 0.0256257 82.5576 0.0353609 83.8452 0.0454057C84.3877 0.0496388 84.9374 0.0539268 85.497 0.057919C85.7777 1.63133 85.7128 3.06333 85.643 4.60096L85.6429 4.60403L85.6428 4.60766C85.6342 4.79496 85.6257 4.98384 85.6177 5.17474C85.3973 5.19538 85.1901 5.21993 84.9915 5.24346C84.607 5.289 84.2548 5.33074 83.9011 5.33296C82.5295 5.34013 81.1588 5.33965 79.7881 5.33918C78.5888 5.33875 77.3894 5.33834 76.1892 5.34305C75.8163 5.34305 75.4435 5.36499 75.0248 5.38962V5.38963C74.8298 5.4011 74.6249 5.41315 74.4056 5.42384C74.221 7.39987 74.2278 9.26146 74.3921 11.1331C75.4045 11.5497 76.3768 11.5067 77.323 11.4649C77.7148 11.4476 78.1021 11.4304 78.486 11.4462C79.4156 11.4863 80.3453 11.4768 81.2577 11.4676H81.2581H81.2582C81.6487 11.4636 82.0362 11.4597 82.4191 11.4597C82.7778 12.9207 82.8046 14.6475 82.5129 16.3645C82.3909 16.3778 82.2663 16.3953 82.1394 16.4128H82.1392C81.8545 16.4524 81.5591 16.4934 81.2622 16.4956C80.3799 16.5046 79.4976 16.5041 78.6152 16.5037H78.6148C77.8208 16.5031 77.0268 16.5027 76.2328 16.5092C75.8542 16.5116 75.474 16.5453 75.1185 16.5769C74.9674 16.5904 74.8206 16.6035 74.6805 16.6136C74.1976 17.9668 74.1473 20.9695 74.5731 22.7132C74.7318 22.7296 74.8963 22.751 75.065 22.7728C75.4524 22.8229 75.8619 22.8759 76.2731 22.8783C77.5851 22.8887 78.8973 22.8883 80.2093 22.8879C81.412 22.8874 82.6146 22.887 83.8172 22.895C84.1782 22.895 84.5378 22.9282 84.929 22.9642C85.1227 22.9822 85.3241 23.0006 85.5373 23.0163C85.7821 24.6455 85.7284 26.1234 85.5942 27.672L85.5842 27.6618ZM153.361 0.115152H137.474L137.485 0.125252C137.466 0.248 137.446 0.360194 137.428 0.465498V0.465727V0.465885C137.392 0.66365 137.36 0.837122 137.36 1.0106C137.35 9.64522 137.35 18.2832 137.36 26.9178C137.36 27.1329 137.425 27.3482 137.488 27.5542C137.514 27.6448 137.541 27.7337 137.561 27.82C140.677 28.1398 152.526 28.0051 153.759 27.6147C153.742 27.1335 153.757 26.648 153.771 26.1551C153.803 25.1104 153.835 24.032 153.569 22.8883C153.026 22.8883 152.488 22.8898 151.954 22.8913H151.953C150.682 22.8948 149.431 22.8982 148.18 22.8816C147.637 22.8744 147.093 22.8818 146.544 22.8893C145.308 22.906 144.05 22.9231 142.728 22.7739C142.72 22.3617 142.707 21.9547 142.694 21.551V21.5494C142.64 19.8893 142.588 18.2845 142.866 16.6034C143.092 16.5903 143.303 16.5758 143.503 16.562C143.919 16.5334 144.287 16.5081 144.656 16.5058C145.368 16.4999 146.081 16.5011 146.793 16.5023C147.701 16.5039 148.608 16.5055 149.515 16.4923C149.833 16.4877 150.152 16.429 150.496 16.3654C150.66 16.3352 150.829 16.304 151.006 16.2769C151.013 15.9 151.029 15.5319 151.044 15.1694V15.1689C151.096 13.9385 151.145 12.7713 150.849 11.5337C150.638 11.5239 150.438 11.5122 150.245 11.5009C149.848 11.4777 149.481 11.4563 149.112 11.4563C148.327 11.4502 147.539 11.451 146.752 11.4519H146.751C145.807 11.4529 144.862 11.4539 143.919 11.4428C143.663 11.4405 143.407 11.3848 143.164 11.3318C143.056 11.3083 142.951 11.2854 142.848 11.2678C142.554 9.46681 142.598 6.77711 142.95 5.41039C143.112 5.40273 143.28 5.39223 143.452 5.38155V5.38153C143.807 5.35934 144.175 5.33633 144.543 5.33633C145.69 5.33162 146.836 5.33203 147.983 5.33245C149.295 5.33293 150.605 5.33341 151.916 5.32622C152.296 5.32386 152.676 5.28812 153.036 5.25424C153.187 5.24001 153.335 5.2261 153.478 5.21514C153.934 3.47812 153.877 1.3001 153.361 0.115152ZM17.0567 5.29588L17.0487 5.29593C17.432 3.38366 17.3845 1.41908 16.9661 0.189158C16.8819 0.174242 16.7946 0.154919 16.7048 0.135094C16.491 0.08781 16.2642 0.0376736 16.0374 0.0376736C11.4036 0.0242082 6.76646 0.020842 2.1327 0.0376736C1.88455 0.0376736 1.63794 0.109065 1.38133 0.183352H1.38133C1.26001 0.218472 1.13647 0.254239 1.00946 0.283415C0.992412 0.434274 0.972989 0.575952 0.954427 0.711366C0.914584 1.00201 0.878697 1.2638 0.878697 1.52559C0.871991 9.93805 0.871991 18.3471 0.88205 26.7563C0.88205 27.0083 0.943306 27.2604 1.00211 27.5024C1.02811 27.6093 1.05364 27.7144 1.07317 27.8167C4.21152 28.1431 16.0441 28.0085 17.2913 27.6112C17.2716 27.1193 17.2868 26.6226 17.3021 26.1182V26.1181C17.3337 25.0831 17.3662 24.0154 17.1003 22.8883H15.3969C14.7693 22.8883 14.1415 22.889 13.5135 22.8895H13.5132C11.6286 22.8914 9.74315 22.8934 7.85952 22.8782C7.46207 22.8736 7.06306 22.8206 6.636 22.7638H6.63596H6.63586C6.4361 22.7373 6.23018 22.7099 6.0154 22.6863V17.3642C6.3507 16.6236 6.96765 16.4923 7.68518 16.499C9.52929 16.5125 11.3701 16.5125 13.2142 16.4956C13.4938 16.4935 13.772 16.452 14.083 16.4057C14.2456 16.3816 14.417 16.356 14.6024 16.3341C14.574 15.7781 14.5885 15.2334 14.603 14.691C14.6314 13.6278 14.6596 12.5731 14.3642 11.4563H12.6073C12.1606 11.4563 11.7141 11.4572 11.2678 11.4582L11.2663 11.4582C10.038 11.4608 8.81053 11.4634 7.58123 11.4462C7.2603 11.4416 6.94086 11.3919 6.58371 11.3363H6.5837C6.40727 11.3088 6.22166 11.2799 6.02211 11.2543C5.85447 9.24458 5.83435 7.38637 6.03217 5.36994L17.0487 5.29593L17.0465 5.30597L17.0567 5.29588ZM126.094 7.97884H131.167L131.164 7.97547C131.177 7.71747 131.191 7.46185 131.205 7.2085C131.318 5.15136 131.423 3.24465 130.805 1.43133C129.997 0.273317 128.891 0.017477 127.667 0.017477C126.722 0.018459 125.778 0.0174358 124.833 0.0164129C122.54 0.013929 120.248 0.0114457 117.953 0.0376741C117.414 0.0448656 116.874 0.15277 116.415 0.244695C116.229 0.281861 116.056 0.316415 115.901 0.340644C114.942 1.33034 114.53 2.22915 114.537 3.39054C114.57 10.5642 114.56 17.7378 114.544 24.9115C114.54 25.9281 114.792 26.7865 115.811 27.5978C115.988 27.6239 116.184 27.6615 116.394 27.7019C116.89 27.7971 117.463 27.9071 118.037 27.9142C119.657 27.9344 121.275 27.9319 122.894 27.9294C124.513 27.9268 126.131 27.9243 127.751 27.9445C129.018 27.9614 130.054 27.618 130.799 26.5206C131.358 24.8038 131.449 21.7135 130.929 19.973C130.738 19.9616 130.546 19.949 130.354 19.9363C128.959 19.8446 127.533 19.7507 126.101 20.0909C126.043 20.5309 125.99 20.9386 125.937 21.3407C125.874 21.8183 125.813 22.2877 125.746 22.7941C123.942 22.9354 122.279 22.9354 120.622 22.7941C120.363 22.7725 120.122 22.5495 119.917 22.3592C119.833 22.2812 119.755 22.2088 119.684 22.1578C119.415 18.7848 119.523 6.81072 119.848 5.41707C121.789 5.28577 123.761 5.27568 125.816 5.4339C125.917 6.36301 126.004 7.16756 126.094 7.97884Z" fill="#D2D0F1"/>
</svg>
