<svg width="264" height="48" viewBox="0 0 264 48" fill="none" xmlns="http://www.w3.org/2000/svg">
<path opacity="0.5" fill-rule="evenodd" clip-rule="evenodd" d="M162.497 0.0300038H157.163V0.0242317C157.106 0.343526 157.043 0.635601 156.985 0.909373L156.985 0.909595C156.864 1.47196 156.76 1.95709 156.76 2.44221C156.743 16.8636 156.743 31.2849 156.766 45.7064C156.766 46.1299 156.886 46.5538 157.021 47.0285V47.029L157.021 47.0292V47.0294V47.0297L157.021 47.0301V47.0306C157.086 47.26 157.155 47.5014 157.214 47.7607C157.639 47.7761 158.061 47.7947 158.481 47.813C160.883 47.9186 163.219 48.0212 165.71 47.5299C165.727 47.1196 165.747 46.7318 165.766 46.3594V46.3578L165.767 46.3564V46.3557C165.806 45.598 165.842 44.9035 165.842 44.2116C165.848 38.9386 165.848 33.6672 165.848 28.3957V28.3475V28.2996C165.848 23.0279 165.848 17.7565 165.854 12.4835C165.854 11.802 165.902 11.1231 165.955 10.3851C165.981 10.0169 166.009 9.63402 166.032 9.22874C169.526 9.11908 172.722 9.02675 176.131 9.29221C176.145 9.70786 176.161 10.0947 176.177 10.4616L176.177 10.469L176.177 10.4741L176.177 10.4775V10.4798C176.211 11.2772 176.24 11.9813 176.24 12.6855C176.242 15.8889 176.242 19.0918 176.242 22.2943C176.242 29.7649 176.243 37.2335 176.263 44.7022C176.264 44.9069 176.251 45.1159 176.237 45.328C176.185 46.1611 176.129 47.0388 176.936 47.8761C177.292 47.8761 177.662 47.8817 178.04 47.8876C178.929 47.9012 179.866 47.9154 180.798 47.8587C181.174 47.8371 181.556 47.8603 181.941 47.8837C182.888 47.9413 183.853 48.0001 184.793 47.397V2.81731C183.545 0.710964 181.775 -0.0334772 179.447 0.00114785C175.411 0.0629787 171.376 0.051202 167.34 0.0394251C165.725 0.0347144 164.111 0.0300038 162.497 0.0300038ZM88.1592 19.3393C90.7576 19.7754 93.3782 19.6911 95.9596 19.608C99.1513 19.5053 102.284 19.4046 105.242 20.2915C106.604 21.4745 107.237 22.6056 107.237 24.0541V44.4367L106.595 45.4147L106.581 45.4367L106.577 45.4427L106.57 45.453C106.214 45.9962 105.85 46.5508 105.42 47.2068C105.042 47.269 104.649 47.3516 104.244 47.4367L104.243 47.437H104.243H104.243C103.336 47.6274 102.373 47.8296 101.408 47.8415C98.5315 47.8796 95.6552 47.8759 92.7787 47.8723C90.005 47.8688 87.2313 47.8651 84.4576 47.8991C82.256 47.9223 80.5433 47.2125 79.2211 45.1811V34.3608C81.7032 33.9049 84.0554 34.0396 86.5148 34.1805L86.516 34.1807C86.7959 34.1965 87.0771 34.2128 87.3602 34.228C87.539 35.4705 87.6978 36.5673 87.8694 37.7518L87.8715 37.7663L88.0386 38.9198C90.5483 39.3613 93.0251 39.2676 95.4429 39.1765H95.4431H95.4434C96.06 39.1531 96.6727 39.13 97.2811 39.116C98.287 37.0788 98.4422 31.764 97.5915 28.5437C97.3458 28.5189 97.0891 28.4859 96.8252 28.4519C96.2305 28.3753 95.5976 28.2938 94.9648 28.2899C93.2138 28.2736 91.4629 28.2764 89.7127 28.2792H89.7125H89.712H89.7118H89.7113H89.7111H89.7109H89.7106H89.7104H89.71H89.7097C87.7261 28.2824 85.7432 28.2856 83.7619 28.261C80.3134 28.2206 79.0947 27.0089 79.0776 23.5577C79.0566 18.511 79.06 13.4642 79.0634 8.51812V8.51415V8.5102V8.50628V8.50238V8.4985C79.0648 6.67008 79.0659 4.85547 79.0659 3.05972C80.2558 0.745619 82.0951 0.0646583 84.2046 0.0473456C90.1421 0.00694974 96.0799 -0.0103635 102.017 0.0646574C102.855 0.0767253 103.689 0.299086 104.455 0.503068L104.455 0.503087C104.788 0.591735 105.107 0.676914 105.409 0.739848C107.512 3.52436 107.367 6.44711 107.224 9.30933V9.30947C107.159 10.6233 107.094 11.9243 107.248 13.1933C105.202 13.9609 101.563 14.059 98.4019 13.4184C98.2467 12.2238 98.0801 10.9312 97.9192 9.67888C95.9187 9.02101 91.7747 8.89983 88.2568 9.37881C87.5613 11.3063 87.4695 16.1191 88.1476 19.3335L88.1592 19.3393ZM67.0271 1.73998L67.0275 1.74071C67.3825 2.25441 67.7237 2.74852 68.0761 3.25591V13.2683C66.0299 13.9724 62.673 14.0416 59.7416 13.4299L59.623 12.4373L59.6218 12.4263C59.5217 11.5885 59.4205 10.7402 59.322 9.92124C57.4367 9.00944 53.0912 8.81323 48.8263 9.45956C48.5045 12.5989 48.6023 15.7902 48.7977 19.2758C49.1657 19.32 49.5119 19.3713 49.8438 19.4205L49.844 19.4206H49.8442C50.5073 19.5189 51.1125 19.6086 51.7177 19.6162C54.1033 19.6459 56.4889 19.6414 58.8747 19.6369H58.8751C59.7425 19.6352 60.6101 19.6336 61.4774 19.6336C61.666 19.6336 61.8545 19.6304 62.0428 19.6272C62.5262 19.6191 63.0078 19.611 63.4836 19.6567C66.714 19.9567 68.1278 21.4225 68.1508 24.6658C68.1911 30.6213 68.1854 36.5825 68.1566 42.5382C68.1394 46.2142 66.6333 47.7607 62.9145 47.8644C60.9225 47.9207 58.9277 47.9071 56.9338 47.8938H56.9334H56.9327H56.932H56.9316H56.9309C56.0551 47.8879 55.1793 47.8819 54.3041 47.8819C53.5285 47.8819 52.7528 47.8881 51.9771 47.8943H51.9759H51.9757H51.9755H51.9752H51.975C50.1653 47.909 48.3564 47.9234 46.5501 47.8587C45.444 47.8188 44.3433 47.66 43.347 47.5161C42.9043 47.4523 42.4824 47.3913 42.0898 47.3452C40.1759 45.4927 39.3769 43.6231 39.5147 41.3665C39.5615 40.5981 39.541 39.8243 39.5202 39.0419C39.4795 37.5152 39.4381 35.9554 39.8941 34.3376C41.6304 34.0072 43.3596 34.0446 45.1452 34.0834C46.197 34.1061 47.2685 34.1293 48.3724 34.0779L48.4549 34.8613C48.5778 36.0258 48.6935 37.1203 48.8206 38.3542C50.4284 39.4829 52.2296 39.362 54.0315 39.241C54.8643 39.1853 55.6974 39.1293 56.5113 39.1967C57.6956 39.2959 57.819 39.1924 59.0786 38.1369C59.2129 38.0242 59.3604 37.9007 59.5233 37.7656V30.1768C58.6955 28.3129 57.4597 28.2725 56.1721 28.2782C54.3069 28.287 52.4403 28.2856 50.5738 28.284C48.7072 28.2826 46.8404 28.2812 44.9752 28.2899C43.613 28.2957 42.2911 28.2264 40.9863 27.1068C39.946 25.7103 39.4918 23.8983 39.5033 21.9188V21.9178C39.5206 16.7301 39.5378 11.5425 39.4918 6.35484C39.4802 4.95831 39.8251 3.72335 40.4689 2.5057C41.3195 0.912941 42.6186 0.0588557 44.389 0.0530847C50.7059 0.0300013 57.023 0.0184592 63.3399 0.0819384C64.0369 0.0898482 64.7315 0.301034 65.4105 0.50746C65.7223 0.602247 66.0306 0.69603 66.3346 0.768671L66.3517 0.762898C66.5857 1.10109 66.809 1.42424 67.0271 1.73998ZM146.144 47.4202C143.483 48.003 120.773 48.032 118.02 47.4952C117.988 47.2979 117.944 47.0918 117.899 46.8794C117.798 46.4085 117.692 45.9074 117.692 45.4062C117.669 31.0772 117.669 16.7482 117.692 2.41917C117.692 2.00049 117.769 1.58423 117.861 1.08881V1.08867V1.08841L117.861 1.08798V1.08732C117.911 0.818363 117.965 0.526067 118.014 0.197393C120.161 -0.0341171 122.28 -0.00610609 124.385 0.0217174C125.324 0.0341201 126.259 0.0464856 127.193 0.0358099C130.355 0.00118488 133.516 0.0184974 136.677 0.0358099C138.816 0.0439299 140.956 0.0606186 143.163 0.0778384C144.093 0.0850951 145.035 0.092446 145.995 0.0992897C146.476 2.79657 146.364 5.25143 146.245 7.88735L146.245 7.89263L146.244 7.89885C146.23 8.21993 146.215 8.54373 146.202 8.87099C145.824 8.90637 145.469 8.94845 145.128 8.98879C144.469 9.06686 143.865 9.1384 143.259 9.14221C140.907 9.15451 138.558 9.15369 136.208 9.15288C134.152 9.15215 132.096 9.15144 130.038 9.15951C129.399 9.15951 128.76 9.19712 128.042 9.23934V9.23937C127.708 9.25903 127.357 9.27968 126.981 9.29802C126.664 12.6855 126.676 15.8768 126.958 19.0854C128.693 19.7996 130.36 19.7258 131.982 19.6541C132.654 19.6244 133.318 19.595 133.976 19.6221C135.569 19.6908 137.163 19.6746 138.727 19.6587H138.728H138.728C139.398 19.6519 140.062 19.6452 140.718 19.6452C141.333 22.1497 141.379 25.1101 140.879 28.0534C140.67 28.0763 140.456 28.1061 140.239 28.1362H140.238C139.75 28.2041 139.244 28.2743 138.735 28.2782C137.222 28.2936 135.71 28.2927 134.197 28.292H134.196C132.835 28.2911 131.474 28.2904 130.113 28.3014C129.464 28.3055 128.812 28.3634 128.203 28.4175C127.944 28.4407 127.692 28.4632 127.452 28.4804C126.624 30.8003 126.538 35.9478 127.268 38.937C127.54 38.965 127.822 39.0017 128.111 39.0391C128.775 39.1249 129.477 39.2158 130.182 39.2199C132.431 39.2378 134.681 39.2371 136.93 39.2364C138.992 39.2355 141.053 39.2348 143.115 39.2486C143.734 39.2486 144.35 39.3055 145.021 39.3672C145.353 39.398 145.698 39.4296 146.064 39.4565C146.483 42.2495 146.391 44.783 146.161 47.4376L146.144 47.4202ZM262.333 0.197403H235.099L235.117 0.214717C235.085 0.425143 235.05 0.617476 235.019 0.797996V0.798389V0.798659C234.957 1.13769 234.902 1.43507 234.902 1.73245C234.886 16.5347 234.886 31.3427 234.902 46.1449C234.902 46.5136 235.014 46.8826 235.121 47.2357C235.167 47.3911 235.213 47.5434 235.247 47.6914C240.588 48.2396 260.902 48.0088 263.016 47.3394C262.986 46.5145 263.011 45.6823 263.036 44.8374C263.091 43.0464 263.146 41.1977 262.689 39.2371C261.759 39.2371 260.835 39.2397 259.921 39.2422H259.919C257.741 39.2481 255.595 39.2541 253.451 39.2257C252.521 39.2133 251.588 39.2259 250.647 39.2387C248.528 39.2674 246.371 39.2968 244.106 39.0409C244.092 38.3344 244.069 37.6366 244.046 36.9446V36.9418C243.955 34.096 243.866 31.3448 244.341 28.463C244.73 28.4405 245.091 28.4157 245.434 28.3921C246.147 28.3429 246.777 28.2996 247.41 28.2957C248.631 28.2856 249.854 28.2876 251.074 28.2897C252.631 28.2925 254.185 28.2952 255.739 28.2725C256.285 28.2647 256.831 28.164 257.421 28.055C257.702 28.0031 257.992 27.9496 258.296 27.9033C258.308 27.2571 258.335 26.6261 258.36 26.0047V26.0038C258.449 23.8946 258.534 21.8936 258.027 19.7721C257.666 19.7552 257.323 19.7352 256.991 19.7159C256.31 19.6761 255.682 19.6394 255.049 19.6394C253.702 19.6289 252.352 19.6303 251.003 19.6318H251.001C249.383 19.6335 247.762 19.6352 246.147 19.6163C245.708 19.6123 245.269 19.5168 244.853 19.4259C244.668 19.3857 244.487 19.3463 244.311 19.3162C243.806 16.2288 243.882 11.6179 244.485 9.27496C244.764 9.26183 245.052 9.24382 245.347 9.22551V9.22548C245.955 9.18744 246.585 9.14799 247.216 9.14799C249.182 9.13992 251.147 9.14063 253.113 9.14134C255.362 9.14217 257.608 9.14299 259.855 9.13067C260.506 9.12661 261.158 9.06534 261.775 9.00726C262.035 8.98287 262.289 8.95903 262.534 8.94024C263.315 5.96248 263.217 2.22874 262.333 0.197403ZM28.6684 9.07865L28.6547 9.07874C29.3118 5.80055 29.2304 2.43271 28.5132 0.324271C28.3688 0.2987 28.2191 0.265575 28.0653 0.231589C27.6987 0.150531 27.3099 0.0645833 26.9211 0.0645833C18.9774 0.0414998 11.0281 0.0357291 3.08449 0.0645833C2.65908 0.0645833 2.23632 0.186969 1.79643 0.314317H1.79642C1.58846 0.374524 1.37666 0.435838 1.15894 0.485854C1.12971 0.74447 1.09641 0.987346 1.06459 1.21948C0.996291 1.71773 0.93477 2.16652 0.93477 2.6153C0.923274 17.0367 0.923273 31.4522 0.940517 45.8679C0.940517 46.3 1.04553 46.732 1.14633 47.1469C1.19091 47.3303 1.23466 47.5104 1.26815 47.6857C6.64817 48.2454 26.9326 48.0145 29.0706 47.3335C29.0368 46.4902 29.0629 45.6387 29.0892 44.774V44.7738C29.1433 42.9996 29.1991 41.1692 28.7431 39.2371H25.8232C24.7472 39.2371 23.671 39.2383 22.5945 39.2392H22.5939C19.3632 39.2424 16.131 39.2458 12.9019 39.2197C12.2205 39.2119 11.5365 39.121 10.8044 39.0237H10.8044H10.8042C10.4617 38.9783 10.1087 38.9313 9.74054 38.8909V29.7672C10.3153 28.4976 11.373 28.2725 12.603 28.284C15.7643 28.3071 18.92 28.3072 22.0813 28.2782C22.5607 28.2746 23.0376 28.2034 23.5707 28.124C23.8494 28.0827 24.1433 28.0389 24.461 28.0013C24.4123 27.0481 24.4373 26.1144 24.4622 25.1846C24.5109 23.362 24.5591 21.5538 24.0528 19.6393H21.0409C20.2752 19.6393 19.5098 19.6409 18.7447 19.6426L18.7422 19.6426C16.6364 19.6471 14.5322 19.6516 12.4248 19.622C11.8746 19.6142 11.327 19.529 10.7148 19.4336H10.7148C10.4123 19.3865 10.0941 19.3369 9.75204 19.293C9.46466 15.8479 9.43017 12.6623 9.76929 9.20561L28.6547 9.07874L28.651 9.09595L28.6684 9.07865ZM215.59 13.678H224.286L224.281 13.6722C224.303 13.2299 224.327 12.7917 224.351 12.3574C224.545 8.8309 224.725 5.56226 223.666 2.45371C222.281 0.468544 220.384 0.0299607 218.286 0.0299607C216.666 0.031644 215.047 0.02989 213.428 0.0281364C209.497 0.0238783 205.567 0.0196212 201.634 0.0645842C200.709 0.0769125 199.784 0.261892 198.996 0.419478C198.677 0.48319 198.381 0.542426 198.116 0.583961C196.472 2.28059 195.766 3.8214 195.777 5.81235C195.835 18.11 195.817 30.4076 195.789 42.7054C195.783 44.4482 196.214 45.9198 197.961 47.3105C198.264 47.3553 198.601 47.4198 198.961 47.489C199.811 47.6522 200.793 47.8408 201.778 47.853C204.554 47.8876 207.329 47.8833 210.104 47.8789C212.878 47.8745 215.653 47.8702 218.429 47.9048C220.602 47.9337 222.378 47.3452 223.654 45.4638C224.614 42.5207 224.769 37.2231 223.879 34.2394C223.551 34.2199 223.222 34.1984 222.892 34.1766C220.502 34.0194 218.056 33.8583 215.602 34.4416C215.502 35.1958 215.41 35.8948 215.32 36.5841C215.213 37.4028 215.108 38.2075 214.992 39.0756C211.9 39.3179 209.049 39.3179 206.21 39.0756C205.765 39.0386 205.353 38.6564 205 38.3301C204.856 38.1963 204.722 38.0721 204.6 37.9847C204.14 32.2025 204.324 11.6755 204.882 9.28641C208.21 9.06133 211.589 9.04402 215.113 9.31525C215.285 10.908 215.435 12.2872 215.59 13.678Z" fill="#4A4A5E"/>
</svg>
