<svg width="152" height="48" viewBox="0 0 152 48" fill="none" xmlns="http://www.w3.org/2000/svg">
<g opacity="0.5" clip-path="url(#clip0_1093_15464)">
<path d="M13.4379 9.99339H35.2965V2.98215H21.7816C17.6256 2.98215 14.1359 5.99603 13.4379 9.99339ZM3.3176 19.9868H10.2971V12.9755H3.3176V19.9868ZM13.311 29.9802H25.3031V22.9689H13.311V29.9802ZM3.3176 32.994V44.8592C7.28324 44.1613 10.3288 40.6715 10.3288 36.4838V32.994H3.3176ZM1.79479 48H0.303711V30.0119H10.2971V23.0007H0.303711V9.99339H10.3923C11.122 4.34633 15.9759 0 21.7816 0H38.2787V13.0073H13.2793V20.0185H28.2853V33.0258H13.2793V36.5155C13.311 42.8288 8.13982 48 1.79479 48Z" fill="#D2D0F1"/>
<path d="M52.6186 40.0053C50.8737 40.0053 49.3509 38.6728 49.3509 36.3252C49.3509 33.9775 50.8737 32.7085 52.5551 32.7085C54.1097 32.7085 54.9028 33.5968 55.2518 34.5169H57.9801C57.5677 32.1058 55.6642 30.1705 52.5234 30.1705C49.1605 30.1705 46.5591 32.772 46.5591 36.3569C46.5591 39.9101 49.1605 42.575 52.5869 42.575C55.6642 42.575 57.5994 40.5763 58.107 38.2287H55.3787C55.0614 39.0535 54.2048 40.0053 52.6186 40.0053ZM91.4818 26.5221H88.7218V38.8632C88.7218 41.0522 90.0542 42.3529 92.2115 42.3529C93.2267 42.3529 93.7343 42.1626 93.9247 42.0991V39.7832C93.7978 39.8149 93.3536 39.8784 92.9729 39.8784C91.9577 39.8784 91.4818 39.4342 91.4818 38.419V32.9941H93.9247V30.5195H91.4818V26.5221ZM85.6761 24.7138C84.6927 24.7138 83.8678 25.5387 83.8678 26.5221C83.8678 27.5373 84.6927 28.3305 85.6761 28.3305C86.6914 28.3305 87.4845 27.5373 87.4845 26.5221C87.5162 25.5387 86.6914 24.7138 85.6761 24.7138ZM84.312 42.1943H87.0721V30.5195H84.312V42.1943ZM77.618 30.2657C75.8096 30.2657 74.4772 31.0906 73.9061 32.1058V30.5195H71.2095V46.731H73.9696V40.8619C74.5724 41.7502 75.8414 42.4798 77.5228 42.4798C80.8857 42.4798 83.0112 39.8467 83.0112 36.3569C83.0112 32.8989 81.076 30.2657 77.618 30.2657ZM77.0786 40.0053C75.2703 40.0053 73.9379 38.5777 73.9379 36.3252C73.9379 34.1362 75.2703 32.7085 77.0786 32.7085C78.9504 32.7085 80.2194 34.1362 80.2194 36.3252C80.2194 38.5777 78.9504 40.0053 77.0786 40.0053ZM106.995 42.1943H109.756V26.5221H106.995V42.1943ZM100.397 30.1705C97.5096 30.1705 95.4792 32.0106 95.4158 34.5169H98.0172C98.1441 33.343 98.969 32.423 100.397 32.423C101.919 32.423 102.617 33.2161 102.617 34.1996C102.617 34.612 102.427 34.9293 101.761 35.0245L98.7786 35.4686C96.7799 35.7541 95.2571 36.8962 95.2571 38.9901C95.2571 40.8301 96.7799 42.5116 99.2228 42.5116C101.126 42.5116 102.268 41.5598 102.808 40.6715V42.1626H105.377V34.4851C105.346 32.2009 103.982 30.1705 100.397 30.1705ZM102.617 37.3404C102.617 39.6246 101.285 40.3543 99.7304 40.3543C98.62 40.3543 98.0172 39.6246 98.0172 38.8315C98.0172 37.8797 98.7152 37.4038 99.5717 37.2452L102.617 36.8011V37.3404ZM64.6107 30.1705C61.7237 30.1705 59.6933 32.0106 59.6298 34.5169H62.2313C62.3582 33.343 63.183 32.423 64.6107 32.423C66.1335 32.423 66.8314 33.2161 66.8314 34.1996C66.8314 34.612 66.6411 34.9293 65.9749 35.0245L62.9927 35.4686C60.994 35.7541 59.4712 36.8962 59.4712 38.9901C59.4712 40.8301 60.994 42.5116 63.4368 42.5116C65.3403 42.5116 66.4825 41.5598 67.0218 40.6715V42.1626H69.5915V34.4851C69.5598 32.2009 68.1956 30.1705 64.6107 30.1705ZM66.8314 37.3404C66.8314 39.6246 65.499 40.3543 63.9444 40.3543C62.8341 40.3543 62.2313 39.6246 62.2313 38.8315C62.2313 37.8797 62.9292 37.4038 63.7858 37.2452L66.8314 36.8011V37.3404ZM48.6212 22.1758H51.413V12.9756H54.1414V10.5644H51.413V8.97819C51.413 7.55057 52.3965 7.20159 53.1262 7.20159C53.6655 7.20159 53.951 7.26504 54.1414 7.32849V4.94911C53.951 4.85394 53.38 4.69531 52.682 4.69531C50.2709 4.69531 48.6212 6.28157 48.6212 8.88302V10.5327H46.5908V12.9438H48.6212V22.1758ZM60.4864 22.5565C63.9762 22.5565 66.5459 19.9551 66.5459 16.3384C66.5459 12.7535 63.9762 10.152 60.4864 10.152C56.9966 10.152 54.4586 12.7535 54.4586 16.3384C54.4269 19.9233 56.9966 22.5565 60.4864 22.5565ZM60.4864 12.6583C62.1996 12.6583 63.7541 13.8956 63.7541 16.3384C63.7541 18.7812 62.2313 20.0502 60.4864 20.0502C58.7732 20.0502 57.2187 18.7495 57.2187 16.3384C57.2187 13.9273 58.7732 12.6583 60.4864 12.6583ZM72.2564 22.5248C73.6206 22.5248 74.9848 21.9537 75.5558 20.9068V22.2075H78.189V10.5327H75.3972V17.4488C75.3972 18.9716 74.5724 20.0502 72.9544 20.0502C71.2729 20.0502 70.6067 18.813 70.6067 17.3853V10.5327H67.8149V17.8929C67.8466 20.4627 69.4646 22.5248 72.2564 22.5248ZM87.4528 15.2915V22.2075H90.2446V14.8156C90.2446 12.2459 88.8804 10.1837 86.0251 10.1837C84.7244 10.1837 83.3285 10.7231 82.5671 12.0872V10.5327H79.8705V22.2075H82.6623V15.4818C82.6623 13.959 83.4871 12.7218 85.0734 12.7218C86.7865 12.69 87.4528 13.8321 87.4528 15.2915ZM97.1289 22.4613C98.7786 22.4613 100.016 21.6365 100.555 20.653V22.1758H103.22V6.53537H100.523V11.8969C100.175 11.1672 99.1276 10.2155 97.0972 10.2155C93.8295 10.2155 91.5453 12.9756 91.5453 16.3384C91.5453 19.8282 93.7978 22.4613 97.1289 22.4613ZM97.4779 12.6583C99.2862 12.6583 100.555 14.0542 100.555 16.275C100.555 18.4957 99.2862 20.0185 97.4779 20.0185C95.5744 20.0185 94.3371 18.5274 94.3371 16.3067C94.3054 14.0859 95.6378 12.6583 97.4779 12.6583ZM119.051 6.53537H116.291V18.8764C116.291 21.0654 117.623 22.3662 119.781 22.3662C120.796 22.3662 121.303 22.1758 121.494 22.1124V19.7964C121.367 19.8282 120.923 19.8916 120.542 19.8916C119.527 19.8916 119.051 19.4475 119.051 18.4323V13.0073H121.494V10.5327H119.051V6.53537ZM124.508 4.72704C123.524 4.72704 122.699 5.55189 122.699 6.53537C122.699 7.55057 123.524 8.34369 124.508 8.34369C125.523 8.34369 126.316 7.55057 126.316 6.53537C126.348 5.52016 125.523 4.72704 124.508 4.72704ZM123.144 22.1758H125.904V10.501H123.144V22.1758ZM133.264 10.152C129.774 10.152 127.236 12.7535 127.236 16.3384C127.236 19.9233 129.806 22.5565 133.264 22.5565C136.754 22.5565 139.323 19.9551 139.323 16.3384C139.323 12.7535 136.754 10.152 133.264 10.152ZM133.264 20.0502C131.551 20.0502 129.996 18.7495 129.996 16.3384C129.996 13.9273 131.551 12.6583 133.264 12.6583C134.977 12.6583 136.532 13.8956 136.532 16.3384C136.5 18.7812 134.977 20.0502 133.264 20.0502ZM146.779 10.1837C145.478 10.1837 144.082 10.7231 143.321 12.0872V10.5327H140.624V22.2075H143.416V15.4818C143.416 13.959 144.241 12.7218 145.827 12.7218C147.572 12.7218 148.238 13.8639 148.238 15.3232V22.2393H151.03V14.8473C150.998 12.2459 149.634 10.1837 146.779 10.1837ZM109.692 10.152C106.805 10.152 104.775 11.9921 104.711 14.4984H107.313C107.44 13.3245 108.264 12.4045 109.692 12.4045C111.215 12.4045 111.913 13.1976 111.913 14.1811C111.913 14.5935 111.722 14.9108 111.056 15.006L108.074 15.4501C106.075 15.7356 104.553 16.8777 104.553 18.9716C104.553 20.8116 106.075 22.4931 108.518 22.4931C110.422 22.4931 111.564 21.5413 112.103 20.653V22.1441H114.673V14.4666C114.641 12.1824 113.277 10.152 109.692 10.152ZM111.913 17.3536C111.913 19.6378 110.58 20.3675 109.026 20.3675C107.915 20.3675 107.313 19.6378 107.313 18.8447C107.313 17.8929 108.011 17.4171 108.867 17.2584L111.913 16.8143V17.3536Z" fill="#D2D0F1"/>
</g>
<defs>
<clipPath id="clip0_1093_15464">
<rect width="150.726" height="48" fill="white" transform="translate(0.303711)"/>
</clipPath>
</defs>
</svg>
