<svg width="228" height="72" viewBox="0 0 228 72" fill="none" xmlns="http://www.w3.org/2000/svg">
<g opacity="0.5" clip-path="url(#clip0_972_20774)">
<path d="M20.6563 14.9901H53.4442V4.47323H33.1719C26.9379 4.47323 21.7033 8.99405 20.6563 14.9901ZM5.4759 29.9802H15.9452V19.4633H5.4759V29.9802ZM20.466 44.9703H38.4541V34.4534H20.466V44.9703ZM5.4759 49.4911V67.2888C11.4243 66.2419 15.9928 61.0073 15.9928 54.7257V49.4911H5.4759ZM3.19169 72H0.955078V45.0178H15.9452V34.501H0.955078V14.9901H16.0879C17.1824 6.5195 24.4633 0 33.1719 0H57.9174V19.5109H20.4184V30.0278H42.9273V49.5387H20.4184V54.7733C20.466 64.2432 12.7092 72 3.19169 72Z" fill="#4A4A5E"/>
<path d="M79.4271 60.0079C76.8098 60.0079 74.5256 58.0093 74.5256 54.4878C74.5256 50.9663 76.8098 49.0628 79.3319 49.0628C81.6637 49.0628 82.8534 50.3952 83.3769 51.7753H87.4694C86.8508 48.1586 83.9955 45.2558 79.2844 45.2558C74.2401 45.2558 70.3379 49.158 70.3379 54.5354C70.3379 59.8652 74.2401 63.8625 79.3795 63.8625C83.9955 63.8625 86.8984 60.8645 87.6598 57.343H83.5672C83.0914 58.5803 81.8065 60.0079 79.4271 60.0079ZM137.722 39.7832H133.582V58.2948C133.582 61.5783 135.58 63.5294 138.816 63.5294C140.339 63.5294 141.101 63.2439 141.386 63.1487V59.6748C141.196 59.7224 140.53 59.8176 139.959 59.8176C138.436 59.8176 137.722 59.1514 137.722 57.6286V49.4911H141.386V45.7793H137.722V39.7832ZM129.013 37.0707C127.538 37.0707 126.301 38.308 126.301 39.7832C126.301 41.306 127.538 42.4957 129.013 42.4957C130.536 42.4957 131.726 41.306 131.726 39.7832C131.773 38.308 130.536 37.0707 129.013 37.0707ZM126.967 63.2915H131.107V45.7793H126.967V63.2915ZM116.926 45.3986C114.214 45.3986 112.215 46.6358 111.358 48.1586V45.7793H107.313V70.0965H111.454V61.2928C112.358 62.6253 114.261 63.7198 116.783 63.7198C121.828 63.7198 125.016 59.77 125.016 54.5354C125.016 49.3483 122.113 45.3986 116.926 45.3986ZM116.117 60.0079C113.405 60.0079 111.406 57.8665 111.406 54.4878C111.406 51.2042 113.405 49.0628 116.117 49.0628C118.925 49.0628 120.828 51.2042 120.828 54.4878C120.828 57.8665 118.925 60.0079 116.117 60.0079ZM160.992 63.2915H165.132V39.7832H160.992V63.2915ZM151.094 45.2558C146.764 45.2558 143.718 48.0159 143.623 51.7753H147.525C147.715 50.0145 148.953 48.6345 151.094 48.6345C153.378 48.6345 154.425 49.8242 154.425 51.2994C154.425 51.9181 154.14 52.3939 153.14 52.5367L148.667 53.2029C145.669 53.6312 143.385 55.3444 143.385 58.4851C143.385 61.2452 145.669 63.7674 149.333 63.7674C152.189 63.7674 153.902 62.3397 154.711 61.0073V63.2439H158.565V51.7277C158.518 48.3014 156.471 45.2558 151.094 45.2558ZM154.425 56.0106C154.425 59.4369 152.426 60.5314 150.095 60.5314C148.429 60.5314 147.525 59.4369 147.525 58.2472C147.525 56.8196 148.572 56.1058 149.857 55.8678L154.425 55.2016V56.0106ZM97.4152 45.2558C93.0848 45.2558 90.0392 48.0159 89.944 51.7753H93.8462C94.0365 50.0145 95.2738 48.6345 97.4152 48.6345C99.6994 48.6345 100.746 49.8242 100.746 51.2994C100.746 51.9181 100.461 52.3939 99.4615 52.5367L94.9883 53.2029C91.9902 53.6312 89.706 55.3444 89.706 58.4851C89.706 61.2452 91.9902 63.7674 95.6545 63.7674C98.5097 63.7674 100.223 62.3397 101.032 61.0073V63.2439H104.886V51.7277C104.839 48.3014 102.793 45.2558 97.4152 45.2558ZM100.746 56.0106C100.746 59.4369 98.7477 60.5314 96.4159 60.5314C94.7503 60.5314 93.8462 59.4369 93.8462 58.2472C93.8462 56.8196 94.8931 56.1058 96.178 55.8678L100.746 55.2016V56.0106ZM73.4311 33.2637H77.6188V19.4633H81.7113V15.8467H77.6188V13.4673C77.6188 11.3258 79.094 10.8024 80.1885 10.8024C80.9975 10.8024 81.4258 10.8976 81.7113 10.9927V7.42367C81.4258 7.28091 80.5692 7.04297 79.5223 7.04297C75.9056 7.04297 73.4311 9.42235 73.4311 13.3245V15.7991H70.3855V19.4157H73.4311V33.2637ZM91.2288 33.8348C96.4635 33.8348 100.318 29.9326 100.318 24.5076C100.318 19.1302 96.4635 15.228 91.2288 15.228C85.9942 15.228 82.1872 19.1302 82.1872 24.5076C82.1396 29.885 85.9942 33.8348 91.2288 33.8348ZM91.2288 18.9875C93.7986 18.9875 96.1304 20.8434 96.1304 24.5076C96.1304 28.1719 93.8462 30.0754 91.2288 30.0754C88.6591 30.0754 86.3273 28.1243 86.3273 24.5076C86.3273 20.891 88.6591 18.9875 91.2288 18.9875ZM108.884 33.7872C110.93 33.7872 112.976 32.9306 113.833 31.3602V33.3113H117.783V15.7991H113.595V26.1732C113.595 28.4574 112.358 30.0754 109.931 30.0754C107.409 30.0754 106.409 28.2194 106.409 26.078V15.7991H102.222V26.8394C102.269 30.694 104.696 33.7872 108.884 33.7872ZM131.678 22.9372V33.3113H135.866V22.2234C135.866 18.3688 133.82 15.2756 129.537 15.2756C127.586 15.2756 125.492 16.0846 124.35 18.1309V15.7991H120.305V33.3113H124.493V23.2227C124.493 20.9385 125.73 19.0826 128.109 19.0826C130.679 19.035 131.678 20.7482 131.678 22.9372ZM146.193 33.692C148.667 33.692 150.523 32.4547 151.332 30.9795V33.2637H155.329V9.80305H151.284V17.8453C150.761 16.7508 149.191 15.3232 146.145 15.3232C141.243 15.3232 137.817 19.4633 137.817 24.5076C137.817 29.7422 141.196 33.692 146.193 33.692ZM146.716 18.9875C149.428 18.9875 151.332 21.0813 151.332 24.4124C151.332 27.7436 149.428 30.0278 146.716 30.0278C143.861 30.0278 142.005 27.7912 142.005 24.46C141.957 21.1289 143.956 18.9875 146.716 18.9875ZM179.076 9.80305H174.935V28.3146C174.935 31.5982 176.934 33.5492 180.17 33.5492C181.693 33.5492 182.454 33.2637 182.74 33.1685V29.6947C182.549 29.7422 181.883 29.8374 181.312 29.8374C179.789 29.8374 179.076 29.1712 179.076 27.6484V19.5109H182.74V15.7991H179.076V9.80305ZM187.261 7.09056C185.785 7.09056 184.548 8.32783 184.548 9.80305C184.548 11.3259 185.785 12.5155 187.261 12.5155C188.783 12.5155 189.973 11.3259 189.973 9.80305C190.021 8.28025 188.783 7.09056 187.261 7.09056ZM185.214 33.2637H189.354V15.7515H185.214V33.2637ZM200.395 15.228C195.16 15.228 191.353 19.1302 191.353 24.5076C191.353 29.885 195.208 33.8348 200.395 33.8348C205.629 33.8348 209.484 29.9326 209.484 24.5076C209.484 19.1302 205.629 15.228 200.395 15.228ZM200.395 30.0754C197.825 30.0754 195.493 28.1243 195.493 24.5076C195.493 20.891 197.825 18.9875 200.395 18.9875C202.965 18.9875 205.296 20.8434 205.296 24.5076C205.249 28.1719 202.965 30.0754 200.395 30.0754ZM220.667 15.2756C218.716 15.2756 216.622 16.0846 215.48 18.1309V15.7991H211.435V33.3113H215.623V23.2227C215.623 20.9385 216.86 19.0826 219.239 19.0826C221.857 19.0826 222.856 20.7958 222.856 22.9848V33.3589H227.044V22.271C226.996 18.3688 224.95 15.2756 220.667 15.2756ZM165.037 15.228C160.707 15.228 157.661 17.9881 157.566 21.7475H161.468C161.658 19.9868 162.896 18.6067 165.037 18.6067C167.321 18.6067 168.368 19.7964 168.368 21.2717C168.368 21.8903 168.083 22.3662 167.083 22.5089L162.61 23.1752C159.612 23.6034 157.328 25.3166 157.328 28.4574C157.328 31.2175 159.612 33.7396 163.276 33.7396C166.132 33.7396 167.845 32.312 168.654 30.9795V33.2161H172.508V21.6999C172.461 18.2736 170.415 15.228 165.037 15.228ZM168.368 26.0304C168.368 29.4567 166.37 30.5512 164.038 30.5512C162.372 30.5512 161.468 29.4567 161.468 28.267C161.468 26.8394 162.515 26.1256 163.8 25.8876L168.368 25.2214V26.0304Z" fill="#4A4A5E"/>
</g>
<defs>
<clipPath id="clip0_972_20774">
<rect width="226.089" height="72" fill="white" transform="translate(0.956055)"/>
</clipPath>
</defs>
</svg>
