<svg width="146" height="40" viewBox="0 0 146 40" fill="none" xmlns="http://www.w3.org/2000/svg">
<g opacity="0.5" clip-path="url(#clip0_1093_15495)">
<path d="M21.4226 31.1268C20.0395 28.4045 18.417 25.6549 15.2519 25.6549C14.6469 25.6549 14.0426 25.7549 13.488 26.0082L12.4128 23.8561C13.7229 22.7321 15.8404 21.8408 18.5618 21.8408C22.7956 21.8408 24.9683 23.8803 26.6933 26.4834C27.7173 24.2608 28.204 21.2594 28.204 17.5392C28.204 8.24901 25.2987 3.47859 18.5119 3.47859C11.8243 3.47859 8.93474 8.24901 8.93474 17.5392C8.93474 26.7806 11.8243 31.5017 18.5122 31.5017C19.575 31.5017 20.5376 31.3848 21.4226 31.1268ZM23.0804 34.369C21.6145 34.762 20.0567 34.9789 18.5119 34.9789C9.60685 34.9789 0.887695 27.8732 0.887695 17.5394C0.887695 7.10704 9.60685 0 18.5119 0C27.5666 0 36.2021 7.05634 36.2021 17.5392C36.2021 23.3701 33.4809 28.1087 29.5266 31.1715C30.8043 33.0859 32.1198 34.3575 33.9514 34.3575C35.9502 34.3575 36.7564 32.8127 36.8914 31.6011H39.4947C39.6469 33.2144 38.8398 39.9186 31.5643 39.9186C27.1576 39.9186 24.8277 37.3645 23.0804 34.369ZM41.9271 25.5042V13.5577C41.9271 12.1972 41.4243 11.593 39.8618 11.593H38.1981V8.41831H49.0677V25.3535C49.0677 28.2085 50.613 29.4673 52.9663 29.4673C54.8973 29.4673 56.8291 28.613 57.8711 26.6623V13.5577C57.8711 12.1969 57.3669 11.5927 55.8052 11.5927H54.0412V8.41803H65.0125V26.1577C65.0125 27.9245 65.6671 28.7299 67.6829 28.7299H68.0361V32.0059L58.2246 33.5679V30.1916H58.0226C56.1246 32.5085 53.4536 34.0718 49.6395 34.0718C45.355 34.0718 41.9268 31.9056 41.9268 25.5042H41.9271ZM82.3066 30.8975C86.1711 30.8975 87.6393 27.5355 87.7164 20.7662C87.7914 14.1448 86.1711 10.9394 82.3066 10.9394C78.9302 10.9394 76.813 14.1465 76.813 20.7662C76.813 27.5369 78.8956 30.8975 82.3066 30.8975ZM82.3066 34.0718C75.3178 34.0718 69.0162 28.7282 69.0162 20.7662C69.0162 12.9535 75.166 7.76225 82.3063 7.76225C89.7494 7.76225 95.7136 13.0532 95.7136 20.7662C95.7136 28.7282 89.7494 34.0718 82.3066 34.0718ZM95.9387 33.5676V30.3927H96.9973C99.6187 30.3927 99.8705 29.6369 99.8705 27.369V13.5577C99.8705 12.1972 99.1649 11.593 97.5525 11.593H96.1412V8.41831H106.103L106.607 13.6099H106.81C107.919 9.87859 110.892 7.91296 113.68 7.91296C115.981 7.91296 117.779 9.22394 117.779 11.8792C117.779 13.7268 116.89 15.6932 114.403 15.6932C112.168 15.6932 111.732 14.1803 109.883 14.1803C108.238 14.1803 106.96 15.7437 106.96 18.0439V27.369C106.96 29.6366 107.515 30.3927 110.086 30.3927H111.547V33.5676H95.9384H95.9387ZM129.102 29.8718C132.278 29.8718 133.587 26.8648 133.587 23.8425V19.8087C131.27 22.2099 125.876 22.2944 125.876 26.5786C125.876 28.6786 127.12 29.8718 129.102 29.8718H129.102ZM133.74 29.8546C132.429 32.3744 129.74 34.0716 125.977 34.0716C121.609 34.0716 118.787 31.7518 118.787 27.6704C118.787 19.4566 130.227 21.6394 133.587 16.1972V15.6085C133.587 11.4259 131.941 10.771 130.127 10.771C125.036 10.771 127.354 16.2451 122.667 16.2451C120.416 16.2451 119.542 14.8865 119.542 13.3577C119.542 10.2662 123.238 7.76254 130.178 7.76254C136.745 7.76254 140.778 9.57747 140.778 16.1132V26.5456C140.778 28.158 141.367 29.033 142.778 29.033C143.382 29.033 143.886 28.8648 144.272 28.5958L145.113 30.6437C144.424 31.7031 142.592 33.5679 139.114 33.5679C136.091 33.5679 134.192 32.1566 133.94 29.8549L133.74 29.8546Z" fill="#D2D0F1"/>
</g>
<defs>
<clipPath id="clip0_1093_15495">
<rect width="144.3" height="40" fill="white" transform="translate(0.850098)"/>
</clipPath>
</defs>
</svg>
