<svg width="138" height="48" viewBox="0 0 138 48" fill="none" xmlns="http://www.w3.org/2000/svg">
<g opacity="0.5" clip-path="url(#clip0_1093_15468)">
<path d="M1.77295 38.0034H3.02529L6.57036 46.481L10.1293 38.0034H11.3372L7.05168 47.9148H6.06128L1.77295 38.0034Z" fill="#D2D0F1"/>
<path d="M21.2353 38.0034H28.4393V39.0151H22.3599V42.3751H27.7978V43.3867H22.359V46.8309H28.5096V47.8435H21.2344L21.2353 38.0034Z" fill="#D2D0F1"/>
<path d="M38.7036 38.0034H39.7579L46.0363 45.8905V38.0034H47.1322V47.8445H46.2353L39.8005 39.775V47.8445H38.7036V38.0034Z" fill="#D2D0F1"/>
<path d="M60.5146 39.0299H57.1694V38.0034H65.0001V39.0299H61.654V47.8445H60.5146V39.0299Z" fill="#D2D0F1"/>
<path d="M74.8798 43.727V38.0049H76.0044V43.6566C76.0044 45.779 77.1429 46.974 79.0506 46.974C80.8879 46.974 82.0551 45.8772 82.0551 43.727V38.0049H83.1797V43.6427C83.1797 46.5121 81.5136 48.0014 79.0219 48.0014C76.5589 48.0014 74.8789 46.5112 74.8789 43.7279" fill="#D2D0F1"/>
<path d="M93.7715 38.0034H98.057C99.0942 37.9471 100.112 38.3005 100.891 38.9873C101.142 39.2441 101.339 39.5482 101.471 39.882C101.603 40.2157 101.667 40.5723 101.659 40.9311V40.9598C101.659 42.5898 100.52 43.5459 98.9539 43.8291L102.016 47.85H100.635L97.7442 44.0263H94.8961V47.85H93.7715V38.0034ZM97.958 43.022C99.4529 43.022 100.52 42.263 100.52 40.9977V40.97C100.52 39.7611 99.5806 39.0262 97.9719 39.0262H94.8961V43.0192L97.958 43.022Z" fill="#D2D0F1"/>
<path d="M111.994 38.0034H119.198V39.0151H113.122V42.3751H118.561V43.3867H113.122V46.8309H119.273V47.8435H111.998L111.994 38.0034Z" fill="#D2D0F1"/>
<path d="M128.809 46.41L129.506 45.5945C129.955 46.041 130.488 46.3937 131.075 46.6321C131.662 46.8705 132.29 46.9897 132.923 46.983C134.262 46.983 135.145 46.2804 135.145 45.3095V45.2817C135.145 44.3681 134.647 43.8479 132.553 43.4129C130.26 42.9205 129.207 42.1892 129.207 40.5731V40.5454C129.207 38.9987 130.588 37.8611 132.482 37.8611C133.758 37.824 135.003 38.2539 135.984 39.0699L135.33 39.928C134.53 39.239 133.51 38.8597 132.454 38.8589C131.158 38.8589 130.333 39.5624 130.333 40.4472V40.4759C130.333 41.4015 130.844 41.9236 133.037 42.3882C135.259 42.8659 136.283 43.6674 136.283 45.1715V45.2002C136.283 46.8867 134.86 47.9835 132.88 47.9835C131.37 48.0022 129.912 47.4386 128.807 46.41" fill="#D2D0F1"/>
<path d="M1.2163 24.2226L3.03683 20.9583C4.97449 22.5682 7.42329 23.4334 9.94224 23.398C13.1372 23.398 14.9929 22.2984 14.9929 20.3437C14.9929 18.2826 12.8641 17.3885 9.66735 16.4953L8.22445 16.0835C4.0327 14.9497 0.90625 13.1977 0.90625 9.04016C0.90625 4.40138 4.65096 1.31009 10.3199 1.31009C13.4362 1.25004 16.4752 2.28355 18.9088 4.23108L16.744 7.59818C14.9542 6.10417 12.689 5.29984 10.3578 5.33062C7.67375 5.33062 5.92542 6.46532 5.92542 8.25161C5.92542 10.2785 7.95234 10.9995 10.4605 11.7214L11.9414 12.1342C15.8583 13.1995 20.0157 15.3292 20.0157 19.8995C20.0157 24.4003 16.0989 27.4231 10.2578 27.4231C6.95303 27.5226 3.7304 26.3831 1.22278 24.2282" fill="#D2D0F1"/>
<path d="M22.1401 17.7984C22.1401 12.0601 26.1255 8.21264 32.1035 8.21264C34.4015 8.18516 36.6413 8.93535 38.4591 10.3414L35.8149 13.5021C34.8089 12.6234 33.508 12.1572 32.1729 12.1971C29.0807 12.1971 26.9853 14.4295 26.9853 17.7966C26.9853 21.1637 29.0465 23.397 32.2081 23.397C32.9839 23.4357 33.759 23.3087 34.4818 23.0243C35.2046 22.7399 35.8585 22.3047 36.3998 21.7477L39.045 24.8399C38.0996 25.7137 36.9904 26.3913 35.7814 26.8336C34.5724 27.2759 33.2878 27.474 32.0017 27.4166C26.0922 27.4166 22.1411 23.5682 22.1411 17.7966" fill="#D2D0F1"/>
<path d="M53.404 8.2124L53.0948 12.5069C49.2474 12.5069 46.7087 14.358 46.7087 17.1457V27.0748H42.0356V8.55578H46.5365L46.605 11.0297C48.0859 9.20828 50.4191 8.2124 53.4077 8.2124" fill="#D2D0F1"/>
<path d="M56.321 2.78526C56.308 2.41626 56.371 2.04852 56.5062 1.70495C56.6415 1.36138 56.846 1.04934 57.1071 0.788255C57.3682 0.527171 57.6802 0.32264 58.0238 0.1874C58.3674 0.0521599 58.7351 -0.0108915 59.1041 0.00217244C59.4714 -0.0103685 59.8373 0.0533073 60.1787 0.189187C60.5202 0.325066 60.8298 0.530203 61.0881 0.791669C61.3463 1.05314 61.5476 1.36526 61.6792 1.70838C61.8109 2.05149 61.87 2.41815 61.8529 2.78526C61.8692 3.15057 61.8093 3.51528 61.6769 3.85617C61.5445 4.19705 61.3426 4.50663 61.084 4.76521C60.8255 5.02379 60.5159 5.22569 60.175 5.35807C59.8341 5.49044 59.4694 5.55039 59.1041 5.53409C58.737 5.55104 58.3704 5.4918 58.0274 5.36011C57.6843 5.22842 57.3723 5.02713 57.1108 4.76891C56.8494 4.51069 56.6442 4.20113 56.5083 3.85974C56.3724 3.51835 56.3086 3.15251 56.321 2.78526ZM56.7681 8.55689H61.4411V27.075H56.7681V8.55689Z" fill="#D2D0F1"/>
<path d="M85.8687 17.9013C85.8687 23.6035 81.9861 27.4177 77.0049 27.4177C75.7864 27.4793 74.5728 27.2236 73.4827 26.6755C72.3927 26.1275 71.4636 25.306 70.7862 24.2912L70.6826 27.0743H66.1826V0.276367H70.8547V11.2365C71.538 10.2511 72.4615 9.45617 73.5376 8.92706C74.6138 8.39796 75.8072 8.15213 77.0049 8.21283C81.9861 8.21283 85.8687 12.0991 85.8687 17.9013ZM81.0245 17.8328C81.0245 14.4657 78.9624 12.1991 75.9396 12.1991C72.8853 12.1991 70.8547 14.4667 70.8547 17.7986C70.8547 21.1657 72.8816 23.399 75.9396 23.399C78.9624 23.399 81.0245 21.1657 81.0245 17.8328Z" fill="#D2D0F1"/>
<path d="M107.854 17.9013C107.854 23.6035 103.971 27.4177 98.9902 27.4177C97.7717 27.4793 96.5581 27.2236 95.4681 26.6755C94.3781 26.1275 93.4489 25.306 92.7716 24.2912L92.6688 27.0743H88.168V0.276367H92.8401V11.2365C93.5234 10.2511 94.4468 9.45617 95.523 8.92706C96.5992 8.39796 97.7926 8.15213 98.9902 8.21283C103.971 8.21283 107.854 12.0991 107.854 17.9013ZM103.01 17.8328C103.01 14.4657 100.949 12.1991 97.9249 12.1991C94.8707 12.1991 92.8401 14.4667 92.8401 17.7986C92.8401 21.1657 94.867 23.399 97.9249 23.399C100.949 23.399 103.01 21.1657 103.01 17.8328Z" fill="#D2D0F1"/>
<path d="M115.552 0.276367V27.0743H110.879V0.276367H115.552Z" fill="#D2D0F1"/>
<path d="M136.955 19.482H123.555C123.898 22.093 125.272 23.7395 127.987 23.7395C128.861 23.7414 129.723 23.5443 130.509 23.1633C131.295 22.7823 131.983 22.2273 132.523 21.5404L136.132 23.361C135.229 24.6541 134.018 25.7019 132.608 26.4097C131.199 27.1175 129.635 27.4629 128.059 27.4148C122.39 27.4148 118.611 23.6358 118.611 17.9327C118.611 12.0926 122.287 8.20996 127.852 8.20996C133.383 8.20996 137.095 11.9204 137.095 17.5208C137.087 18.1757 137.041 18.8296 136.958 19.4793M123.558 16.3186H132.181C131.838 13.5012 130.36 11.8862 127.852 11.8862C125.378 11.8862 123.935 13.5012 123.558 16.3186Z" fill="#D2D0F1"/>
</g>
<defs>
<clipPath id="clip0_1093_15468">
<rect width="136.195" height="48.0001" fill="white" transform="translate(0.902344)"/>
</clipPath>
</defs>
</svg>
