<svg width="206" height="72" viewBox="0 0 206 72" fill="none" xmlns="http://www.w3.org/2000/svg">
<g opacity="0.5" clip-path="url(#clip0_972_20778)">
<path d="M2.1582 57.0054H4.03672L9.35433 69.7218L14.6928 57.0054H16.5046L10.0763 71.8725H8.5907L2.1582 57.0054Z" fill="#4A4A5E"/>
<path d="M31.351 57.0054H42.157V58.5229H33.0379V63.5628H41.1948V65.0804H33.0365V70.2466H42.2625V71.7655H31.3496L31.351 57.0054Z" fill="#4A4A5E"/>
<path d="M57.5537 57.0054H59.1351L68.5527 68.836V57.0054H70.1966V71.7669H68.8512L59.199 59.6628V71.7669H57.5537V57.0054Z" fill="#4A4A5E"/>
<path d="M90.2706 58.5451H85.2529V57.0054H96.9989V58.5451H91.9798V71.7669H90.2706V58.5451Z" fill="#4A4A5E"/>
<path d="M111.819 65.59V57.0068H113.506V65.4845C113.506 68.6681 115.213 70.4605 118.075 70.4605C120.831 70.4605 122.582 68.8153 122.582 65.59V57.0068H124.269V65.4636C124.269 69.7677 121.77 72.0017 118.032 72.0017C114.337 72.0017 111.817 69.7663 111.817 65.5914" fill="#4A4A5E"/>
<path d="M140.156 57.0053H146.585C148.14 56.9209 149.667 57.4509 150.836 58.4812C151.212 58.8664 151.507 59.3226 151.705 59.8232C151.903 60.3238 151.999 60.8587 151.988 61.3969V61.4399C151.988 63.8849 150.279 65.3191 147.93 65.744L152.523 71.7752H150.451L146.115 66.0397H141.843V71.7752H140.156V57.0053ZM146.436 64.5333C148.678 64.5333 150.279 63.3948 150.279 61.4968V61.4552C150.279 59.6419 148.87 58.5395 146.457 58.5395H141.843V64.5291L146.436 64.5333Z" fill="#4A4A5E"/>
<path d="M167.49 57.0054H178.296V58.5229H169.183V63.5628H177.341V65.0804H169.183V70.2466H178.409V71.7655H167.496L167.49 57.0054Z" fill="#4A4A5E"/>
<path d="M192.713 69.6162L193.758 68.393C194.432 69.0628 195.232 69.5918 196.112 69.9494C196.992 70.3069 197.934 70.4858 198.884 70.4756C200.892 70.4756 202.216 69.4218 202.216 67.9654V67.9237C202.216 66.5534 201.469 65.7731 198.329 65.1205C194.89 64.3819 193.31 63.2851 193.31 60.8609V60.8193C193.31 58.4992 195.381 56.7929 198.222 56.7929C200.136 56.7373 202.004 57.382 203.476 58.6061L202.494 59.8932C201.294 58.8597 199.764 58.2908 198.18 58.2896C196.237 58.2896 194.998 59.3448 194.998 60.6721V60.7151C194.998 62.1035 195.766 62.8866 199.055 63.5836C202.387 64.3 203.924 65.5024 203.924 67.7585V67.8016C203.924 70.3312 201.789 71.9765 198.819 71.9765C196.555 72.0045 194.367 71.1592 192.71 69.6162" fill="#4A4A5E"/>
<path d="M1.32348 36.3349L4.05427 31.4384C6.96076 33.8532 10.634 35.151 14.4124 35.0979C19.2048 35.0979 21.9884 33.4486 21.9884 30.5166C21.9884 27.4248 18.7953 26.0837 14.0001 24.744L11.8357 24.1262C5.54808 22.4255 0.858398 19.7975 0.858398 13.5612C0.858398 6.60305 6.47547 1.96612 14.9788 1.96612C19.6534 1.87604 24.2118 3.4263 27.8623 6.3476L24.615 11.3982C21.9304 9.15723 18.5325 7.95074 15.0357 7.9969C11.0097 7.9969 8.38716 9.69896 8.38716 12.3784C8.38716 15.4188 11.4275 16.5003 15.1898 17.5831L17.4111 18.2023C23.2864 19.8002 29.5227 22.9947 29.5227 29.8502C29.5227 36.6015 23.6474 41.1357 14.8858 41.1357C9.92858 41.2849 5.09463 39.5756 1.3332 36.3433" fill="#4A4A5E"/>
<path d="M32.709 26.6976C32.709 18.0901 38.687 12.319 47.6541 12.319C51.101 12.2777 54.4607 13.403 57.1875 15.5121L53.2211 20.2531C51.7122 18.935 49.7609 18.2358 47.7582 18.2956C43.1199 18.2956 39.9767 21.6442 39.9767 26.6948C39.9767 31.7455 43.0685 35.0955 47.8109 35.0955C48.9746 35.1536 50.1373 34.963 51.2215 34.5364C52.3057 34.1098 53.2865 33.457 54.0986 32.6215L58.0663 37.2598C56.6483 38.5705 54.9844 39.587 53.1709 40.2504C51.3574 40.9138 49.4304 41.211 47.5013 41.1248C38.637 41.1248 32.7104 35.3523 32.7104 26.6948" fill="#4A4A5E"/>
<path d="M79.6043 12.3184L79.1406 18.7601C73.3694 18.7601 69.5613 21.5367 69.5613 25.7183V40.612H62.5518V12.8334H69.3031L69.4058 16.5444C71.6271 13.8122 75.127 12.3184 79.6098 12.3184" fill="#4A4A5E"/>
<path d="M83.9801 4.17764C83.9605 3.62414 84.055 3.07254 84.2579 2.55719C84.4608 2.04183 84.7676 1.57376 85.1592 1.18214C85.5508 0.790513 86.0189 0.483715 86.5342 0.280856C87.0496 0.0779958 87.6012 -0.0165815 88.1547 0.00301451C88.7056 -0.0157969 89.2545 0.0797168 89.7667 0.283536C90.2788 0.487355 90.7433 0.795061 91.1306 1.18726C91.518 1.57946 91.8199 2.04765 92.0174 2.56232C92.2149 3.07699 92.3036 3.62698 92.2779 4.17764C92.3024 4.72562 92.2125 5.27268 92.0139 5.78401C91.8153 6.29533 91.5125 6.7597 91.1246 7.14757C90.7367 7.53543 90.2724 7.83829 89.7611 8.03685C89.2497 8.23542 88.7027 8.32534 88.1547 8.3009C87.6041 8.32632 87.0542 8.23746 86.5396 8.03992C86.025 7.84239 85.5569 7.54045 85.1648 7.15312C84.7726 6.76579 84.4649 6.30146 84.261 5.78937C84.0571 5.27728 83.9615 4.72851 83.9801 4.17764ZM84.6506 12.8351H91.6601V40.6122H84.6506V12.8351Z" fill="#4A4A5E"/>
<path d="M128.301 26.853C128.301 35.4063 122.477 41.1275 115.005 41.1275C113.177 41.2199 111.357 40.8363 109.722 40.0143C108.087 39.1923 106.693 37.9599 105.677 36.4378L105.521 40.6124H98.7715V0.415527H105.78V16.8558C106.805 15.3776 108.19 14.1852 109.804 13.3916C111.418 12.5979 113.208 12.2292 115.005 12.3202C122.477 12.3202 128.301 18.1497 128.301 26.853ZM121.034 26.7502C121.034 21.6996 117.941 18.2996 113.407 18.2996C108.826 18.2996 105.78 21.701 105.78 26.6989C105.78 31.7495 108.82 35.0995 113.407 35.0995C117.941 35.0995 121.034 31.7495 121.034 26.7502Z" fill="#4A4A5E"/>
<path d="M161.28 26.853C161.28 35.4063 155.456 41.1275 147.984 41.1275C146.157 41.2199 144.336 40.8363 142.701 40.0143C141.066 39.1923 139.672 37.9599 138.656 36.4378L138.502 40.6124H131.751V0.415527H138.759V16.8558C139.784 15.3776 141.169 14.1852 142.784 13.3916C144.398 12.5979 146.188 12.2292 147.984 12.3202C155.456 12.3202 161.28 18.1497 161.28 26.853ZM154.014 26.7502C154.014 21.6996 150.922 18.2996 146.386 18.2996C141.805 18.2996 138.759 21.701 138.759 26.6989C138.759 31.7495 141.8 35.0995 146.386 35.0995C150.922 35.0995 154.014 31.7495 154.014 26.7502Z" fill="#4A4A5E"/>
<path d="M172.827 0.414062V40.611H165.817V0.414062H172.827Z" fill="#4A4A5E"/>
<path d="M204.931 29.2226H184.831C185.346 33.139 187.407 35.6088 191.48 35.6088C192.79 35.6116 194.083 35.316 195.262 34.7445C196.441 34.1729 197.474 33.3405 198.283 32.3102L203.697 35.041C202.342 36.9807 200.526 38.5524 198.412 39.614C196.297 40.6757 193.952 41.1939 191.587 41.1217C183.083 41.1217 177.415 35.4533 177.415 26.8986C177.415 18.1384 182.929 12.3145 191.277 12.3145C199.574 12.3145 205.141 17.8802 205.141 26.2808C205.129 27.2631 205.06 28.244 204.935 29.2184M184.836 24.4774H197.77C197.255 20.2514 195.04 17.8288 191.277 17.8288C187.566 17.8288 185.402 20.2514 184.836 24.4774Z" fill="#4A4A5E"/>
</g>
<defs>
<clipPath id="clip0_972_20778">
<rect width="204.293" height="72.0001" fill="white" transform="translate(0.853516)"/>
</clipPath>
</defs>
</svg>
