<svg width="930" height="403" viewBox="0 0 930 403" fill="none" xmlns="http://www.w3.org/2000/svg">
<g opacity="0.04">
    <circle cx="685.998" cy="379.756" r="306.315" transform="rotate(-180 685.998 379.756)" stroke="currentColor" style="stroke:currentColor;stroke-opacity:1;" stroke-width="2"/>
    <circle cx="659.348" cy="380.92" r="306.315" transform="rotate(175 659.348 380.92)" stroke="currentColor" style="stroke:currentColor;stroke-opacity:1;" stroke-width="2"/>
    <circle cx="632.9" cy="384.402" r="306.315" transform="rotate(170 632.9 384.402)" stroke="currentColor" style="stroke:currentColor;stroke-opacity:1;" stroke-width="2"/>
    <circle cx="606.856" cy="390.175" r="306.315" transform="rotate(165 606.856 390.175)" stroke="currentColor" style="stroke:currentColor;stroke-opacity:1;" stroke-width="2"/>
    <circle cx="581.414" cy="398.197" r="306.315" transform="rotate(160 581.414 398.197)" stroke="currentColor" style="stroke:currentColor;stroke-opacity:1;" stroke-width="2"/>
    <circle cx="556.767" cy="408.406" r="306.315" transform="rotate(155 556.767 408.406)" stroke="currentColor" style="stroke:currentColor;stroke-opacity:1;" stroke-width="2"/>
    <circle cx="533.103" cy="420.724" r="306.315" transform="rotate(150 533.103 420.724)" stroke="currentColor" style="stroke:currentColor;stroke-opacity:1;" stroke-width="2"/>
    <circle cx="510.605" cy="435.057" r="306.315" transform="rotate(145 510.605 435.057)" stroke="currentColor" style="stroke:currentColor;stroke-opacity:1;" stroke-width="2"/>
    <circle cx="489.445" cy="451.297" r="306.315" transform="rotate(140 489.445 451.297)" stroke="currentColor" style="stroke:currentColor;stroke-opacity:1;" stroke-width="2"/>
    <circle cx="469.778" cy="469.319" r="306.315" transform="rotate(135 469.778 469.319)" stroke="currentColor" style="stroke:currentColor;stroke-opacity:1;" stroke-width="2"/>
    <circle cx="451.756" cy="488.986" r="306.315" transform="rotate(130 451.756 488.986)" stroke="currentColor" style="stroke:currentColor;stroke-opacity:1;" stroke-width="2"/>
    <circle cx="435.517" cy="510.15" r="306.315" transform="rotate(125 435.517 510.15)" stroke="currentColor" style="stroke:currentColor;stroke-opacity:1;" stroke-width="2"/>
    <circle cx="421.185" cy="532.648" r="306.315" transform="rotate(120 421.185 532.648)" stroke="currentColor" style="stroke:currentColor;stroke-opacity:1;" stroke-width="2"/>
    <circle cx="408.865" cy="556.31" r="306.315" transform="rotate(115 408.865 556.31)" stroke="currentColor" style="stroke:currentColor;stroke-opacity:1;" stroke-width="2"/>
    <circle cx="398.657" cy="580.956" r="306.315" transform="rotate(110 398.657 580.956)" stroke="currentColor" style="stroke:currentColor;stroke-opacity:1;" stroke-width="2"/>
    <circle cx="390.637" cy="606.397" r="306.315" transform="rotate(105 390.637 606.397)" stroke="currentColor" style="stroke:currentColor;stroke-opacity:1;" stroke-width="2"/>
    <circle cx="384.863" cy="632.44" r="306.315" transform="rotate(100 384.863 632.44)" stroke="currentColor" style="stroke:currentColor;stroke-opacity:1;" stroke-width="2"/>
    <circle cx="381.38" cy="658.888" r="306.315" transform="rotate(95 381.38 658.888)" stroke="currentColor" style="stroke:currentColor;stroke-opacity:1;" stroke-width="2"/>
    <circle cx="380.217" cy="685.539" r="306.315" transform="rotate(90 380.217 685.539)" stroke="currentColor" style="stroke:currentColor;stroke-opacity:1;" stroke-width="2"/>
    <circle cx="381.38" cy="712.189" r="306.315" transform="rotate(85 381.38 712.189)" stroke="currentColor" style="stroke:currentColor;stroke-opacity:1;" stroke-width="2"/>
    <circle cx="384.86" cy="738.637" r="306.315" transform="rotate(80 384.86 738.637)" stroke="currentColor" style="stroke:currentColor;stroke-opacity:1;" stroke-width="2"/>
    <circle cx="390.635" cy="764.681" r="306.315" transform="rotate(75 390.635 764.681)" stroke="currentColor" style="stroke:currentColor;stroke-opacity:1;" stroke-width="2"/>
    <circle cx="398.656" cy="790.123" r="306.315" transform="rotate(70 398.656 790.123)" stroke="currentColor" style="stroke:currentColor;stroke-opacity:1;" stroke-width="2"/>
    <circle cx="973.342" cy="790.116" r="306.315" transform="rotate(-70 973.342 790.116)" stroke="currentColor" style="stroke:currentColor;stroke-opacity:1;" stroke-width="2"/>
    <circle cx="981.365" cy="764.674" r="306.315" transform="rotate(-75 981.365 764.674)" stroke="currentColor" style="stroke:currentColor;stroke-opacity:1;" stroke-width="2"/>
    <circle cx="987.14" cy="738.63" r="306.315" transform="rotate(-80 987.14 738.63)" stroke="currentColor" style="stroke:currentColor;stroke-opacity:1;" stroke-width="2"/>
    <circle cx="990.622" cy="712.182" r="306.315" transform="rotate(-85 990.622 712.182)" stroke="currentColor" style="stroke:currentColor;stroke-opacity:1;" stroke-width="2"/>
    <circle cx="991.786" cy="685.531" r="306.315" transform="rotate(-90 991.786 685.531)" stroke="currentColor" style="stroke:currentColor;stroke-opacity:1;" stroke-width="2"/>
    <circle cx="990.62" cy="658.88" r="306.315" transform="rotate(-95 990.62 658.88)" stroke="currentColor" style="stroke:currentColor;stroke-opacity:1;" stroke-width="2"/>
    <circle cx="987.136" cy="632.432" r="306.315" transform="rotate(-100 987.136 632.432)" stroke="currentColor" style="stroke:currentColor;stroke-opacity:1;" stroke-width="2"/>
    <circle cx="981.362" cy="606.388" r="306.315" transform="rotate(-105 981.362 606.388)" stroke="currentColor" style="stroke:currentColor;stroke-opacity:1;" stroke-width="2"/>
    <circle cx="973.34" cy="580.946" r="306.315" transform="rotate(-110 973.34 580.946)" stroke="currentColor" style="stroke:currentColor;stroke-opacity:1;" stroke-width="2"/>
    <circle cx="963.131" cy="556.301" r="306.315" transform="rotate(-115 963.131 556.301)" stroke="currentColor" style="stroke:currentColor;stroke-opacity:1;" stroke-width="2"/>
    <circle cx="950.811" cy="532.639" r="306.315" transform="rotate(-120 950.811 532.639)" stroke="currentColor" style="stroke:currentColor;stroke-opacity:1;" stroke-width="2"/>
    <circle cx="936.478" cy="510.141" r="306.315" transform="rotate(-125 936.478 510.141)" stroke="currentColor" style="stroke:currentColor;stroke-opacity:1;" stroke-width="2"/>
    <circle cx="920.238" cy="488.977" r="306.315" transform="rotate(-130 920.238 488.977)" stroke="currentColor" style="stroke:currentColor;stroke-opacity:1;" stroke-width="2"/>
    <circle cx="902.215" cy="469.31" r="306.315" transform="rotate(-135 902.215 469.31)" stroke="currentColor" style="stroke:currentColor;stroke-opacity:1;" stroke-width="2"/>
    <circle cx="882.546" cy="451.288" r="306.315" transform="rotate(-140 882.546 451.288)" stroke="currentColor" style="stroke:currentColor;stroke-opacity:1;" stroke-width="2"/>
    <circle cx="861.384" cy="435.049" r="306.315" transform="rotate(-145 861.384 435.049)" stroke="currentColor" style="stroke:currentColor;stroke-opacity:1;" stroke-width="2"/>
    <circle cx="838.888" cy="420.717" r="306.315" transform="rotate(-150 838.888 420.717)" stroke="currentColor" style="stroke:currentColor;stroke-opacity:1;" stroke-width="2"/>
    <circle cx="815.224" cy="408.399" r="306.315" transform="rotate(-155 815.224 408.399)" stroke="currentColor" style="stroke:currentColor;stroke-opacity:1;" stroke-width="2"/>
    <circle cx="790.58" cy="398.191" r="306.315" transform="rotate(-160 790.58 398.191)" stroke="currentColor" style="stroke:currentColor;stroke-opacity:1;" stroke-width="2"/>
    <circle cx="765.136" cy="390.17" r="306.315" transform="rotate(-165 765.136 390.17)" stroke="currentColor" style="stroke:currentColor;stroke-opacity:1;" stroke-width="2"/>
    <circle cx="739.092" cy="384.396" r="306.315" transform="rotate(-170 739.092 384.396)" stroke="currentColor" style="stroke:currentColor;stroke-opacity:1;" stroke-width="2"/>
    <circle cx="712.643" cy="380.915" r="306.315" transform="rotate(-175 712.643 380.915)" stroke="currentColor" style="stroke:currentColor;stroke-opacity:1;" stroke-width="2"/>
    <circle cx="685.992" cy="379.752" r="306.315" transform="rotate(-180 685.992 379.752)" stroke="currentColor" style="stroke:currentColor;stroke-opacity:1;" stroke-width="2"/>
    <circle cx="659.342" cy="380.916" r="306.315" transform="rotate(175 659.342 380.916)" stroke="currentColor" style="stroke:currentColor;stroke-opacity:1;" stroke-width="2"/>
    <circle cx="632.894" cy="384.398" r="306.315" transform="rotate(170 632.894 384.398)" stroke="currentColor" style="stroke:currentColor;stroke-opacity:1;" stroke-width="2"/>
    <circle cx="606.85" cy="390.173" r="306.315" transform="rotate(165 606.85 390.173)" stroke="currentColor" style="stroke:currentColor;stroke-opacity:1;" stroke-width="2"/>
</g>
</svg>
