<svg width="24" height="24" viewBox="0 0 24 24" fill="none" xmlns="http://www.w3.org/2000/svg">
<path d="M15.9066 13.1853C15.0499 13.1853 14.2818 13.5648 13.7559 14.1624L12.4081 13.2083C12.5512 12.8144 12.6333 12.3914 12.6333 11.9487C12.6333 11.5137 12.554 11.0978 12.4157 10.7097L13.7604 9.76573C14.2863 10.3603 15.0524 10.7378 15.9066 10.7378C17.4879 10.7378 18.7745 9.45133 18.7745 7.86985C18.7745 6.28836 17.4879 5.00191 15.9066 5.00191C14.3253 5.00191 13.0387 6.28836 13.0387 7.86985C13.0387 8.15291 13.0814 8.42587 13.1582 8.68438L11.8126 9.62886C11.2505 8.93151 10.4411 8.44461 9.51898 8.29598V6.67422C10.8181 6.40137 11.7969 5.24713 11.7969 3.86794C11.7969 2.28646 10.5102 1 8.92897 1C7.34771 1 6.06105 2.28646 6.06105 3.86794C6.06105 5.22866 7.01452 6.36866 8.28763 6.66099V8.30382C6.55017 8.6088 5.22461 10.1251 5.22461 11.9487C5.22461 13.7812 6.5633 15.3031 8.3133 15.5977V17.3324C7.02717 17.6151 6.06105 18.7621 6.06105 20.1321C6.06105 21.7135 7.34771 23 8.92897 23C10.5102 23 11.7969 21.7135 11.7969 20.1321C11.7969 18.7621 10.8308 17.6151 9.54465 17.3324V15.5976C10.4304 15.4484 11.2318 14.9824 11.7994 14.2862L13.1562 15.2465C13.0809 15.5027 13.0387 15.773 13.0387 16.0532C13.0387 17.6347 14.3253 18.9211 15.9066 18.9211C17.4879 18.9211 18.7745 17.6347 18.7745 16.0532C18.7745 14.4717 17.4879 13.1853 15.9066 13.1853ZM15.9066 6.47933C16.6734 6.47933 17.297 7.10327 17.297 7.86985C17.297 8.63643 16.6734 9.26031 15.9066 9.26031C15.1398 9.26031 14.5161 8.63643 14.5161 7.86985C14.5161 7.10327 15.1398 6.47933 15.9066 6.47933ZM7.53847 3.86794C7.53847 3.10136 8.16219 2.47748 8.92897 2.47748C9.69576 2.47748 10.3194 3.10136 10.3194 3.86794C10.3194 4.63452 9.69576 5.2584 8.92897 5.2584C8.16219 5.2584 7.53847 4.63452 7.53847 3.86794ZM10.3194 20.1321C10.3194 20.8986 9.69576 21.5225 8.92897 21.5225C8.16219 21.5225 7.53847 20.8986 7.53847 20.1321C7.53847 19.3655 8.16219 18.7416 8.92897 18.7416C9.69576 18.7416 10.3194 19.3655 10.3194 20.1321ZM8.92887 13.8879C7.85943 13.8879 6.98943 13.0181 6.98943 11.9487C6.98943 10.8793 7.85943 10.0093 8.92887 10.0093C9.99825 10.0093 10.8683 10.8793 10.8683 11.9487C10.8683 13.0181 9.99825 13.8879 8.92887 13.8879ZM15.9066 17.4437C15.1398 17.4437 14.5161 16.8198 14.5161 16.0532C14.5161 15.2866 15.1398 14.6627 15.9066 14.6627C16.6734 14.6627 17.297 15.2866 17.297 16.0532C17.297 16.8198 16.6734 17.4437 15.9066 17.4437Z" fill="black"/>
</svg>
