<svg width="24" height="14" viewBox="0 0 24 14" fill="none" xmlns="http://www.w3.org/2000/svg">
<path fill-rule="evenodd" clip-rule="evenodd" d="M5.42483 4.25548L6.24178 2.81518C7.08971 1.32023 8.65211 0.400317 10.3426 0.399994H22.7048C23.1642 0.399994 23.4532 0.895358 23.227 1.29533L22.4151 2.73114C21.5681 4.229 20.0038 5.15151 18.3111 5.15151H5.94672C5.48687 5.15151 5.19795 4.65547 5.42483 4.25548ZM0.772967 12.7046L1.5849 11.2688C2.43219 9.77098 3.99649 8.84848 5.68919 8.84848H13.7207C14.1805 8.84848 14.4694 9.34452 14.2426 9.7445L13.4256 11.1848C12.5777 12.6797 11.015 13.6 9.32449 13.6H1.29524C0.835746 13.6 0.546786 13.1046 0.772967 12.7046Z" fill="#655CE9"/>
</svg>
