<svg width="76" height="24" viewBox="0 0 76 24" fill="none" xmlns="http://www.w3.org/2000/svg">
<path fill-rule="evenodd" clip-rule="evenodd" d="M5.4248 9.25548L6.24175 7.81518C7.08968 6.32023 8.65208 5.40032 10.3426 5.39999H22.7047C23.1642 5.39999 23.4532 5.89536 23.227 6.29533L22.4151 7.73114C21.5681 9.229 20.0038 10.1515 18.3111 10.1515H5.94669C5.48684 10.1515 5.19792 9.65547 5.4248 9.25548ZM0.772936 17.7046L1.58486 16.2688C2.43216 14.771 3.99646 13.8485 5.68916 13.8485H13.7207C14.1805 13.8485 14.4694 14.3445 14.2425 14.7445L13.4256 16.1848C12.5777 17.6797 11.0149 18.6 9.32446 18.6H1.29521C0.835715 18.6 0.546756 18.1046 0.772936 17.7046Z" fill="#766CF9"/>
<path d="M74.5009 18H72.5649V6.09601H74.5009V18Z" fill="#D8D9DB"/>
<path d="M67.4827 18.208C66.704 18.208 66.0107 18.032 65.4027 17.68C64.8053 17.3174 64.336 16.8267 63.9947 16.208C63.6533 15.5787 63.4827 14.8587 63.4827 14.048C63.4827 13.2267 63.648 12.5014 63.9787 11.872C64.3093 11.2427 64.7733 10.752 65.3707 10.4C65.968 10.0374 66.6507 9.85602 67.4187 9.85602C68.2187 9.85602 68.9067 10.0267 69.4827 10.368C70.0587 10.6987 70.5013 11.1627 70.8107 11.76C71.1307 12.3574 71.2907 13.072 71.2907 13.904V14.496L64.5067 14.512L64.5387 13.264H69.3547C69.3547 12.72 69.1787 12.2827 68.8267 11.952C68.4853 11.6214 68.0213 11.456 67.4347 11.456C66.976 11.456 66.5867 11.552 66.2667 11.744C65.9573 11.936 65.7227 12.224 65.5627 12.608C65.4027 12.992 65.3227 13.4614 65.3227 14.016C65.3227 14.8694 65.504 15.5147 65.8667 15.952C66.24 16.3894 66.7893 16.608 67.5147 16.608C68.048 16.608 68.4853 16.5067 68.8267 16.304C69.1787 16.1014 69.408 15.8134 69.5147 15.44H71.3227C71.152 16.304 70.7253 16.9814 70.0427 17.472C69.3707 17.9627 68.5173 18.208 67.4827 18.208Z" fill="#D8D9DB"/>
<path d="M56.7967 18H54.8447V10.096H56.6527L56.8127 11.12C57.0581 10.7254 57.4047 10.416 57.8527 10.192C58.3114 9.96802 58.8074 9.85602 59.3407 9.85602C60.3327 9.85602 61.0794 10.1494 61.5807 10.736C62.0927 11.3227 62.3487 12.1227 62.3487 13.136V18H60.3967V13.6C60.3967 12.9387 60.2474 12.448 59.9487 12.128C59.6501 11.7974 59.2447 11.632 58.7327 11.632C58.1247 11.632 57.6501 11.824 57.3087 12.208C56.9674 12.592 56.7967 13.104 56.7967 13.744V18Z" fill="#D8D9DB"/>
<path d="M47.6949 18H45.7429V10.096H47.5509L47.7109 11.12C47.9563 10.7254 48.3029 10.416 48.7509 10.192C49.2096 9.96802 49.7056 9.85602 50.2389 9.85602C51.2309 9.85602 51.9776 10.1494 52.4789 10.736C52.9909 11.3227 53.2469 12.1227 53.2469 13.136V18H51.2949V13.6C51.2949 12.9387 51.1456 12.448 50.8469 12.128C50.5483 11.7974 50.1429 11.632 49.6309 11.632C49.0229 11.632 48.5483 11.824 48.2069 12.208C47.8656 12.592 47.6949 13.104 47.6949 13.744V18Z" fill="#D8D9DB"/>
<path d="M40.6926 18.208C39.914 18.208 39.2206 18.032 38.6126 17.68C38.0153 17.3174 37.546 16.8267 37.2046 16.208C36.8633 15.5787 36.6926 14.8587 36.6926 14.048C36.6926 13.2267 36.858 12.5014 37.1886 11.872C37.5193 11.2427 37.9833 10.752 38.5806 10.4C39.178 10.0374 39.8606 9.85602 40.6286 9.85602C41.4286 9.85602 42.1166 10.0267 42.6926 10.368C43.2686 10.6987 43.7113 11.1627 44.0206 11.76C44.3406 12.3574 44.5006 13.072 44.5006 13.904V14.496L37.7166 14.512L37.7486 13.264H42.5646C42.5646 12.72 42.3886 12.2827 42.0366 11.952C41.6953 11.6214 41.2313 11.456 40.6446 11.456C40.186 11.456 39.7966 11.552 39.4766 11.744C39.1673 11.936 38.9326 12.224 38.7726 12.608C38.6126 12.992 38.5326 13.4614 38.5326 14.016C38.5326 14.8694 38.714 15.5147 39.0766 15.952C39.45 16.3894 39.9993 16.608 40.7246 16.608C41.258 16.608 41.6953 16.5067 42.0366 16.304C42.3886 16.1014 42.618 15.8134 42.7246 15.44H44.5326C44.362 16.304 43.9353 16.9814 43.2526 17.472C42.5806 17.9627 41.7273 18.208 40.6926 18.208Z" fill="#D8D9DB"/>
<path d="M31.3439 6.30402V18H29.2959V6.30402H31.3439ZM36.5279 8.19202H29.4559V6.30402H36.5279V8.19202ZM35.6959 13.216H29.4239V11.376H35.6959V13.216Z" fill="#D8D9DB"/>
</svg>
