<svg width="76" height="24" viewBox="0 0 76 24" fill="none" xmlns="http://www.w3.org/2000/svg">
<path fill-rule="evenodd" clip-rule="evenodd" d="M5.42483 9.25548L6.24178 7.81518C7.08971 6.32023 8.65211 5.40032 10.3426 5.39999H22.7048C23.1642 5.39999 23.4532 5.89536 23.227 6.29533L22.4151 7.73114C21.5681 9.229 20.0038 10.1515 18.3111 10.1515H5.94672C5.48687 10.1515 5.19795 9.65547 5.42483 9.25548ZM0.772967 17.7046L1.5849 16.2688C2.43219 14.771 3.99649 13.8485 5.68919 13.8485H13.7207C14.1805 13.8485 14.4694 14.3445 14.2426 14.7445L13.4256 16.1848C12.5777 17.6797 11.015 18.6 9.32449 18.6H1.29524C0.835746 18.6 0.546786 18.1046 0.772967 17.7046Z" fill="#655CE9"/>
<path d="M74.501 18H72.565V6.09601H74.501V18Z" fill="#1F2229"/>
<path d="M67.4827 18.208C66.7041 18.208 66.0108 18.032 65.4028 17.68C64.8054 17.3174 64.3361 16.8267 63.9948 16.208C63.6534 15.5787 63.4827 14.8587 63.4827 14.048C63.4827 13.2267 63.6481 12.5014 63.9788 11.872C64.3094 11.2427 64.7734 10.752 65.3708 10.4C65.9681 10.0374 66.6508 9.85602 67.4188 9.85602C68.2188 9.85602 68.9068 10.0267 69.4827 10.368C70.0588 10.6987 70.5014 11.1627 70.8108 11.76C71.1308 12.3574 71.2908 13.072 71.2908 13.904V14.496L64.5068 14.512L64.5387 13.264H69.3548C69.3548 12.72 69.1788 12.2827 68.8268 11.952C68.4854 11.6214 68.0214 11.456 67.4348 11.456C66.9761 11.456 66.5868 11.552 66.2668 11.744C65.9574 11.936 65.7228 12.224 65.5628 12.608C65.4028 12.992 65.3228 13.4614 65.3228 14.016C65.3228 14.8694 65.5041 15.5147 65.8668 15.952C66.2401 16.3894 66.7894 16.608 67.5148 16.608C68.0481 16.608 68.4854 16.5067 68.8268 16.304C69.1788 16.1014 69.4081 15.8134 69.5148 15.44H71.3228C71.1521 16.304 70.7254 16.9814 70.0428 17.472C69.3708 17.9627 68.5174 18.208 67.4827 18.208Z" fill="#1F2229"/>
<path d="M56.7969 18H54.8449V10.096H56.6529L56.8129 11.12C57.0582 10.7254 57.4049 10.416 57.8529 10.192C58.3115 9.96802 58.8075 9.85602 59.3409 9.85602C60.3329 9.85602 61.0795 10.1494 61.5809 10.736C62.0929 11.3227 62.3489 12.1227 62.3489 13.136V18H60.3969V13.6C60.3969 12.9387 60.2475 12.448 59.9489 12.128C59.6502 11.7974 59.2449 11.632 58.7329 11.632C58.1249 11.632 57.6502 11.824 57.3089 12.208C56.9675 12.592 56.7969 13.104 56.7969 13.744V18Z" fill="#1F2229"/>
<path d="M47.695 18H45.743V10.096H47.551L47.711 11.12C47.9563 10.7254 48.303 10.416 48.751 10.192C49.2097 9.96802 49.7057 9.85602 50.239 9.85602C51.231 9.85602 51.9777 10.1494 52.479 10.736C52.991 11.3227 53.247 12.1227 53.247 13.136V18H51.295V13.6C51.295 12.9387 51.1457 12.448 50.847 12.128C50.5483 11.7974 50.143 11.632 49.631 11.632C49.023 11.632 48.5483 11.824 48.207 12.208C47.8657 12.592 47.695 13.104 47.695 13.744V18Z" fill="#1F2229"/>
<path d="M40.6927 18.208C39.9141 18.208 39.2208 18.032 38.6128 17.68C38.0154 17.3174 37.5461 16.8267 37.2047 16.208C36.8634 15.5787 36.6927 14.8587 36.6927 14.048C36.6927 13.2267 36.8581 12.5014 37.1887 11.872C37.5194 11.2427 37.9834 10.752 38.5807 10.4C39.1781 10.0374 39.8607 9.85602 40.6287 9.85602C41.4287 9.85602 42.1168 10.0267 42.6927 10.368C43.2688 10.6987 43.7114 11.1627 44.0207 11.76C44.3407 12.3574 44.5008 13.072 44.5008 13.904V14.496L37.7167 14.512L37.7487 13.264H42.5647C42.5647 12.72 42.3887 12.2827 42.0367 11.952C41.6954 11.6214 41.2314 11.456 40.6447 11.456C40.1861 11.456 39.7967 11.552 39.4767 11.744C39.1674 11.936 38.9327 12.224 38.7727 12.608C38.6127 12.992 38.5327 13.4614 38.5327 14.016C38.5327 14.8694 38.7141 15.5147 39.0767 15.952C39.4501 16.3894 39.9994 16.608 40.7247 16.608C41.2581 16.608 41.6954 16.5067 42.0367 16.304C42.3887 16.1014 42.6181 15.8134 42.7247 15.44H44.5328C44.3621 16.304 43.9354 16.9814 43.2527 17.472C42.5807 17.9627 41.7274 18.208 40.6927 18.208Z" fill="#1F2229"/>
<path d="M31.344 6.30402V18H29.296V6.30402H31.344ZM36.528 8.19202H29.456V6.30402H36.528V8.19202ZM35.696 13.216H29.424V11.376H35.696V13.216Z" fill="#1F2229"/>
</svg>
