<svg width="24" height="24" viewBox="0 0 24 24" fill="none" xmlns="http://www.w3.org/2000/svg">
<path fill-rule="evenodd" clip-rule="evenodd" d="M5.59429 8.95684L6.24184 7.81521C7.08977 6.32027 8.65216 5.40035 10.3426 5.40002H22.3619C22.9746 5.40002 23.3599 6.06051 23.0583 6.59381L22.4152 7.73117C21.5682 9.22903 20.0039 10.1515 18.3112 10.1515H6.29015C5.67702 10.1515 5.29179 9.49015 5.59429 8.95684ZM0.941714 17.4062L1.58488 16.2689C2.43217 14.771 3.99647 13.8485 5.68917 13.8485H13.3773C13.9904 13.8485 14.3756 14.5099 14.0731 15.0432L13.4256 16.1848C12.5777 17.6798 11.015 18.6 9.32447 18.6H1.63808C1.02542 18.6 0.64014 17.9395 0.941714 17.4062Z" fill="currentColor"/>
</svg>
