<svg width="40" height="40" viewBox="0 0 40 40" fill="none" xmlns="http://www.w3.org/2000/svg">
<path fill-rule="evenodd" clip-rule="evenodd" d="M9.04139 15.4258L10.403 13.0253C11.8162 10.5337 14.4202 9.00054 17.2377 9H37.8413C38.6071 9 39.0887 9.82561 38.7117 10.4922L37.3585 12.8853C35.9469 15.3817 33.3397 16.9192 30.5186 16.9192H9.91121C9.1448 16.9192 8.66327 16.0925 9.04139 15.4258ZM1.28829 29.5078L2.6415 27.1147C4.05367 24.6183 6.66082 23.0808 9.48199 23.0808H22.8678C23.6342 23.0808 24.1158 23.9075 23.7376 24.5742L22.376 26.9747C20.9628 29.4663 18.3583 31 15.5408 31H2.15875C1.39292 31 0.91132 30.1744 1.28829 29.5078Z" fill="#1F2229"/>
</svg>
