<svg width="14" height="14" viewBox="0 0 14 14" fill="none" xmlns="http://www.w3.org/2000/svg">
<path d="M6.99967 0.333344C3.31778 0.333344 0.333008 3.31811 0.333008 7.00001C0.333008 10.6819 3.31778 13.6667 6.99967 13.6667C10.6816 13.6667 13.6663 10.6819 13.6663 7.00001C13.6663 6.95459 13.6659 6.9093 13.665 6.86412C13.6613 6.6791 13.5557 6.51125 13.3905 6.42782C13.2253 6.34439 13.0275 6.35903 12.8764 6.46586C12.252 6.90736 11.4902 7.16668 10.6663 7.16668C8.54925 7.16668 6.83301 5.45043 6.83301 3.33334C6.83301 2.50951 7.09232 1.74773 7.53383 1.12325C7.64066 0.972138 7.65529 0.774379 7.57186 0.609192C7.48843 0.444005 7.32059 0.338408 7.13557 0.334703C7.09037 0.333798 7.04507 0.333344 6.99967 0.333344Z" fill="#4B4E57"/>
</svg>
