<svg width="22" height="28" viewBox="0 0 22 28" fill="none" xmlns="http://www.w3.org/2000/svg">
<path fill-rule="evenodd" clip-rule="evenodd" d="M5.67503 1.73641C5.69097 1.74704 5.70697 1.7577 5.72301 1.7684L19.788 11.145C20.195 11.4163 20.5723 11.6678 20.8621 11.9015C21.1645 12.1454 21.5211 12.4837 21.7263 12.9785C21.9975 13.6325 21.9975 14.3675 21.7263 15.0215C21.5211 15.5163 21.1645 15.8546 20.8621 16.0985C20.5723 16.3322 20.195 16.5837 19.7881 16.8549L5.67508 26.2636C5.17763 26.5952 4.73033 26.8935 4.35077 27.0992C3.97095 27.305 3.44961 27.5402 2.84111 27.5039C2.06277 27.4574 1.34376 27.0726 0.873352 26.4508C0.505588 25.9646 0.412107 25.4004 0.372689 24.9702C0.3333 24.5403 0.333336 24.0027 0.333377 23.4048L0.333379 4.65284C0.333379 4.63356 0.333378 4.61434 0.333377 4.59518C0.333336 3.99732 0.3333 3.45972 0.372689 3.02982C0.412107 2.59962 0.505588 2.03536 0.873352 1.54921C1.34376 0.92737 2.06277 0.54257 2.84111 0.496097C3.44961 0.459765 3.97095 0.694979 4.35077 0.900818C4.73032 1.10651 5.17761 1.40474 5.67503 1.73641Z" fill="#453AA6"/>
</svg>
