<svg width="17" height="22" viewBox="0 0 17 22" fill="none" xmlns="http://www.w3.org/2000/svg">
<path fill-rule="evenodd" clip-rule="evenodd" d="M4.00625 1.80218C4.0182 1.81015 4.03019 1.81815 4.04222 1.82617L14.591 8.85866C14.8962 9.0621 15.1792 9.25073 15.3965 9.42602C15.6234 9.60896 15.8908 9.86263 16.0447 10.2337C16.2481 10.7242 16.2481 11.2755 16.0447 11.766C15.8908 12.1371 15.6234 12.3908 15.3965 12.5737C15.1792 12.749 14.8962 12.9376 14.591 13.1411L4.00628 20.1975C3.63319 20.4463 3.29772 20.67 3.01305 20.8243C2.72818 20.9786 2.33717 21.1551 1.8808 21.1278C1.29705 21.0929 0.757793 20.8043 0.404984 20.338C0.12916 19.9734 0.0590496 19.5502 0.0294864 19.2275C-5.5423e-05 18.9051 -2.82425e-05 18.5019 1.91746e-06 18.0535L3.82481e-06 3.9895C3.82481e-06 3.97504 2.87113e-06 3.96063 1.91746e-06 3.94626C-2.82425e-05 3.49786 -5.5423e-05 3.09466 0.0294864 2.77224C0.0590496 2.44959 0.12916 2.02639 0.404984 1.66178C0.757793 1.1954 1.29705 0.906801 1.8808 0.871947C2.33717 0.844698 2.72818 1.02111 3.01305 1.17549C3.29771 1.32975 3.63317 1.55343 4.00625 1.80218Z" fill="#F0F0FF"/>
</svg>
