<svg width="24" height="24" viewBox="0 0 24 24" fill="none" xmlns="http://www.w3.org/2000/svg">
<path d="M16.9541 2.22949C16.7109 2.22949 16.623 2.24121 16.5146 2.25C16.5088 2.25 16.5059 2.25 16.5 2.25C14.3437 2.25 13.5 3 13.5 3C13.5059 3.00586 13.5146 3.00879 13.5205 3.01465C13.415 3.00879 13.3184 3 13.21 2.99707C13.2012 2.99707 13.1924 2.99707 13.1836 2.99707C12.5185 2.99707 11.874 3.10254 11.2676 3.28711C10.7197 2.99707 9.85839 2.64551 8.71874 2.4375C8.2207 2.32324 7.64648 2.24414 6.99316 2.24414C6.91405 2.24414 6.83495 2.24707 6.75585 2.25C6.75292 2.25 6.75292 2.25 6.74999 2.25C6.73241 2.25 6.71484 2.25 6.69726 2.25C5.56054 2.29102 4.26855 2.46973 3.32226 3.50391C2.50488 4.39453 2.15331 5.72754 2.24999 7.5791C2.28808 8.24414 2.54296 10.3975 3.07616 12.46C3.60644 14.5166 4.56738 17.25 6.74999 17.25C7.79003 17.25 9.34863 16.957 10.4941 16.3008C10.4971 16.3008 10.5 16.2979 10.5 16.2979C10.5029 16.5879 10.5029 16.7754 10.5 17.2383C10.5 17.2764 10.5 17.3174 10.5029 17.3555L10.5381 17.8359C10.5703 18.2256 10.6025 18.6328 10.6025 18.8496C10.6025 20.3672 12.1406 21.75 13.8281 21.75C15.4746 21.75 17.25 20.4844 17.25 17.71V16.5322C17.3613 16.5293 17.5371 16.5293 17.5371 16.5293C18.0937 16.5586 18.8262 16.377 19.2539 16.1484C20.1768 15.6504 20.6807 14.877 19.7695 15.0938C19.3301 15.1992 19.0019 15.2285 18.7236 15.2314C19.3623 14.8066 20.0332 14.0654 20.5928 12.7793C21.709 10.2129 22.1748 5.72168 21.1201 4.13965C20.0156 2.47852 18.0351 2.22949 16.9541 2.22949ZM16.9541 3.72949C17.6924 3.72949 19.1484 3.87891 19.875 4.96875C20.6338 6.11426 20.1445 11.4844 18.4219 13.4971C18.5859 13.1865 18.706 12.7266 18.75 12C18.75 11.376 18.7148 9.28711 18.75 9C18.7969 8.61035 18.7646 7.91309 18.75 7.5C18.7617 7.44434 18.7617 7.38574 18.7617 7.31836C18.7617 6.62402 18.5127 6.01465 18.1875 5.49316C18.1611 5.44336 18.1318 5.39355 18.0996 5.34375C18.0703 5.2998 18.0439 5.25586 18.0146 5.21484C17.7773 4.85742 17.4726 4.51758 17.0889 4.20996C16.7578 3.91992 16.5 3.75 16.5 3.75C16.5 3.75 16.6758 3.72949 16.9541 3.72949ZM6.99316 3.74414C7.9746 3.74414 8.73046 3.95801 9.40136 4.20703C9.3164 4.26855 9.22851 4.33301 9.14941 4.40039C8.44921 4.8252 8.03027 5.42871 7.79296 6.13477C7.60546 6.56836 7.49999 7.02832 7.49999 7.5C7.49999 7.55566 7.50878 7.6084 7.51464 7.66406C7.50585 7.85742 7.49999 8.05371 7.49999 8.25V8.25293C7.49999 8.25879 7.49999 8.26172 7.49999 8.26465C7.49999 8.33203 7.52343 8.44922 7.52343 8.61035C7.52343 9.375 7.49999 11.0332 7.49999 12C7.49999 13.6494 9.26367 15.0029 9.72363 15.0029C9.73242 15.0029 9.7412 15.0029 9.74999 15C8.87402 15.501 7.56152 15.75 6.74999 15.75C4.76073 15.75 3.81445 8.72754 3.74999 7.5C3.57714 4.22754 4.98339 3.81152 6.74999 3.75C6.83202 3.74707 6.91405 3.74414 6.99316 3.74414ZM13.1836 4.49707C14.499 4.51758 15.4101 4.83984 16.0312 5.28516C16.2891 5.49609 16.623 5.82129 16.8896 6.22852C17.1445 6.68262 17.25 7.14258 17.25 7.5C16.3066 7.5791 15.5215 7.62012 15.1728 8.17383C14.3789 9.43945 14.9736 11.5781 15.5303 12.5391C15.5889 12.6445 16.2393 13.2568 16.5 13.5C16.5937 13.5879 16.1543 13.708 16.0664 13.8018C15.8144 14.0625 15.8174 14.8506 15.7646 15.7383C15.7559 15.7471 15.75 15.75 15.75 15.75C15.75 15.75 15.7529 15.832 15.7588 15.9463C15.7559 16.0312 15.75 16.1074 15.75 16.1982V17.71C15.75 19.5938 14.7012 20.25 13.8281 20.25C12.8994 20.25 12.1025 19.4912 12.1025 18.8496C12.1025 18.4717 12.041 17.8271 12 17.25C12.0088 15.917 12 15.4336 12 15C12 14.5811 11.25 14.25 11.25 14.25C11.3437 14.0303 11.6484 13.582 11.6484 13.582C11.874 13.0137 11.9941 12.4746 12 11.25C12.0029 10.6904 11.9268 10.0811 11.7685 9.38379C11.5518 8.43164 10.831 7.50879 9.74999 7.5H9.03515C9.06445 7.19531 9.11132 6.94336 9.17577 6.72949C9.36913 6.28711 9.72363 5.87109 10.1777 5.51953C10.2832 5.45801 10.3828 5.39649 10.4678 5.31445C11.2207 4.8252 12.1758 4.49707 13.1836 4.49707ZM9.0205 9H9.06152C9.04394 9.02051 9.02343 9.03809 9.0205 9.05859C9.0205 9.04102 9.01757 9.01758 9.0205 9ZM17.25 9.00586H17.2529C17.2353 9.28711 17.2295 9.76758 17.2441 11.2002C17.2471 11.5342 17.25 11.8242 17.25 12C17.25 12.0645 17.2588 12.0967 17.2646 12.1523C17.0742 11.9736 16.8603 11.7715 16.7666 11.6748C16.4883 11.1387 16.3008 10.3594 16.2978 9.73828C16.3652 9.75 16.4355 9.75293 16.5088 9.74121C16.9394 9.68262 17.2705 9.23438 17.25 9.06738C17.2471 9.04395 17.2236 9.0293 17.209 9.01172C17.2236 9.00879 17.2353 9.00586 17.25 9.00586ZM9.0205 9.10254C9.02636 9.28711 9.33691 9.69141 9.74999 9.75C9.95214 9.7793 10.1279 9.70605 10.2744 9.61524C10.2832 9.64746 10.2978 9.68262 10.3037 9.71484C10.4385 10.2979 10.5029 10.7988 10.5 11.2441C10.4971 12.1963 10.415 12.583 10.3037 12.8906C10.1953 13.0605 10.0693 13.2744 9.96386 13.4766C9.62109 13.2363 8.99999 12.5918 8.99999 12C8.99999 11.4902 9.00585 10.79 9.01171 10.1309C9.01464 9.72656 9.01757 9.42188 9.0205 9.10254Z" fill="black"/>
</svg>
