<svg width="24" height="24" viewBox="0 0 24 24" fill="none" xmlns="http://www.w3.org/2000/svg">
<path d="M10 2C8.25 2 7 3.25 7 5V7H12V8H5C3.1875 8 2 9.28125 2 11V14C2 15.7812 3.1875 17 5 17H7V13C7 11.8984 7.89844 11 9 11H14C15.1016 11 16 10.1016 16 9V5C16 3.25 14.7812 2 13 2H10ZM9 4C9.55078 4 10 4.44922 10 5C10 5.55078 9.55078 6 9 6C8.44922 6 8 5.55078 8 5C8 4.44922 8.44922 4 9 4ZM17 6V10C17 11.1016 16.1016 12 15 12H10C8.89844 12 8 12.8984 8 14V18C8 19.75 9.21875 21 11 21H14C15.75 21 17 19.75 17 18V16H12V15H19C20.8125 15 22 13.7188 22 12V9C22 7.21875 20.8125 6 19 6H17ZM15 17C15.5508 17 16 17.4492 16 18C16 18.5508 15.5508 19 15 19C14.4492 19 14 18.5508 14 18C14 17.4492 14.4492 17 15 17Z" fill="black"/>
</svg>
