<svg width="24" height="24" viewBox="0 0 24 24" fill="none" xmlns="http://www.w3.org/2000/svg">
<path fill-rule="evenodd" clip-rule="evenodd" d="M21.8442 10.5701L19.3579 12.0015L21.8442 13.4284C22.4722 13.7893 22.6861 14.5865 22.3236 15.2116C21.961 15.8337 21.16 16.0466 20.5351 15.6872L16.0813 13.1279C15.784 12.9558 15.5777 12.687 15.4867 12.3835C15.4427 12.2446 15.423 12.1012 15.4275 11.9592C15.4306 11.8565 15.4457 11.7539 15.4731 11.6512C15.5625 11.3326 15.7703 11.0473 16.0798 10.8676L20.5321 8.31128C21.157 7.9519 21.9595 8.16481 22.3205 8.78989C22.6861 9.41352 22.4722 10.2092 21.8442 10.5701ZM19.4899 17.5051L15.0392 14.9504C14.7995 14.8115 14.5356 14.7586 14.2807 14.7797C13.6011 14.8281 13.0687 15.3928 13.0687 16.0798V21.1954C13.0687 21.9172 13.6527 22.5 14.3778 22.5C15.1029 22.5 15.6884 21.9157 15.6884 21.1954V18.3341L18.1807 19.7655C18.8073 20.1279 19.6083 19.9135 19.9692 19.2899C20.3303 18.6663 20.1179 17.866 19.4899 17.5051ZM14.3535 12.5013L12.5029 14.3404C12.4498 14.3947 12.3482 14.4385 12.2708 14.4385H12.1373H11.8642H11.7277C11.6534 14.4385 11.5487 14.3947 11.4956 14.3404L9.64495 12.5013C9.59185 12.4499 9.54936 12.3458 9.54936 12.2718V12.1359V11.8641V11.7298C9.54936 11.6542 9.59185 11.5501 9.64495 11.4972L11.4941 9.65811C11.5472 9.60377 11.6519 9.56151 11.7262 9.56151H11.8627H12.1358H12.2708C12.3466 9.56151 12.4498 9.60377 12.5029 9.65811L14.3535 11.4972C14.4066 11.5501 14.4491 11.6542 14.4491 11.7298V11.8641V12.1359V12.2718C14.4491 12.3443 14.4066 12.4484 14.3535 12.5013ZM12.8745 11.9909C12.8745 11.917 12.829 11.8128 12.7759 11.7584L12.2404 11.2269C12.1873 11.174 12.0842 11.1303 12.0083 11.1303H11.9871C11.9128 11.1303 11.8081 11.174 11.7565 11.2269L11.2211 11.7584C11.168 11.8128 11.127 11.917 11.127 11.9909V12.0121C11.127 12.086 11.168 12.1887 11.2211 12.2416L11.7565 12.7746C11.8096 12.8275 11.9128 12.8712 11.9871 12.8712H12.0083C12.0827 12.8712 12.1873 12.8275 12.2404 12.7746L12.7759 12.2416C12.829 12.1887 12.8745 12.086 12.8745 12.0121V11.9909ZM4.50857 6.49181L8.96077 9.04963C9.20047 9.18698 9.46595 9.24139 9.72081 9.22026C10.3989 9.17038 10.9328 8.60568 10.9328 7.91868V2.80306C10.9328 2.08434 10.3458 1.5 9.62367 1.5C8.89863 1.5 8.31309 2.08434 8.31309 2.80306V5.66587L5.81921 4.23145C5.19423 3.87058 4.39328 4.08499 4.03073 4.70858C3.66818 5.3352 3.88207 6.13093 4.50857 6.49181ZM14.2807 9.22026C14.5356 9.24139 14.801 9.18698 15.0392 9.04963L19.4899 6.49181C20.1164 6.13093 20.3303 5.33369 19.9692 4.70858C19.6083 4.08499 18.8073 3.87209 18.1807 4.23145L15.6884 5.66587V2.80306C15.6884 2.08434 15.1029 1.5 14.3778 1.5C13.6527 1.5 13.0687 2.08434 13.0687 2.80306V7.91868C13.0671 8.60568 13.6011 9.17038 14.2807 9.22026ZM9.72081 14.7797C9.46445 14.7586 9.19898 14.8115 8.96077 14.9504L4.50857 17.5051C3.88207 17.866 3.66818 18.6663 4.02922 19.2899C4.39176 19.912 5.19271 20.1264 5.81769 19.7655L8.31153 18.3341V21.1954C8.31153 21.9172 8.89707 22.5 9.62217 22.5C10.3442 22.5 10.9313 21.9157 10.9313 21.1954V16.0798C10.9328 15.3928 10.3989 14.8281 9.72081 14.7797ZM8.5133 12.3835C8.55729 12.2446 8.57551 12.1012 8.57245 11.9592C8.56789 11.8565 8.55423 11.7539 8.5254 11.6512C8.43743 11.3326 8.22811 11.0473 7.91562 10.8676L3.46643 8.31128C2.83841 7.9519 2.03747 8.16481 1.67795 8.78989C1.31389 9.41352 1.52929 10.2092 2.15731 10.5701L4.64358 12.0015L2.15579 13.4284C1.52777 13.7893 1.31389 14.5865 1.67643 15.2116C2.03747 15.8337 2.8369 16.0466 3.46491 15.6872L7.91411 13.1279C8.21595 12.9573 8.41928 12.687 8.5133 12.3835Z" fill="black"/>
</svg>
