<svg width="223" height="96" viewBox="0 0 223 96" fill="none" xmlns="http://www.w3.org/2000/svg">
<path d="M26.216 80.5921C27.7843 82.7303 29.827 84.4437 32.3424 85.7324C34.8584 87.0201 37.658 87.6649 40.7416 87.6649C43.4463 87.6649 45.7452 87.2666 47.6394 86.4725C49.5326 85.6768 51.0603 84.5939 52.2242 83.224C53.3872 81.8525 54.2252 80.2494 54.7401 78.4123C55.2534 76.5752 55.5109 74.6153 55.5109 72.5327V65.6242H55.3488C53.6168 68.2554 51.5066 70.1206 49.0189 71.2167C46.53 72.3136 43.9065 72.8613 41.1473 72.8613C38.3883 72.8613 35.8044 72.3676 33.3978 71.381C30.9895 70.3936 28.8936 69.037 27.1084 67.3103C25.3232 65.5827 23.9158 63.5141 22.8887 61.1004C21.8604 58.6883 21.3467 56.0837 21.3467 53.2875C21.3467 50.4913 21.8338 47.8874 22.8076 45.474C23.7811 43.062 25.1201 40.9507 26.8243 39.1414C28.5285 37.3321 30.5572 35.9211 32.9106 34.9059C35.2641 33.892 37.8471 33.3842 40.6606 33.3842C41.7966 33.3842 43.0001 33.495 44.2715 33.7132C45.5422 33.9331 46.8141 34.3172 48.0855 34.8649C49.3562 35.4133 50.6142 36.1676 51.859 37.1263C53.103 38.0864 54.2656 39.3057 55.3488 40.7864H55.5109V34.3711H60.867V72.5328C60.867 74.6155 60.6095 76.8358 60.0958 79.194C59.5812 81.5506 58.5807 83.7179 57.0935 85.6909C55.6047 87.665 53.5353 89.3103 50.8856 90.6263C48.2341 91.9415 44.7714 92.5994 40.4981 92.5994C36.7107 92.5994 33.329 91.9688 30.3546 90.7084C27.3786 89.4463 24.6739 87.5005 22.2395 84.8686L26.216 80.5921ZM27.1894 53.1231C27.1894 55.1519 27.5546 57.0578 28.2853 58.8384C29.0156 60.6208 30.016 62.184 31.2875 63.5265C32.5582 64.8708 34.0466 65.9403 35.7508 66.7344C37.4549 67.5294 39.3077 67.9267 41.3099 67.9267C43.2572 67.9267 45.11 67.5708 46.8686 66.8571C48.6259 66.1453 50.1819 65.1446 51.5345 63.856C52.8861 62.5682 53.9284 61.0182 54.6591 59.2085C55.3893 57.3997 55.7266 55.3717 55.6734 53.1231C55.6734 51.0948 55.3488 49.1892 54.6996 47.407C54.0503 45.6259 53.103 44.0631 51.859 42.7189C50.6142 41.376 49.1 40.3068 47.3147 39.5115C45.5296 38.7173 43.5274 38.3192 41.3099 38.3192C39.3077 38.3192 37.4549 38.7174 35.7508 39.5115C34.0466 40.3068 32.5582 41.376 31.2875 42.7189C30.0161 44.0632 29.0156 45.6259 28.2853 47.4069C27.5546 49.1893 27.1894 51.0948 27.1894 53.1231ZM82.6956 72.8613H76.8529V14.6327H94.5433C100.386 14.6327 104.998 15.9216 108.38 18.498C111.76 21.076 113.452 24.9684 113.452 30.1768C113.452 34.235 112.194 37.6483 109.678 40.4163C107.162 43.1857 103.523 44.7891 98.7634 45.2272L115.318 72.8613H108.177L92.4334 45.8031H82.6956V72.8613ZM82.6956 40.3749H93.0827C95.6797 40.3749 97.8832 40.1015 99.6963 39.5525C101.509 39.0053 102.955 38.2776 104.038 37.3732C105.12 36.4684 105.905 35.3992 106.391 34.1658C106.878 32.932 107.122 31.6031 107.122 30.1768C107.122 28.8068 106.878 27.5037 106.391 26.2703C105.905 25.0365 105.12 23.9545 104.038 23.0214C102.955 22.09 101.509 21.364 99.6963 20.8421C97.8832 20.3218 95.6796 20.0609 93.0827 20.0609H82.6956V40.3749ZM125.379 14.6326H142.097C147.939 14.6326 152.551 15.9216 155.932 18.498C159.313 21.076 161.004 24.9684 161.004 30.1768C161.004 35.3863 159.313 39.2929 155.932 41.8966C152.551 44.5012 147.939 45.8031 142.097 45.8031H131.223V72.8613H125.379L125.379 14.6326ZM131.223 40.3749H140.636C143.232 40.3749 145.436 40.1015 147.25 39.5525C149.062 39.0053 150.508 38.2776 151.591 37.3732C152.673 36.4684 153.457 35.3992 153.945 34.1658C154.432 32.932 154.675 31.6031 154.675 30.1768C154.675 28.8068 154.432 27.5037 153.945 26.2703C153.457 25.0365 152.673 23.9545 151.591 23.0214C150.508 22.09 149.062 21.364 147.25 20.8421C145.436 20.3218 143.232 20.0609 140.636 20.0609H131.223V40.3749ZM219.674 63.6502C218.701 65.1305 217.497 66.5287 216.064 67.8447C214.629 69.1606 212.993 70.299 211.154 71.2573C209.314 72.2174 207.326 72.9708 205.19 73.5193C203.052 74.0669 200.793 74.3415 198.413 74.3415C194.139 74.3415 190.177 73.5733 186.525 72.039C182.873 70.5048 179.709 68.379 177.031 65.6648C174.353 62.9507 172.255 59.7304 170.741 56.0015C169.226 52.2735 168.469 48.1882 168.469 43.747C168.469 39.3057 169.226 35.2221 170.741 31.4928C172.255 27.7647 174.353 24.5431 177.031 21.8291C179.709 19.115 182.873 16.9907 186.525 15.4553C190.177 13.9207 194.139 13.1523 198.413 13.1523C201.984 13.1523 205.555 13.8655 209.125 15.2906C212.696 16.717 215.752 19.0738 218.295 22.3638L213.183 26.2292C212.587 25.2974 211.775 24.3656 210.748 23.4329C209.72 22.5011 208.543 21.6789 207.218 20.9657C205.892 20.2538 204.472 19.6779 202.958 19.2386C201.442 18.8 199.928 18.5806 198.413 18.5806C194.734 18.5806 191.434 19.2668 188.513 20.6367C185.592 22.0078 183.117 23.8441 181.088 26.1466C179.059 28.4496 177.503 31.1227 176.422 34.1658C175.339 37.2085 174.799 40.4034 174.799 43.747C174.799 47.0921 175.339 50.2854 176.422 53.3281C177.503 56.3716 179.059 59.0442 181.088 61.3468C183.117 63.6502 185.592 65.4873 188.513 66.8572C191.434 68.2288 194.734 68.9132 198.413 68.9132C199.928 68.9132 201.428 68.7772 202.917 68.5026C204.405 68.2287 205.865 67.7624 207.299 67.1045C208.732 66.4465 210.085 65.5553 211.357 64.431C212.628 63.3083 213.804 61.8961 214.887 60.1959L219.674 63.6502Z" fill="#0E0E16"/>
<path d="M17.8191 9.17991L8.72363 18.4669L17.8869 27.6851L25.6389 27.6559L17.5101 19.4833L57.6516 19.3323L54.1334 22.9223L58.0093 22.9077L62.5572 18.2643L57.9756 13.6553L54.0996 13.6699L57.6441 17.2336L17.5027 17.3844L25.5712 9.15088L17.8191 9.17991Z" fill="#0E0E16"/>
</svg>
