<svg width="96" height="96" viewBox="0 0 96 96" fill="none" xmlns="http://www.w3.org/2000/svg">
<path d="M63.6264 52.741C60.1995 52.741 57.1273 54.2593 55.0235 56.6496L49.6325 52.8331C50.2048 51.2575 50.5334 49.5657 50.5334 47.7948C50.5334 46.0547 50.2162 44.3913 49.6628 42.8389L55.0417 39.0629C57.1453 41.4412 60.2095 42.9511 63.6264 42.9511C69.9514 42.9511 75.0981 37.8053 75.0981 31.4794C75.0981 25.1534 69.9514 20.0076 63.6264 20.0076C57.3013 20.0076 52.1547 25.1534 52.1547 31.4794C52.1547 32.6117 52.3258 33.7035 52.6327 34.7375L47.2503 38.5154C45.0018 35.726 41.7644 33.7784 38.0759 33.1839V26.6969C43.2723 25.6055 47.1876 20.9885 47.1876 15.4718C47.1876 9.14582 42.0409 4 35.7159 4C29.3908 4 24.2442 9.14582 24.2442 15.4718C24.2442 20.9146 28.0581 25.4746 33.1505 26.6439V33.2153C26.2007 34.4352 20.8984 40.5005 20.8984 47.7948C20.8984 55.1248 26.2532 61.2123 33.2532 62.3907V69.3296C28.1087 70.4604 24.2442 75.0483 24.2442 80.5282C24.2442 86.8542 29.3908 92 35.7159 92C42.0409 92 47.1876 86.8542 47.1876 80.5282C47.1876 75.0483 43.3231 70.4604 38.1786 69.3296V62.3905C41.7217 61.7937 44.927 59.9295 47.1977 57.145L52.6247 60.9862C52.3234 62.0109 52.1547 63.0919 52.1547 64.2128C52.1547 70.5387 57.3013 75.6845 63.6264 75.6845C69.9514 75.6845 75.0981 70.5387 75.0981 64.2128C75.0981 57.8868 69.9514 52.741 63.6264 52.741V52.741ZM63.6264 25.9173C66.6935 25.9173 69.1882 28.4131 69.1882 31.4794C69.1882 34.5457 66.6935 37.0412 63.6264 37.0412C60.5592 37.0412 58.0646 34.5457 58.0646 31.4794C58.0646 28.4131 60.5592 25.9173 63.6264 25.9173V25.9173ZM30.1539 15.4718C30.1539 12.4054 32.6487 9.90991 35.7159 9.90991C38.783 9.90991 41.2777 12.4054 41.2777 15.4718C41.2777 18.5381 38.783 21.0336 35.7159 21.0336C32.6487 21.0336 30.1539 18.5381 30.1539 15.4718ZM41.2777 80.5282C41.2777 83.5946 38.783 86.0901 35.7159 86.0901C32.6487 86.0901 30.1539 83.5946 30.1539 80.5282C30.1539 77.4619 32.6487 74.9664 35.7159 74.9664C38.783 74.9664 41.2777 77.4619 41.2777 80.5282ZM35.7155 55.5518C31.4377 55.5518 27.9577 52.0724 27.9577 47.7948C27.9577 43.5171 31.4377 40.0371 35.7155 40.0371C39.993 40.0371 43.473 43.5171 43.473 47.7948C43.473 52.0724 39.993 55.5518 35.7155 55.5518ZM63.6264 69.7748C60.5592 69.7748 58.0646 67.2791 58.0646 64.2128C58.0646 61.1465 60.5592 58.6509 63.6264 58.6509C66.6935 58.6509 69.1882 61.1465 69.1882 64.2128C69.1882 67.2791 66.6935 69.7748 63.6264 69.7748Z" fill="currentColor"/>
</svg>
