<svg width="96" height="96" viewBox="0 0 96 96" fill="none" xmlns="http://www.w3.org/2000/svg">
<g clip-path="url(#clip0_725_12658)">
<path fill-rule="evenodd" clip-rule="evenodd" d="M84.0831 17.1504C85.7315 18.0556 87.0518 19.5346 87.5987 21.3531L95.9424 58.4907C96.1612 60.4223 95.7237 62.3539 94.6221 63.9461L71.4581 93.5834C70.2549 95.2888 68.3877 96.194 66.4112 95.9677H29.5284C27.669 95.8545 25.8018 94.9493 24.4815 93.5834L1.31743 63.9461C0.215865 62.3539 -0.221635 60.4223 0.10649 58.4907L8.33305 21.1268C8.77837 19.1951 9.98149 17.7161 11.6299 16.9241L45.1143 0.226301C45.9893 0 46.9737 0 47.8565 0C48.7393 0 49.7237 0.11315 50.6065 0.565752L84.0831 17.1504ZM82.2698 56.0176C82.2698 56.1307 82.3791 56.1307 82.4885 56.1307C83.4729 56.3571 84.3557 57.2703 84.4494 58.4988C84.1213 59.4121 83.2385 60.091 82.2541 60.091C82.0354 60.091 81.926 60.091 81.7073 59.9779C81.644 59.9124 81.6173 59.8848 81.5849 59.8732C81.5613 59.8647 81.5346 59.8647 81.4885 59.8647C81.3604 59.8647 81.2698 59.8259 81.1947 59.7937C81.1416 59.771 81.0963 59.7516 81.051 59.7516C80.7186 59.6671 80.4515 59.5196 80.1554 59.3561C80.0549 59.3006 79.951 59.2432 79.8401 59.1858C79.6213 59.1858 79.4026 59.0727 79.1838 58.9595H79.0744C77.9729 58.5069 76.7698 58.1675 75.5588 57.9412H75.4494C75.1213 57.9412 74.7932 58.0543 74.5744 58.2806C74.5744 58.2806 74.5744 58.3938 74.4651 58.3938L73.5901 58.2806C71.6135 64.7544 67.3322 70.2018 61.7307 73.7256L62.0588 74.6308C62.0588 74.6308 61.9494 74.6308 61.9494 74.744C61.7307 75.0915 61.7307 75.5441 61.8401 75.8836C62.2776 77.0232 62.8323 78.1627 63.5979 79.1811V79.4074C63.8166 79.6337 63.926 79.7468 64.0354 79.9732C64.3635 80.3207 64.5822 80.6601 64.801 81.1127L64.801 81.1128C64.9104 81.2259 65.0198 81.3391 65.0198 81.4522C65.0198 81.4522 65.1291 81.4522 65.1291 81.5653C65.3479 82.1311 65.3479 82.7049 65.2385 83.2707C65.1291 83.8445 64.6916 84.2971 64.2541 84.5234C64.1857 84.547 64.1219 84.5706 64.061 84.5932C63.8299 84.6789 63.6388 84.7497 63.3791 84.7497C62.5041 84.7497 61.7307 84.1759 61.2932 83.3838C61.1838 83.3838 61.1838 83.2707 61.1838 83.2707C61.1291 83.2141 61.1018 83.1575 61.0744 83.101C61.0471 83.0444 61.0198 82.9878 60.9651 82.9312C60.7463 82.5837 60.6369 82.1311 60.5276 81.6785L60.3088 80.9996V80.8864C59.9936 79.6831 59.4694 78.5916 58.9438 77.4974C58.9223 77.4525 58.9007 77.4075 58.8791 77.3626C58.6604 77.0232 58.3323 76.7969 58.0041 76.6837C58.0041 76.6265 58.0041 76.5982 57.99 76.5842C57.9762 76.5706 57.9488 76.5706 57.8948 76.5706L57.4573 75.7785C57.1721 75.8664 56.8801 75.9619 56.5829 76.059C55.7322 76.3371 54.8391 76.6291 53.9416 76.7969C51.9651 77.3626 49.9885 77.5889 48.0119 77.5889C44.7229 77.5889 41.5354 77.0232 38.4651 75.7704L38.0276 76.6756C38.0276 76.7328 38.0276 76.7611 38.0134 76.7751C37.9996 76.7888 37.9723 76.7888 37.9182 76.7888C37.5901 76.9019 37.2619 77.1282 37.0432 77.4677C36.4885 78.6073 35.9416 79.7388 35.6135 80.9915L35.3947 81.6704C35.3395 81.9032 35.2563 82.105 35.1734 82.3061C35.0922 82.503 35.0114 82.6992 34.9572 82.9231C34.8479 83.0363 34.7385 83.1494 34.7385 83.2626C34.6291 83.2626 34.6291 83.3757 34.6291 83.3757C34.1916 84.1759 33.4182 84.7416 32.5432 84.7416C32.3244 84.7416 31.9963 84.6285 31.7776 84.5153C30.7932 83.9496 30.3557 82.5918 30.9026 81.4522C31.0119 81.4522 31.0119 81.339 31.0119 81.339C31.0666 81.2825 31.094 81.2259 31.1213 81.1693C31.1487 81.1127 31.176 81.0562 31.2307 80.9996C31.3713 80.8022 31.4918 80.6062 31.6009 80.4289C31.7463 80.1925 31.8713 79.9893 31.9963 79.86L31.9964 79.86C32.2151 79.6337 32.3244 79.5205 32.4338 79.2943V79.1811C33.0901 78.1547 33.7541 77.0232 34.1916 75.8836C34.301 75.536 34.301 75.0834 34.0822 74.744C34.0822 74.744 33.9729 74.744 33.9729 74.6308L34.5197 73.8388C33.426 73.273 32.5432 72.5861 31.5588 71.794C27.2776 68.3914 24.2072 63.728 22.5588 58.5069L21.5744 58.6201C21.5744 58.6201 21.5744 58.5069 21.4651 58.5069C21.2463 58.2806 20.9182 58.1675 20.5901 58.1675H20.4807C19.1604 58.3938 18.0666 58.7332 16.8557 59.1858H16.7463C16.5276 59.1858 16.3088 59.299 16.0901 59.4121C15.9609 59.4556 15.8166 59.5159 15.6632 59.58C15.4176 59.6826 15.1484 59.7951 14.8791 59.8647C14.846 59.8647 14.7928 59.8543 14.7348 59.843C14.6011 59.8169 14.4416 59.7858 14.4416 59.8647C14.4416 59.9219 14.4416 59.9502 14.4275 59.9642C14.4137 59.9779 14.3863 59.9779 14.3322 59.9779C14.1135 60.091 14.0041 60.091 13.7854 60.091C12.801 60.2042 11.8088 59.5172 11.5901 58.4988C11.3713 57.2542 12.1369 56.1146 13.3479 55.8883C13.4111 55.8228 13.4378 55.7953 13.4702 55.7836C13.4938 55.7751 13.5205 55.7751 13.5666 55.7751C13.6948 55.7751 13.7854 55.7363 13.8604 55.7041C13.9135 55.6814 13.9588 55.662 14.0041 55.662C14.2278 55.662 14.4494 55.6334 14.6701 55.605C14.8889 55.5769 15.1067 55.5488 15.3244 55.5488C15.5432 55.4357 15.7619 55.4357 15.9807 55.4357C17.301 55.3225 18.5041 55.0962 19.7151 54.7568C20.0432 54.5305 20.3713 54.3042 20.4807 53.9647C20.4807 53.9647 20.5901 53.9647 20.5901 53.8516L21.4651 53.6253C20.4807 47.1515 21.9026 40.5645 25.3088 34.9959C25.3635 34.8827 25.4182 34.7979 25.4729 34.713C25.5276 34.6281 25.5822 34.5433 25.6369 34.4301L25.002 33.7733C25.0519 33.4478 24.8522 33.0526 24.6526 32.846C23.7776 31.9408 22.6838 31.2538 21.5822 30.5749L20.926 30.2355C20.4807 30.0092 20.0432 29.7829 19.7151 29.5566C19.6057 29.5566 19.3869 29.3303 19.3869 29.3303C19.3869 29.3303 19.3869 29.2171 19.2776 29.2171C18.4026 28.4251 18.1838 27.0592 18.8401 26.0408C19.1682 25.4751 19.7229 25.2488 20.3791 25.2488C20.9338 25.2488 21.4807 25.4751 21.9182 25.8145L22.0276 25.9277C22.0822 25.9843 22.1369 26.0126 22.1916 26.0408C22.2463 26.0691 22.301 26.0974 22.3557 26.154C22.5197 26.3237 22.6565 26.4934 22.7932 26.6632C22.9299 26.8329 23.0666 27.0026 23.2307 27.1723C23.2638 27.2066 23.3069 27.2409 23.354 27.2783C23.4625 27.3644 23.5919 27.4672 23.6682 27.6249C24.4338 28.5301 25.426 29.4434 26.4104 30.2355C26.6291 30.3486 26.8479 30.4618 27.0666 30.4618C27.1948 30.4618 27.2854 30.423 27.3604 30.3908C27.4135 30.368 27.4588 30.3486 27.5041 30.3486H27.6135L28.2697 30.8012C31.8869 26.8248 36.6135 23.988 41.7697 22.8484C41.9691 22.8142 42.1657 22.7801 42.3601 22.7463C43.4535 22.5563 44.476 22.3787 45.5041 22.2826L45.6135 21.3774V21.1511C45.9416 20.9248 46.051 20.5854 46.1604 20.2459V20.2459C46.1604 18.88 46.1604 17.6354 45.9416 16.3827V16.2695C45.9416 16.0432 45.9416 15.8169 45.8322 15.5906L45.8266 15.5668C45.7191 15.1143 45.6135 14.6695 45.6135 14.2247V13.659C45.6135 13.0851 45.8322 12.5194 46.2697 12.0668C46.8166 11.501 47.4807 11.1616 48.1369 11.2747C49.2385 11.3879 50.1135 12.5194 50.0041 13.659V14.354C49.9497 14.5833 49.9223 14.8106 49.8951 15.037C49.8676 15.2653 49.8403 15.4926 49.7854 15.7199C49.7854 15.8331 49.758 15.9462 49.7307 16.0594C49.7033 16.1725 49.676 16.2857 49.676 16.3988V16.512C49.4573 17.8778 49.4573 19.1225 49.4573 20.3752V20.3752C49.5666 20.7147 49.676 21.0541 50.0041 21.2804V21.1673L50.1135 22.0725C55.2776 22.6463 60.3244 24.683 64.3869 27.9806C64.8244 28.4332 65.2912 28.8878 65.758 29.3424C66.2248 29.797 66.6916 30.2517 67.1291 30.7043L68.0041 30.1385H68.1135C68.2229 30.2516 68.4416 30.2516 68.551 30.2516C68.7698 30.2516 68.9885 30.1385 69.2072 30.0254C70.1916 29.3464 71.1838 28.4332 71.9494 27.528C71.9826 27.4937 72.0257 27.4594 72.0728 27.422C72.1813 27.3359 72.3107 27.2331 72.3869 27.0754C72.6057 26.7359 72.9338 26.3965 73.2619 26.057C73.3713 26.057 73.4807 25.9439 73.5901 25.8307L73.6994 25.7176C74.1369 25.3781 74.6916 25.1518 75.2385 25.1518C75.7932 25.1518 76.4494 25.4913 76.7776 25.9439C77.551 26.9622 77.3244 28.3281 76.3401 29.1201C76.3401 29.1634 76.356 29.1901 76.3697 29.2129C76.3917 29.2498 76.4077 29.2765 76.3401 29.3464C76.2854 29.403 76.2307 29.4313 76.176 29.4596C76.1213 29.4879 76.0666 29.5162 76.0119 29.5727C75.7816 29.6898 75.5826 29.8069 75.3836 29.9239C75.1979 30.0332 75.0122 30.1424 74.801 30.2516L74.1448 30.5911C73.051 31.27 72.0588 31.957 71.0744 32.8622C70.8557 33.0885 70.7463 33.5411 70.7463 33.8805V33.9937L70.0901 34.6726C71.8479 37.5094 73.1682 40.6857 73.9338 43.9833C74.5901 47.2808 74.8088 50.6834 74.3713 53.9809L75.2463 54.2072C75.3557 54.5466 75.6838 54.8861 76.0119 54.9993C77.2229 55.3387 78.5354 55.565 79.7463 55.6782H79.8557C80.0744 55.7913 80.2932 55.7913 80.5119 55.7913C80.9573 55.7913 81.3948 55.7913 81.8323 55.9044C82.051 55.9044 82.2698 55.9044 82.2698 56.0176ZM25.002 33.7733L24.9807 33.7512V33.8644C24.9902 33.8348 24.9973 33.8044 25.002 33.7733ZM47.801 54.086L50.7619 52.6069L51.5432 49.3094L49.4573 46.5857H46.1604L44.0744 49.3094L44.8401 52.6069L47.801 54.086ZM69.0901 52.3806C69.3088 49.9964 69.1994 47.6121 68.6526 45.2279C68.1057 42.8437 67.2229 40.5726 66.0119 38.5278L57.7776 46.2543C57.5588 46.4806 57.4494 46.7069 57.3401 47.0464C57.1213 48.0647 57.676 49.0912 58.6604 49.3175L69.0901 52.3806ZM53.7229 40.912L62.7229 34.3251C59.4338 30.9225 55.1526 28.7645 50.3244 28.1988L50.9807 39.6674C50.9807 40.0068 51.0901 40.2331 51.3088 40.4594C51.8557 41.2515 52.9572 41.3646 53.7229 40.912ZM45.051 28.0775L42.8557 28.5301C39.0119 29.4434 35.4963 31.4882 32.6526 34.3251L41.7619 41.0252C41.8304 41.0488 41.8941 41.0724 41.9551 41.095C42.1861 41.1806 42.3773 41.2515 42.6369 41.2515C43.6291 41.2515 44.5041 40.4513 44.5041 39.433L45.051 28.0775ZM37.5901 46.02L29.4651 38.5278C27.0432 42.7305 25.9494 47.6121 26.2854 52.3725L36.9338 49.1963C37.3713 49.0831 37.5901 48.9699 37.8088 48.6305C38.4651 47.8384 38.3557 46.6989 37.5901 46.02ZM38.4651 55.7913L27.5979 57.7229C29.1291 62.2651 32.2072 66.2415 36.051 68.8602L40.2229 58.4099C40.4416 58.0624 40.4416 57.6098 40.3322 57.2703C40.2229 56.3571 39.3401 55.7913 38.4651 55.7913ZM47.801 72.3678C49.4494 72.3678 50.9807 72.1415 52.5198 71.8021C53.2445 71.5878 53.8713 71.475 54.5061 71.3607C54.5419 71.3543 54.5777 71.3479 54.6135 71.3414L49.3401 61.4569L49.34 61.4568C49.0119 61.1174 48.7932 60.8911 48.4651 60.6648C47.6994 60.2122 46.8166 60.4385 46.2697 61.1175L40.8869 71.2282C43.0822 71.9152 45.4963 72.3678 47.801 72.3678ZM59.3244 68.7389C61.9573 67.0336 64.2619 64.6494 65.9104 61.9257C66.7854 60.6729 67.4494 59.1939 67.9885 57.6098L57.0119 55.6782C56.6838 55.6782 56.3557 55.7913 56.0276 55.9044C55.2619 56.2439 54.8244 57.1572 55.0432 58.0624L59.3244 68.7389Z" fill="#0E0E16"/>
</g>
<defs>
<clipPath id="clip0_725_12658">
<rect width="96" height="96" fill="white"/>
</clipPath>
</defs>
</svg>
