<svg width="93" height="96" viewBox="0 0 93 96" fill="none" xmlns="http://www.w3.org/2000/svg">
<g clip-path="url(#clip0_725_12568)">
<path d="M69.5676 69.8856C70.1774 64.7985 69.9946 64.0525 73.7784 64.8765L74.739 64.961C77.6484 65.0936 81.4544 64.4924 83.6903 63.4522C88.5036 61.2157 91.3577 57.4816 86.6116 58.4628C75.7855 60.6993 75.0412 57.0283 75.0412 57.0283C86.473 40.0427 91.2518 18.4811 87.1269 13.2033C75.8761 -1.19272 56.4014 5.61483 56.0756 5.79158L55.9718 5.81076C53.8327 5.36631 51.4388 5.10076 48.7496 5.05722C43.8504 4.97661 40.133 6.34338 37.3131 8.48524C37.3131 8.48524 2.57125 -5.84806 4.18751 26.5108C4.53125 33.3945 14.0407 78.5983 25.3824 64.9446C29.5278 59.952 33.5339 55.7305 33.5339 55.7305C35.5231 57.054 37.9048 57.729 40.4027 57.4866L40.5958 57.3217C40.5353 57.9416 40.562 58.5479 40.673 59.2657C37.7518 62.5348 38.6101 63.1088 32.7687 64.3129C26.8588 65.5326 30.3308 67.7042 32.5971 68.2718C35.3454 68.96 41.703 69.9349 45.9999 63.9126L45.8287 64.5998C46.9749 65.518 46.8974 71.1995 47.0599 75.2589C47.2226 79.3185 47.4941 83.1067 48.3204 85.3401C49.1467 87.5732 50.1217 93.3261 57.7988 91.6784C64.215 90.3015 69.1205 88.32 69.5676 69.8856Z" fill="currentColor" stroke="currentColor" stroke-width="8.06036"/>
<path d="M86.6127 58.4622C75.7856 60.6987 75.0413 57.0277 75.0413 57.0277C86.473 40.041 91.2518 18.479 87.1278 13.2018C75.8771 -1.19333 56.4015 5.61466 56.0765 5.7914L55.9719 5.81015C53.8328 5.36549 51.4389 5.10058 48.7484 5.05661C43.8492 4.97621 40.1331 6.34277 37.3132 8.4842C37.3132 8.4842 2.57068 -5.84845 4.1865 26.5102C4.53024 33.3943 14.0394 78.5981 25.3816 64.9444C29.5272 59.9518 33.5327 55.7303 33.5327 55.7303C35.5221 57.0538 37.9038 57.7289 40.4006 57.4864L40.5945 57.3215C40.5343 57.9414 40.5618 58.5477 40.6722 59.2655C37.7503 62.5347 38.6089 63.1087 32.7679 64.3127C26.8576 65.5325 30.3296 67.7041 32.5966 68.2716C35.3448 68.9598 41.7028 69.9347 45.9988 63.9124L45.8275 64.5996C46.9724 65.5178 47.7763 70.5725 47.6416 75.1546C47.5068 79.7369 47.4169 82.8827 48.3189 85.3399C49.221 87.7972 50.1201 93.3259 57.7987 91.6783C64.2148 90.3014 67.5397 86.7332 68.0022 80.7814C68.3305 76.55 69.0733 77.1755 69.1202 73.3925L69.716 71.6016C70.403 65.8657 69.8251 64.0152 73.778 64.8759L74.7387 64.9604C77.6481 65.093 81.4559 64.4918 83.6908 63.4516C88.5032 61.2151 91.3573 57.481 86.6123 58.4622H86.6127Z" fill="currentColor"/>
<path d="M46.4626 61.7505C46.1645 72.4234 46.5375 83.1707 47.5804 85.7827C48.6239 88.3946 50.857 93.475 58.5362 91.8276C64.9517 90.4503 67.286 87.7849 68.299 81.9016C69.045 77.573 70.4832 65.5516 70.6677 63.0886" stroke="white" stroke-width="2.68679" stroke-linecap="round" stroke-linejoin="round"/>
<path d="M37.2588 8.24613C37.2588 8.24613 2.4926 -5.98328 4.10886 26.3754C4.4526 33.2595 13.9624 78.4648 25.3044 64.8105C29.4491 59.8172 33.1976 55.9009 33.1976 55.9009" stroke="white" stroke-width="2.68679" stroke-linecap="round" stroke-linejoin="round"/>
<path d="M56.0379 5.64901C54.8345 6.02686 75.377 -1.87114 87.0516 13.0674C91.1754 18.3448 86.3966 39.9068 74.965 56.8939" stroke="white" stroke-width="2.68679" stroke-linecap="round" stroke-linejoin="round"/>
<path d="M74.9646 56.894C74.9646 56.894 75.7096 60.566 86.5369 58.328C91.2809 57.3468 88.4259 61.0814 83.6146 63.3189C79.6659 65.1541 70.8132 65.6244 70.6686 63.0885C70.2964 56.5457 75.3277 58.5334 74.9646 56.894ZM74.9646 56.894C74.6364 55.4175 72.3864 53.9684 70.898 50.3548C69.5986 47.2007 53.0768 23.0131 75.4799 26.6054C76.3006 26.4354 69.6369 5.26605 48.6708 4.92182C27.7094 4.5776 28.3971 30.7359 28.3971 30.7359" stroke="white" stroke-width="2.68679" stroke-linecap="round" stroke-linejoin="bevel"/>
<path d="M40.595 59.1316C37.6726 62.4006 38.5321 62.9746 32.6906 64.179C26.7803 65.399 30.2528 67.5702 32.5191 68.1375C35.2673 68.8262 41.6253 69.8011 45.9214 63.7773C47.2296 61.9432 45.9136 59.0167 44.1165 58.2707C43.2483 57.9106 42.0872 57.4592 40.595 59.1316Z" stroke="white" stroke-width="2.68679" stroke-linecap="round" stroke-linejoin="round"/>
<path d="M40.4038 59.0742C40.1094 57.1521 41.0345 54.865 42.0259 52.1892C43.5158 48.1745 46.9534 44.1591 44.2035 31.4239C42.1538 21.9336 28.4056 29.4488 28.397 30.7356C28.3886 32.022 29.0188 37.258 28.1673 43.3553C27.0562 51.3117 33.2229 58.0408 40.324 57.3524" stroke="white" stroke-width="2.68679" stroke-linecap="round" stroke-linejoin="round"/>
<path d="M37.132 30.5428C37.07 30.9823 37.9355 32.1551 39.0641 32.3118C40.1906 32.4692 41.1549 31.5527 41.216 31.1136C41.2772 30.6741 40.4128 30.19 39.2838 30.0327C38.1566 29.8751 37.1919 30.1044 37.1323 30.5428H37.132Z" fill="white" stroke="white" stroke-width="0.895589"/>
<path d="M71.4478 29.6468C71.5089 30.0863 70.6445 31.259 69.5158 31.4157C68.3883 31.5731 67.4241 30.6566 67.3623 30.2175C67.3027 29.778 68.1673 29.2939 69.2949 29.1366C70.4226 28.9792 71.3867 29.2083 71.4478 29.647V29.6468Z" fill="white" stroke="white" stroke-width="0.447794"/>
<path d="M75.4804 26.6055C75.6662 30.0529 74.7389 32.401 74.622 36.0709C74.449 41.4052 77.1617 47.5107 73.0742 53.6238" stroke="white" stroke-width="2.68679" stroke-linecap="round" stroke-linejoin="round"/>
</g>
<defs>
<clipPath id="clip0_725_12568">
<rect width="93" height="96" fill="white"/>
</clipPath>
</defs>
</svg>
