<svg width="96" height="96" viewBox="0 0 96 96" fill="none" xmlns="http://www.w3.org/2000/svg">
<path fill-rule="evenodd" clip-rule="evenodd" d="M48 96C74.5097 96 96 74.5097 96 48C96 21.4903 74.5097 0 48 0C21.4903 0 0 21.4903 0 48C0 74.5097 21.4903 96 48 96ZM31.0463 65.8384C33.0524 64.68 33.0559 60.9299 31.0537 57.4621C29.0516 53.9945 25.8022 52.1222 23.7959 53.2806C21.7897 54.439 21.7864 58.1891 23.7885 61.6569C25.7906 65.1245 29.04 66.9965 31.0463 65.8384ZM72.0734 53.2858C74.0798 54.4442 74.0831 58.1943 72.0811 61.6618C70.0789 65.1296 66.8296 67.0016 64.8232 65.8432C62.8171 64.6848 62.8136 60.9347 64.8158 57.4672C66.8181 53.9994 70.0674 52.1274 72.0734 53.2858ZM44.7169 73.7428C46.7233 72.5844 46.7265 68.8343 44.7245 65.3664C42.7223 61.8989 39.473 60.0269 37.4666 61.185C35.4605 62.3434 35.457 66.0935 37.4593 69.5613C39.4615 73.0288 42.7108 74.9012 44.7169 73.7428ZM58.4031 61.177C60.4095 62.3354 60.4127 66.0855 58.4104 69.5533C56.4085 73.0208 53.1589 74.8931 51.1528 73.7347C49.1464 72.5763 49.1432 68.8263 51.1455 65.3584C53.1474 61.8909 56.397 60.0189 58.4031 61.177ZM47.9263 28.2295C51.9305 28.2295 55.1766 26.3514 55.1766 24.0348C55.1766 21.7181 51.9305 19.8401 47.9263 19.8401C43.9219 19.8401 40.6758 21.7181 40.6758 24.0348C40.6758 26.3514 43.9219 28.2295 47.9263 28.2295ZM31.0487 41.6608C33.0508 45.1286 33.0476 48.8787 31.0412 50.0368C29.035 51.1952 25.7856 49.3232 23.7834 45.8554C21.7813 42.3878 21.7847 38.6377 23.7909 37.4794C25.7971 36.3209 29.0466 38.1933 31.0487 41.6608ZM34.2556 36.1125C38.2601 36.1125 41.5061 34.2344 41.5061 31.9179C41.5061 29.6012 38.2601 27.7232 34.2556 27.7232C30.2514 27.7232 27.0053 29.6012 27.0053 31.9179C27.0053 34.2344 30.2514 36.1125 34.2556 36.1125ZM72.0634 37.488C74.0695 38.6464 74.0727 42.3965 72.0708 45.8643C70.0686 49.3319 66.8193 51.2042 64.8129 50.0458C62.8068 48.8874 62.8033 45.1373 64.8055 41.6695C66.8078 38.2019 70.057 36.3299 72.0634 37.488ZM61.6135 36.1126C65.6177 36.1126 68.8638 34.2345 68.8638 31.9179C68.8638 29.6013 65.6177 27.7232 61.6135 27.7232C57.6094 27.7232 54.3633 29.6013 54.3633 31.9179C54.3633 34.2345 57.6094 36.1126 61.6135 36.1126ZM44.721 49.5655C46.7233 53.033 46.7198 56.7831 44.7137 57.9415C42.7073 59.0999 39.458 57.2279 37.4558 53.76C35.4538 50.2925 35.457 46.5421 37.4634 45.384C39.4695 44.2256 42.7188 46.0976 44.721 49.5655ZM58.402 53.7555C60.4042 50.288 60.4007 46.5376 58.3946 45.3795C56.3882 44.2211 53.139 46.0931 51.1367 49.5609C49.1345 53.0285 49.138 56.7785 51.1441 57.9369C53.1505 59.0953 56.3998 57.2233 58.402 53.7555ZM55.1766 39.8188C55.1766 42.1356 51.9305 44.0137 47.9263 44.0137C43.9219 44.0137 40.6758 42.1356 40.6758 39.8188C40.6758 37.5023 43.9219 35.6243 47.9263 35.6243C51.9305 35.6243 55.1766 37.5023 55.1766 39.8188Z" fill="currentColor"/>
</svg>
