<svg width="116" height="96" viewBox="0 0 116 96" fill="none" xmlns="http://www.w3.org/2000/svg">
<g clip-path="url(#clip0_725_12558)">
<path fill-rule="evenodd" clip-rule="evenodd" d="M7.75168 95.9919H108.25C112.531 95.9919 116.001 92.4915 116.001 88.1729V7.82125C116.001 3.50262 112.531 0.00219727 108.25 0.00219727H7.75168C3.47101 0.00219727 0.000976562 3.50262 0.000976562 7.82125V88.1729C0.000976562 92.4915 3.47101 95.9919 7.75168 95.9919ZM31.2112 50.9906L31.2115 50.9904C31.8642 50.6475 32.5844 50.2692 33.4125 49.8489C32.9268 52.9108 33.7369 55.1151 34.547 57.3188C34.5916 57.4403 34.6363 57.5619 34.6807 57.6835C35.6015 60.2057 35.0414 62.765 32.3993 63.4145C29.7263 64.0718 29.37 65.7256 28.936 67.7402L28.936 67.7403L28.9356 67.742C28.9098 67.862 28.8837 67.9833 28.8567 68.1057C28.647 69.0606 28.4962 70.0954 28.3443 71.1376L28.3443 71.1378C27.9316 73.9703 27.5109 76.8578 25.8765 78.3464C25.737 78.4736 25.6021 78.6395 25.4597 78.8146C25.0652 79.2996 24.6128 79.8558 23.8434 79.8585C23.7999 80.1361 23.7592 80.4053 23.7192 80.6704L23.7191 80.6708C23.5503 81.7879 23.3925 82.832 23.0853 84.1246C22.9557 84.8929 23.0835 85.6462 23.2235 85.6686C23.8773 85.7747 24.6313 85.7568 25.2444 85.5132C26.3563 85.0706 26.8882 84.0636 27.4129 83.0703L27.413 83.0702C27.5049 82.896 27.5967 82.7223 27.6913 82.5522C28.0737 81.8643 28.4565 81.1766 28.8393 80.489L28.8394 80.4887C30.5096 77.4884 32.1799 74.4881 33.8162 71.469C34.5335 70.1462 35.268 69.1447 36.9686 68.8508C45.0333 67.458 49.3334 62.3875 50.2356 54.3321C50.464 52.293 50.923 51.3573 53.2883 51.2892C61.7137 51.047 69.2424 47.7988 75.3813 42.2484C75.5203 42.1227 75.6574 41.9983 75.7928 41.8753C79.3447 38.6519 81.7566 36.463 87.0158 39.9172C89.6194 41.6269 92.706 41.3367 95.8703 41.0393L95.8704 41.0393C96.8065 40.9513 97.7495 40.8626 98.6887 40.825C99.271 40.8017 101.101 39.7106 101.101 39.7106C101.101 39.7106 101.056 40.633 101.252 40.8533C102.227 40.9347 102.877 41.1248 103.813 41.4713C104.258 41.6359 106.086 41.6153 106.086 41.6153C106.086 41.6153 106.268 41.2619 106.38 40.7395C106.714 39.1854 105.491 38.1921 104.193 37.964L104.14 37.9547C101.602 37.5078 98.9887 37.0477 96.4435 37.2043C91.1759 37.5289 88.5985 34.9339 87.521 30.0563C87.1249 28.2641 87.1603 26.4766 87.1958 24.6895V24.6894V24.6893C87.2122 23.8598 87.2287 23.0304 87.202 22.2007C87.1963 22.0246 87.1775 21.8252 87.1586 21.6241L87.1586 21.624C87.1004 21.006 87.0408 20.3732 87.3561 20.3604C90.3799 19.6977 91.063 18.8602 92.2377 17.4201C92.4913 17.1092 92.7678 16.7702 93.0958 16.3988C93.2044 16.2758 93.4895 16.1819 93.8439 16.0652C94.4678 15.8598 95.3066 15.5836 95.7751 14.953C95.7751 14.953 96.2867 11.7136 95.1271 10.4648C94.9396 10.3153 93.7575 10.3772 92.7458 10.4303C92.0564 10.4664 91.4462 10.4984 91.2833 10.4566C90.449 10.2418 89.9562 10.0008 89.5619 9.808C88.6724 9.37308 88.2844 9.18332 85.6079 10.0923C85.1371 10.2522 83.2222 11.5271 82.8248 11.8278C81.7291 12.657 79.8795 12.8184 79.8795 12.8184C79.8795 12.8184 80.0172 13.7774 80.2112 14.0786L80.1588 14.1161L80.1587 14.1162C75.6549 17.3444 71.1515 20.5724 67.5477 24.908C67.4858 24.9826 67.4241 25.057 67.3625 25.1313C66.4022 26.2904 65.4721 27.4129 64.0963 28.1548C51.8406 34.7612 39.5949 41.3863 27.3741 48.0576C24.3862 49.6885 21.667 49.7548 19.9574 46.5048C18.1684 43.1045 20.251 41.0622 23.0857 39.5442C23.5194 39.3119 23.9532 39.0797 24.387 38.8476C27.1487 37.3698 29.911 35.8917 32.6444 34.3617C35.4053 32.8162 37.2604 30.6034 37.6981 26.6921C35.7413 27.7552 33.8205 28.7797 31.9307 29.7876C27.6265 32.0833 23.483 34.2932 19.4413 36.6787C15.1234 39.2274 13.895 44.2024 16.0464 48.5032C18.2214 52.8516 23.2248 54.6164 27.9215 52.6157C28.9589 52.1737 29.9611 51.6472 31.2112 50.9906ZM62.6856 39.4264C62.5488 40.1692 62.6244 40.8809 63.4922 41.1821C64.1655 41.2145 64.6159 40.9257 64.6911 40.24C64.7718 39.5023 64.7605 38.7229 63.8597 38.4912C63.155 38.3097 62.7971 38.8212 62.6856 39.4264ZM82.0621 28.0822C82.7382 28.0045 82.9353 27.4144 82.972 26.7896C82.9439 25.9718 82.639 25.3214 81.7264 25.4101C81.0526 25.4763 80.8337 26.1186 80.8342 26.7123C80.8346 27.4926 81.1183 28.1906 82.0621 28.0822ZM77.5726 22.2703C77.4072 21.6495 76.9432 21.346 76.1815 21.4667C75.514 21.7451 75.0768 22.2461 75.3908 23.1036C75.6019 23.6809 76.0242 24.1261 76.6817 23.956C77.5232 23.738 77.7855 23.0688 77.5726 22.2703ZM38.0642 55.5974C38.9292 55.7903 39.2495 55.1618 39.4072 54.4346C39.4217 53.6265 39.0366 53.0076 38.2572 53.0583C37.8535 53.0843 37.2957 53.6219 37.1452 54.0493C36.8874 54.782 37.2993 55.4265 38.0642 55.5974ZM45.9567 51.4196C46.6885 51.4155 47.1829 50.8716 47.085 49.9354C46.8815 49.3371 46.5952 48.6268 45.7333 48.8448C44.9798 49.0359 44.5855 49.7306 44.8375 50.4588C44.9825 50.8789 45.5706 51.4219 45.9567 51.4196ZM84.5607 32.3588C84.5561 31.5845 84.1121 31.0894 83.204 31.0945C82.5284 31.3198 82.0254 31.8167 82.2824 32.596C82.4283 33.038 82.9267 33.614 83.3259 33.6656C84.1116 33.768 84.5657 33.1208 84.5607 32.3588ZM59.7389 36.2299C60.5496 36.5426 60.9506 35.9314 61.0639 35.4885C61.2338 34.3563 60.8518 33.7831 60.0593 33.7365C59.2709 33.6899 58.7371 34.29 58.8105 35.0374C58.854 35.4757 59.3234 36.0699 59.7389 36.2299ZM75.944 31.3408C76.8399 31.4661 77.1756 30.8892 77.3324 29.8786C77.2594 29.7946 77.1837 29.6818 77.1027 29.5611C76.9044 29.2654 76.6741 28.922 76.3713 28.836C75.4628 28.5768 75.1629 29.3566 75.0917 30.0811C75.0346 30.6607 75.2489 31.2439 75.944 31.3408ZM70.6262 29.55C71.2886 29.4581 71.4857 28.9082 71.561 28.0315C71.4952 27.9597 71.4243 27.8589 71.3468 27.7486L71.3468 27.7486C71.1506 27.4694 70.9118 27.1298 70.6049 27.0469C69.6868 26.7987 69.3719 27.6425 69.3262 28.3121C69.2731 29.0828 69.743 29.672 70.6262 29.55ZM45.6756 56.5754L45.678 56.556C45.5888 55.869 45.3975 55.2775 44.7324 55.2418C43.7717 55.1911 43.6163 55.9494 43.6249 56.6926C43.6317 57.2846 43.8605 57.8701 44.5402 57.9071C45.5014 57.9592 45.5964 57.2042 45.6756 56.5754ZM68.5522 40.949C68.4752 41.7694 68.8748 42.2997 69.6791 42.4967C70.3194 42.3957 70.6969 42.0332 70.7675 41.3754C70.8568 40.5458 70.57 39.8976 69.6887 39.8698C69.0865 39.8506 68.6138 40.2921 68.5522 40.949ZM83.4641 19.4742C83.3055 18.8631 82.8143 18.5806 82.1165 18.6487C81.3349 18.9184 81.0571 19.5053 81.3226 20.3194C81.5111 20.8963 81.923 21.3885 82.5651 21.1934C83.3508 20.9543 83.6703 20.2714 83.4641 19.4742ZM68.7978 34.1378C69.0312 33.3123 68.4371 32.8986 67.7375 32.7085C66.9364 32.8278 66.4067 33.2405 66.5059 34.0697C66.592 34.7924 67.0052 35.4803 67.8154 35.2933C68.2205 35.1996 68.6682 34.5963 68.7978 34.1378ZM52.9166 45.4637C52.7897 45.4623 52.6648 45.4952 52.5546 45.5588C52.0172 45.8723 51.6697 46.3468 51.8414 46.9981C51.9148 47.2761 52.1591 47.5083 52.4214 47.7354C52.5545 47.8505 52.7241 47.9138 52.8994 47.9139C53.0747 47.914 53.2443 47.8509 53.3775 47.7359C53.639 47.5101 53.8828 47.2793 53.9598 47.0013C54.1415 46.3482 53.7903 45.8828 53.2765 45.5665C53.1677 45.5006 53.0435 45.4651 52.9166 45.4637ZM47.6399 43.2386L47.6399 43.2386C47.7246 43.15 47.7983 43.0728 47.8553 43.0283C48.0107 41.8051 47.5123 41.204 46.7968 41.1112C46.4873 41.071 45.905 41.7882 45.7455 42.2631C45.4619 43.1106 46.0954 43.7043 46.8099 43.7857C47.0872 43.8173 47.4054 43.4842 47.6399 43.2387L47.6399 43.2386ZM75.6096 36.7995C75.8566 36.0009 75.471 35.4337 74.7605 35.0721C74.0849 35.004 73.7138 35.4117 73.533 35.9657C73.2688 36.7748 73.6028 37.412 74.3812 37.6465C75.0097 37.8362 75.4388 37.3516 75.6096 36.7995ZM87.6949 12.6485C87.8381 13.2399 88.2772 13.6083 88.9496 13.5576C89.6588 13.4639 89.8822 12.9227 89.8677 12.3358C89.8527 11.7132 89.4386 11.1638 88.8187 11.22C88.086 11.2868 87.4801 11.7603 87.6949 12.6485ZM40.4491 47.6053C40.4841 47.5063 40.5196 47.406 40.56 47.3085L40.5495 47.2301C40.4653 46.5951 40.3763 45.9245 39.4394 45.9596C38.776 45.9843 38.4407 46.4318 38.4462 47.0425C38.4525 47.756 38.597 48.4819 39.5382 48.4928C40.1328 48.5 40.2861 48.0663 40.4491 47.6053ZM59.309 45.7976L59.2994 45.8819C59.3891 46.4775 59.6171 46.9735 60.2963 46.984C61.2633 46.9995 61.4069 46.28 61.3412 45.5574C61.2923 45.023 61.1087 44.4174 60.3878 44.422C59.4638 44.4285 59.3856 45.1206 59.309 45.7976ZM41.2392 61.3024C41.1287 60.7114 40.8468 60.2753 40.1345 60.3087C39.3628 60.5944 39.2255 61.2311 39.298 61.9602C39.3633 62.6193 39.7684 62.9996 40.4027 62.8854C41.2682 62.7295 41.3783 62.0452 41.2392 61.3024ZM53.4419 39.5731C53.1967 40.2665 53.5343 40.9046 54.5199 41.2685C54.6041 41.1906 54.7114 41.1118 54.8245 41.0287L54.8246 41.0287L54.8246 41.0286C55.0966 40.8289 55.4021 40.6045 55.5013 40.3095C55.7465 39.5804 55.3486 38.866 54.6055 38.7503C54.2507 38.695 53.5778 39.1873 53.4419 39.5731ZM106.629 47.9149C106.629 51.1215 106.642 54.3044 106.655 57.47C106.688 65.3778 106.72 73.1782 106.546 80.9742C106.455 85.0492 103.506 86.5635 99.6375 86.5525C89.5202 86.5229 79.403 86.5277 69.2857 86.5325C65.5097 86.5343 61.7337 86.5361 57.9577 86.5361H36.0383C38.4906 83.9169 43.6902 79.0196 43.6902 79.0196C43.6902 79.0196 47.032 77.8618 49.3012 77.6589C52.2361 77.396 57.133 76.1249 57.133 76.1249C57.133 76.1249 58.9632 71.5233 59.526 68.9293C59.8781 67.3061 61.0979 64.2784 61.0979 64.2784L66.3374 64.2587L79.1096 64.1641C79.1096 64.1641 81.3698 57.7008 82.2058 54.4888C86.5535 53.904 92.7821 52.0048 98.3377 50.3107C101.467 49.3564 104.383 48.4673 106.629 47.9149ZM26.7152 65.4645C26.3803 66.4513 26.3137 67.5532 26.2479 68.6411C26.1066 70.9794 25.9692 73.2536 23.1795 74.1845C21.9524 74.5942 20.7816 75.2346 19.5882 75.8873C16.6795 77.4783 13.6369 79.1425 9.31885 77.7174C10.4059 77.1271 11.1879 76.3204 11.9252 75.5599C12.6141 74.8491 13.2641 74.1786 14.0875 73.7626C14.5896 73.5094 15.5964 72.8489 15.5964 72.8489L16.9282 73.806C16.9282 73.806 17.8593 73.3764 18.3007 73.0962C19.072 72.6076 19.9216 71.702 20.7712 70.7962L20.7713 70.7961C21.3812 70.1459 21.9912 69.4957 22.5723 68.9997C23.5857 68.1344 24.5993 67.2697 25.613 66.4049L25.6441 66.3784L26.7152 65.4645ZM100.598 32.184C100.456 31.513 100.18 31.1011 100.18 31.1011C100.18 31.1011 96.1543 33.6247 94.6957 34.0891C94.4047 34.1817 94.1249 34.3274 93.8549 34.468C92.9421 34.9435 92.1417 35.3604 91.3992 33.4643C90.6868 31.6433 91.5098 31.3734 92.585 31.0208C92.7167 30.9776 92.8523 30.9332 92.9893 30.8845C94.2221 30.446 95.4471 29.9849 96.6721 29.5238C98.2643 28.9245 99.8564 28.3252 101.465 27.7758C103.197 27.1847 105.478 27.1317 106.039 28.892C106.243 29.5296 105.999 30.2441 105.999 30.2441C105.999 30.2441 104.143 30.8899 103.182 31.2533C102.824 31.3889 102.405 31.535 101.988 31.6809L101.987 31.6809C101.489 31.8551 100.991 32.029 100.598 32.184ZM34.4949 25.5863C33.3705 25.8656 33.2864 25.1161 33.2181 24.5064C33.2112 24.4446 33.2044 24.3842 33.1967 24.3265C33.0113 22.9363 33.9461 22.5803 34.8446 22.2381C35.1426 22.1247 35.4366 22.0127 35.6844 21.8651C36.5217 21.3659 37.0696 22.239 37.1665 22.9018C37.5006 24.3268 36.3218 24.794 35.358 25.1761C35.0184 25.3107 34.7055 25.4347 34.4949 25.5863ZM32.2705 20.7022C31.2963 20.7589 30.8119 20.2255 30.7843 19.4397C30.7353 18.0689 31.5582 17.1872 32.841 17.1241C33.8411 17.0743 35.0563 17.5954 34.8547 18.8185C34.7105 19.6946 33.9344 19.9939 33.1817 20.2843L33.1816 20.2843C32.8558 20.4099 32.5344 20.5339 32.2705 20.7022Z" fill="currentColor"/>
</g>
<defs>
<clipPath id="clip0_725_12558">
<rect width="116" height="96" fill="white"/>
</clipPath>
</defs>
</svg>
