<svg width="96" height="96" viewBox="0 0 96 96" fill="none" xmlns="http://www.w3.org/2000/svg">
<g clip-path="url(#clip0_725_12554)">
<path d="M95.3436 46.8226L91.3135 44.3277C91.2795 43.9361 91.2412 43.5448 91.1988 43.154L94.6623 39.9234C94.8355 39.7625 94.9645 39.5598 95.0371 39.3348C95.1096 39.1098 95.1232 38.87 95.0766 38.6382C95.0311 38.4063 94.9269 38.1899 94.774 38.0098C94.621 37.8296 94.4244 37.6917 94.2029 37.6092L89.7753 35.9536C89.6641 35.5713 89.5484 35.1903 89.4284 34.8106L92.1903 30.9747C92.3286 30.783 92.4156 30.559 92.443 30.3242C92.4705 30.0893 92.4374 29.8514 92.3469 29.6329C92.2565 29.4144 92.1117 29.2227 91.9263 29.076C91.7409 28.9292 91.521 28.8323 91.2876 28.7945L86.6189 28.0351C86.4374 27.6811 86.2484 27.3324 86.0579 26.9866L88.0195 22.6805C88.1183 22.4656 88.1602 22.229 88.1413 21.9933C88.1224 21.7575 88.0433 21.5306 87.9115 21.3342C87.7808 21.1372 87.6017 20.9771 87.3913 20.8693C87.1809 20.7615 86.9463 20.7095 86.71 20.7185L81.9715 20.8835C81.7268 20.577 81.4772 20.2743 81.223 19.9756L82.312 15.3601C82.3665 15.1299 82.3611 14.8896 82.2964 14.6621C82.2316 14.4346 82.1097 14.2274 81.9423 14.0604C81.7752 13.8931 81.5682 13.7714 81.3408 13.7067C81.1135 13.6419 80.8733 13.6364 80.6433 13.6906L76.0289 14.7785C75.7293 14.5245 75.4261 14.275 75.1191 14.03L75.2849 9.29186C75.2938 9.05565 75.2419 8.82111 75.1342 8.61068C75.0265 8.40025 74.8667 8.22097 74.6699 8.08998C74.4734 7.95845 74.2466 7.8794 74.0109 7.86036C73.7753 7.84133 73.5387 7.88294 73.3236 7.98123L69.0186 9.94398C68.6714 9.75233 68.3219 9.56482 67.9701 9.38148L67.2089 4.71198C67.1708 4.47882 67.0738 4.25924 66.927 4.07407C66.7803 3.88889 66.5887 3.74425 66.3704 3.65385C66.1522 3.56345 65.9144 3.53029 65.6797 3.5575C65.445 3.58471 65.2212 3.67141 65.0294 3.80936L61.1909 6.57123C60.8133 6.45123 60.4334 6.33536 60.0501 6.22548L58.3945 1.79711C58.3122 1.57526 58.1743 1.37824 57.9941 1.22487C57.8138 1.07151 57.5973 0.966919 57.3651 0.921109C57.1335 0.875528 56.8941 0.889687 56.6694 0.96225C56.4448 1.03481 56.2423 1.16339 56.0811 1.33586L52.8505 4.80198C52.4598 4.7582 52.0685 4.71995 51.6768 4.68723L49.1819 0.655984C49.0576 0.455108 48.884 0.28932 48.6776 0.174346C48.4713 0.0593724 48.2389 -0.000976563 48.0027 -0.000976562C47.7665 -0.000976562 47.5341 0.0593724 47.3278 0.174346C47.1214 0.28932 46.9478 0.455108 46.8235 0.655984L44.3286 4.68723C43.9365 4.7199 43.5448 4.75815 43.1538 4.80198L39.9224 1.33586C39.7613 1.16275 39.5587 1.03373 39.3337 0.961077C39.1087 0.888423 38.8688 0.874552 38.637 0.920784C38.4051 0.967016 38.1889 1.07181 38.009 1.2252C37.829 1.37859 37.6914 1.57547 37.609 1.79711L35.9538 6.22548C35.5701 6.33536 35.1906 6.45198 34.8119 6.57123L30.9741 3.80936C30.7824 3.67077 30.5584 3.58369 30.3234 3.55644C30.0884 3.52919 29.8503 3.56269 29.632 3.65373C29.4139 3.74434 29.2224 3.88906 29.0758 4.07423C28.9291 4.25939 28.8321 4.47889 28.7939 4.71198L28.0326 9.38148C27.6801 9.56411 27.3318 9.75198 26.9841 9.94398L22.6788 7.98086C22.4639 7.88251 22.2273 7.8409 21.9918 7.86C21.7562 7.8791 21.5295 7.95829 21.3333 8.08998C21.1364 8.22088 20.9763 8.40012 20.8685 8.61056C20.7607 8.82099 20.7087 9.05558 20.7175 9.29186L20.8825 14.03C20.576 14.2754 20.2727 14.525 19.9728 14.7785L15.3584 13.691C15.1282 13.637 14.8881 13.6427 14.6607 13.7073C14.4332 13.7719 14.2261 13.8934 14.0586 14.0604C13.8912 14.2274 13.7692 14.4346 13.7045 14.6621C13.6398 14.8896 13.6344 15.1299 13.6889 15.3601L14.776 19.9756C14.5236 20.2745 14.2743 20.5771 14.0294 20.8835L9.29089 20.7185C9.05491 20.711 8.8209 20.7636 8.61077 20.8712C8.40063 20.9788 8.22124 21.138 8.08939 21.3339C7.95789 21.5303 7.87884 21.7572 7.85974 21.9928C7.84064 22.2284 7.88213 22.465 7.98026 22.6801L9.94301 26.9866C9.75214 27.3324 9.56351 27.6811 9.38051 28.0351L4.71214 28.7945C4.47885 28.8325 4.25914 28.9295 4.07386 29.0763C3.88858 29.2231 3.74387 29.4148 3.65346 29.6332C3.56304 29.8516 3.52992 30.0894 3.55723 30.3242C3.58454 30.559 3.67138 30.7829 3.80951 30.9747L6.57139 34.811C6.45139 35.1897 6.33476 35.57 6.22451 35.9536L1.79651 37.6092C1.57538 37.6923 1.3791 37.8304 1.22625 38.0105C1.0734 38.1907 0.969039 38.4068 0.923044 38.6385C0.877048 38.8702 0.890939 39.1098 0.963401 39.3347C1.03586 39.5595 1.1645 39.7621 1.33714 39.9234L4.80101 43.1536C4.75789 43.5436 4.71964 43.9362 4.68664 44.3277L0.655762 46.8226C0.454917 46.947 0.289195 47.1206 0.174337 47.327C0.0594787 47.5334 -0.00070146 47.7658 -0.000487714 48.002C-0.000487714 48.4835 0.248137 48.9294 0.656137 49.1806L4.68664 51.6755C4.71964 52.0681 4.75789 52.46 4.80101 52.8496L1.33676 56.081C1.16382 56.242 1.03491 56.4446 0.962274 56.6695C0.88964 56.8943 0.875692 57.1341 0.921755 57.3658C0.967818 57.5976 1.07236 57.8138 1.22546 57.9938C1.37856 58.1738 1.57513 58.3117 1.79651 58.3944L6.22451 60.05C6.33476 60.4332 6.45139 60.8139 6.57139 61.1926L3.80951 65.0292C3.67112 65.221 3.5841 65.445 3.55672 65.6799C3.52934 65.9148 3.56252 66.1528 3.6531 66.3712C3.74369 66.5897 3.88866 66.7813 4.07422 66.9279C4.25979 67.0745 4.47978 67.1712 4.71326 67.2087L9.38089 67.9681C9.56351 68.3221 9.75064 68.6709 9.94339 69.0181L7.98026 73.3231C7.88195 73.5381 7.84036 73.7748 7.85947 74.0104C7.87857 74.2461 7.95773 74.473 8.08939 74.6694C8.22029 74.8661 8.3995 75.0261 8.60986 75.1338C8.82022 75.2415 9.0547 75.2935 9.29089 75.2847L14.0271 75.119C14.2743 75.4269 14.5229 75.7287 14.776 76.0287L13.6889 80.645C13.6345 80.8748 13.6399 81.1147 13.7046 81.3418C13.7693 81.5689 13.8912 81.7756 14.0586 81.9421C14.2256 82.1097 14.4328 82.2316 14.6604 82.2962C14.888 82.3607 15.1283 82.3657 15.3584 82.3107L19.9728 81.224C20.2728 81.479 20.5765 81.7265 20.8829 81.9702L20.7179 86.7099C20.7094 86.946 20.7614 87.1804 20.8691 87.3908C20.9767 87.6012 21.1364 87.7805 21.3329 87.9118C21.5294 88.043 21.7563 88.1218 21.9918 88.1406C22.2274 88.1595 22.4639 88.1177 22.6788 88.0194L26.9841 86.0577C27.3308 86.2504 27.6803 86.4378 28.0326 86.6199L28.7939 91.2867C28.8315 91.5202 28.9283 91.7401 29.075 91.9256C29.2217 92.111 29.4135 92.2558 29.632 92.3461C29.8504 92.4366 30.0883 92.4698 30.3232 92.4427C30.558 92.4156 30.7821 92.3291 30.9741 92.1912L34.81 89.4275C35.1888 89.5475 35.5694 89.6649 35.9526 89.7751L37.6083 94.2016C37.6907 94.4232 37.8286 94.6199 38.0087 94.7729C38.1889 94.9259 38.4053 95.0302 38.6373 95.0757C38.8689 95.1225 39.1088 95.1089 39.3337 95.0362C39.5586 94.9636 39.761 94.8344 39.9216 94.661L43.153 91.1967C43.543 91.2417 43.9353 91.2792 44.3279 91.3141L46.8228 95.3446C46.9472 95.5452 47.1208 95.7107 47.327 95.8255C47.5332 95.9404 47.7653 96.0007 48.0014 96.0009C48.2376 96.0008 48.4698 95.9405 48.6762 95.8257C48.8825 95.7108 49.0562 95.5453 49.1808 95.3446L51.6756 91.3141C52.0683 91.2792 52.4601 91.2417 52.8498 91.1967L56.0804 94.661C56.241 94.8342 56.4434 94.9634 56.6682 95.036C56.8931 95.1086 57.1328 95.1223 57.3644 95.0757C57.5963 95.03 57.8126 94.9257 57.9927 94.7727C58.1729 94.6197 58.3108 94.4231 58.3934 94.2016L60.049 89.7751C60.4323 89.6649 60.8133 89.5475 61.192 89.4275L65.0286 92.1912C65.2206 92.3292 65.4446 92.4159 65.6794 92.443C65.9142 92.4701 66.152 92.4368 66.3704 92.3462C66.5887 92.2556 66.7802 92.1107 66.9269 91.9253C67.0735 91.7399 67.1703 91.5201 67.2081 91.2867L67.9694 86.6199C68.3215 86.4372 68.6699 86.2475 69.0175 86.0574L73.3229 88.0194C73.5378 88.118 73.7743 88.16 74.01 88.1413C74.2457 88.1226 74.4727 88.0439 74.6694 87.9126C74.866 87.7813 75.0258 87.6018 75.1334 87.3913C75.241 87.1807 75.2929 86.9461 75.2841 86.7099L75.1191 81.9706C75.4259 81.7266 75.7289 81.4777 76.0278 81.224L80.6425 82.3107C81.1113 82.421 81.6025 82.2845 81.9411 81.9421C82.1085 81.7756 82.2304 81.5689 82.2952 81.3418C82.3599 81.1147 82.3653 80.8748 82.3109 80.645L81.2241 76.0287C81.4773 75.7287 81.7266 75.4269 81.9704 75.119L86.7089 75.2847C86.9451 75.2937 87.1796 75.2418 87.3899 75.1341C87.6003 75.0264 87.7795 74.8665 87.9104 74.6697C88.0423 74.4733 88.1215 74.2462 88.1405 74.0104C88.1594 73.7745 88.1175 73.5378 88.0188 73.3227L86.0568 69.0185C86.2484 68.6709 86.4366 68.3221 86.6181 67.9685L91.2869 67.2087C91.5203 67.1713 91.7402 67.0745 91.9255 66.9277C92.1108 66.7808 92.2553 66.5889 92.3451 66.3702C92.4357 66.152 92.4689 65.9142 92.4416 65.6795C92.4144 65.4448 92.3276 65.221 92.1895 65.0292L89.4276 61.193C89.5469 60.8139 89.6635 60.4332 89.7745 60.05L94.2018 58.3944C94.4234 58.3119 94.6201 58.174 94.7732 57.9938C94.9262 57.8135 95.0305 57.597 95.0759 57.365C95.1226 57.1334 95.1089 56.8936 95.0363 56.6688C94.9637 56.4439 94.8345 56.2415 94.6611 56.081L91.198 52.8496C91.24 52.4596 91.2786 52.0674 91.3124 51.6759L95.3429 49.1806C95.5438 49.0565 95.7096 48.8831 95.8246 48.6767C95.9395 48.4704 95.9997 48.2382 95.9995 48.002C95.9995 47.5216 95.752 47.075 95.3436 46.8226ZM68.3691 80.2561C66.8301 79.9242 65.8514 78.4074 66.1818 76.8635C66.511 75.3215 68.0268 74.3401 69.5654 74.672C71.1044 75.0016 72.0846 76.5211 71.7546 78.062C71.4246 79.6032 69.9074 80.5857 68.3691 80.2561ZM66.9996 70.994C66.6657 70.9224 66.3209 70.9173 65.985 70.979C65.6491 71.0408 65.3286 71.1682 65.042 71.3539C64.7553 71.5396 64.5081 71.78 64.3145 72.0613C64.1208 72.3427 63.9845 72.6594 63.9134 72.9935L62.4824 79.6711C58.0668 81.6751 53.1636 82.7885 47.9995 82.7885C42.7173 82.7885 37.7073 81.62 33.2133 79.5305L31.783 72.8532C31.4823 71.4481 30.1008 70.553 28.6975 70.8545L22.8025 72.1205C21.7069 70.9929 20.6886 69.7926 19.7545 68.528H48.4383C48.7626 68.528 48.979 68.4691 48.979 68.1736V58.0272C48.979 57.7321 48.7626 57.6732 48.4379 57.6732H40.0495V51.242H49.1226C49.9506 51.242 53.551 51.4782 54.7019 56.0802C55.0626 57.4955 55.8539 62.099 56.3954 63.5727C56.9346 65.2257 59.1303 68.5276 61.4703 68.5276H75.7634C75.9258 68.5276 76.099 68.5092 76.2816 68.4762C75.2899 69.8231 74.2036 71.0975 73.0308 72.29L66.9996 70.994ZM27.3284 80.1166C25.789 80.4489 24.2736 79.4675 23.9425 77.9255C23.6133 76.3809 24.592 74.8647 26.131 74.5329C27.6704 74.2036 29.1865 75.185 29.5165 76.7266C29.8458 78.2679 28.8666 79.7866 27.3284 80.1166ZM16.447 35.9941C17.0856 37.4349 16.4358 39.1235 14.9969 39.761C13.558 40.4004 11.8739 39.7497 11.2356 38.3079C10.597 36.866 11.2465 35.1804 12.6858 34.541C13.0281 34.3892 13.397 34.3063 13.7713 34.2971C14.1457 34.288 14.5182 34.3527 14.8675 34.4877C15.2169 34.6226 15.5362 34.8251 15.8072 35.0835C16.0782 35.3419 16.2956 35.6516 16.447 35.9941ZM13.1028 43.9216L19.2438 41.1927C19.8742 40.9123 20.3675 40.3931 20.6153 39.7491C20.8631 39.1052 20.8451 38.3892 20.5653 37.7585L19.3008 34.8987H24.2748V57.3192H14.2394C13.3498 54.1877 12.8998 50.9477 12.9021 47.6922C12.9021 46.418 12.9708 45.1591 13.1028 43.9216ZM40.051 41.744V35.1354H51.8958C52.5078 35.1354 56.2158 35.8426 56.2158 38.6154C56.2158 40.9175 53.3718 41.7429 51.0329 41.7429H40.051V41.744ZM83.098 47.6922C83.098 48.569 83.0658 49.4367 83.0016 50.2977H79.4005C79.0401 50.2977 78.895 50.5347 78.895 50.8876V52.5414C78.895 56.4339 76.7001 57.2806 74.7768 57.4962C72.9453 57.7025 70.9143 56.7294 70.6641 55.6085C69.5834 49.5312 67.783 48.2334 64.9398 45.9905C68.4685 43.7499 72.1398 40.4442 72.1398 36.0192C72.1398 31.2417 68.8645 28.2324 66.6318 26.7567C63.4998 24.692 60.0318 24.278 59.0961 24.278H21.8541C26.9043 18.6417 33.7488 14.6491 41.4899 13.1964L45.8796 17.8014C46.1151 18.0485 46.3971 18.2469 46.7094 18.3849C47.0216 18.523 47.358 18.5981 47.6994 18.606C48.0407 18.6139 48.3802 18.5543 48.6985 18.4308C49.0168 18.3073 49.3076 18.1222 49.5543 17.8861L54.466 13.1881C64.7579 15.1044 73.4718 21.5109 78.4934 30.3005L75.1308 37.8954C74.5503 39.2097 75.1428 40.7469 76.4534 41.3292L82.9274 44.2047C83.0391 45.3541 83.098 46.5151 83.098 47.6922ZM45.8815 9.27873C47.0189 8.18936 48.823 8.23248 49.912 9.37136C50.9988 10.5136 50.9575 12.3196 49.8175 13.4082C48.6801 14.498 46.876 14.4556 45.787 13.3145C45.2652 12.7664 44.9821 12.0336 44.9998 11.2771C45.0175 10.5205 45.3346 9.80183 45.8815 9.27873ZM79.2501 36.1325C79.4014 35.79 79.6188 35.4807 79.8898 35.2223C80.1607 34.9639 80.48 34.7615 80.8293 34.6266C81.1786 34.4918 81.551 34.4271 81.9253 34.4363C82.2996 34.4456 82.6684 34.5285 83.0106 34.6805C84.4499 35.3187 85.0994 37.0066 84.4608 38.4474C84.3095 38.79 84.0922 39.0995 83.8212 39.358C83.5502 39.6166 83.2309 39.8191 82.8815 39.9541C82.5322 40.0891 82.1596 40.1538 81.7852 40.1446C81.4108 40.1354 81.0418 40.0525 80.6995 39.9005C79.2621 39.2619 78.6126 37.5755 79.2501 36.1325Z" fill="#181825"/>
</g>
<defs>
<clipPath id="clip0_725_12554">
<rect width="96" height="96" fill="white"/>
</clipPath>
</defs>
</svg>
